G04 #@! TF.GenerationSoftware,KiCad,Pcbnew,7.0.11-2.fc39*
G04 #@! TF.CreationDate,2024-03-24T03:41:49+08:00*
G04 #@! TF.ProjectId,ikoka-nano-meshtastic-device,696b6f6b-612d-46e6-916e-6f2d6d657368,1.1*
G04 #@! TF.SameCoordinates,Original*
G04 #@! TF.FileFunction,Copper,L2,Bot*
G04 #@! TF.FilePolarity,Positive*
%FSLAX46Y46*%
G04 Gerber Fmt 4.6, Leading zero omitted, Abs format (unit mm)*
G04 Created by KiCad (PCBNEW 7.0.11-2.fc39) date 2024-03-24 03:41:49*
%MOMM*%
%LPD*%
G01*
G04 APERTURE LIST*
G04 #@! TA.AperFunction,SMDPad,CuDef*
%ADD10R,2.080000X1.510000*%
G04 #@! TD*
G04 #@! TA.AperFunction,ViaPad*
%ADD11C,0.600000*%
G04 #@! TD*
G04 #@! TA.AperFunction,ViaPad*
%ADD12C,1.443000*%
G04 #@! TD*
G04 #@! TA.AperFunction,Conductor*
%ADD13C,0.152400*%
G04 #@! TD*
G04 #@! TA.AperFunction,Conductor*
%ADD14C,0.304800*%
G04 #@! TD*
G04 APERTURE END LIST*
D10*
X140825000Y-115420000D03*
X140825000Y-112880000D03*
X140825000Y-110340000D03*
X140825000Y-102740000D03*
X140825000Y-100200000D03*
X140825000Y-97660000D03*
X140825000Y-95120000D03*
X140825000Y-92580000D03*
X140825000Y-90040000D03*
X140825000Y-87500000D03*
X140825000Y-84960000D03*
X163975000Y-84960000D03*
X163975000Y-87500000D03*
X163975000Y-90040000D03*
X163975000Y-92580000D03*
X163975000Y-95120000D03*
X163975000Y-97660000D03*
X163975000Y-100200000D03*
X163975000Y-102740000D03*
X163975000Y-110340000D03*
X163975000Y-112880000D03*
X163975000Y-115420000D03*
D11*
X163830000Y-85090000D03*
X166370000Y-85090000D03*
X148590000Y-85090000D03*
X143510000Y-102870000D03*
X146050000Y-102870000D03*
X148590000Y-102870000D03*
X151130000Y-102870000D03*
X161290000Y-102870000D03*
X158750000Y-102870000D03*
X156210000Y-102870000D03*
X163437598Y-118110000D03*
X159142402Y-118110000D03*
X168910000Y-87630000D03*
X161290000Y-118110000D03*
X156210000Y-118110000D03*
X153670000Y-120650000D03*
X151130000Y-120650000D03*
X146050000Y-100330000D03*
X145034000Y-86868000D03*
X145034000Y-89408000D03*
X145034000Y-91440000D03*
X152908000Y-94488000D03*
X145034000Y-94488000D03*
X145034000Y-97028000D03*
X153900000Y-97028000D03*
X159766000Y-99568000D03*
X159766000Y-97028000D03*
X162052000Y-94488000D03*
X159766000Y-91948000D03*
X148590000Y-95250000D03*
X166370000Y-92710000D03*
X133350000Y-87630000D03*
X135890000Y-87630000D03*
X148590000Y-107950000D03*
X151130000Y-113030000D03*
X171450000Y-118110000D03*
X135890000Y-90170000D03*
X135890000Y-120650000D03*
X143510000Y-118110000D03*
X140970000Y-82550000D03*
X158750000Y-95250000D03*
X146050000Y-82550000D03*
X158750000Y-110490000D03*
X166370000Y-113030000D03*
X171450000Y-100330000D03*
X146050000Y-113030000D03*
X138430000Y-95250000D03*
X133350000Y-113030000D03*
X166370000Y-115570000D03*
X148590000Y-100330000D03*
X158750000Y-85090000D03*
X158750000Y-113030000D03*
X140970000Y-100330000D03*
X171450000Y-120650000D03*
X143510000Y-110490000D03*
X138430000Y-102870000D03*
X153670000Y-95250000D03*
X158750000Y-90170000D03*
X151130000Y-90170000D03*
X133350000Y-110490000D03*
X161290000Y-120650000D03*
X145657598Y-120650000D03*
X135890000Y-102870000D03*
X168910000Y-110490000D03*
X168910000Y-113030000D03*
X146050000Y-107950000D03*
X156210000Y-97790000D03*
X133350000Y-82550000D03*
X158750000Y-115570000D03*
X158750000Y-107950000D03*
X158750000Y-105410000D03*
X156210000Y-87630000D03*
X140970000Y-115570000D03*
X161290000Y-115570000D03*
X156210000Y-95250000D03*
X140970000Y-107950000D03*
X135890000Y-113030000D03*
X166370000Y-118110000D03*
X168910000Y-97790000D03*
X138430000Y-113030000D03*
X156210000Y-90170000D03*
X135890000Y-92710000D03*
X161290000Y-105410000D03*
X166370000Y-107950000D03*
X140970000Y-85090000D03*
X133350000Y-100330000D03*
X146050000Y-115570000D03*
X168910000Y-102870000D03*
X158750000Y-82550000D03*
X168910000Y-120650000D03*
X138430000Y-118110000D03*
X133350000Y-107950000D03*
X156210000Y-82550000D03*
X156210000Y-92710000D03*
X143510000Y-120650000D03*
X133350000Y-95250000D03*
X138430000Y-92710000D03*
X152400000Y-82550000D03*
X161290000Y-101600000D03*
X168910000Y-90170000D03*
X166370000Y-120650000D03*
X171450000Y-107950000D03*
X135890000Y-97790000D03*
X133350000Y-102870000D03*
X135890000Y-107950000D03*
X143510000Y-107950000D03*
X152400000Y-84836000D03*
X166370000Y-105410000D03*
X171450000Y-85090000D03*
X163830000Y-105410000D03*
X148590000Y-115570000D03*
X138430000Y-97790000D03*
X148590000Y-118110000D03*
X135890000Y-105410000D03*
X161290000Y-82550000D03*
X151130000Y-105410000D03*
X166370000Y-97790000D03*
X171450000Y-82550000D03*
X133350000Y-90170000D03*
X140970000Y-102870000D03*
X135890000Y-115570000D03*
X166370000Y-82550000D03*
X133350000Y-118110000D03*
X168910000Y-95250000D03*
X156210000Y-105410000D03*
X135890000Y-100330000D03*
X143510000Y-82550000D03*
X153670000Y-92710000D03*
X148590000Y-97790000D03*
X156210000Y-107950000D03*
X133350000Y-115570000D03*
X163830000Y-110490000D03*
X146050000Y-110490000D03*
X151130000Y-100330000D03*
X168910000Y-82550000D03*
X138430000Y-107950000D03*
X138430000Y-90170000D03*
X166370000Y-95250000D03*
X171450000Y-97790000D03*
X161290000Y-110490000D03*
X145657598Y-118110000D03*
X171450000Y-92710000D03*
X151130000Y-110490000D03*
X135890000Y-95250000D03*
X148590000Y-110490000D03*
X171450000Y-105410000D03*
X133350000Y-92710000D03*
X151130000Y-97790000D03*
X158750000Y-97790000D03*
X138430000Y-87630000D03*
X140970000Y-105410000D03*
X151130000Y-95250000D03*
X168910000Y-92710000D03*
X161290000Y-107950000D03*
X171450000Y-115570000D03*
X148590000Y-105410000D03*
X143620159Y-105520159D03*
X171450000Y-110490000D03*
X163830000Y-82550000D03*
X135890000Y-110490000D03*
X153670000Y-87630000D03*
X143510000Y-113030000D03*
X158750000Y-87630000D03*
X143510000Y-115570000D03*
X168910000Y-105410000D03*
X133350000Y-85090000D03*
X166370000Y-90170000D03*
X148590000Y-113030000D03*
X138430000Y-100330000D03*
X151130000Y-87630000D03*
X135890000Y-82550000D03*
X171450000Y-95250000D03*
X163830000Y-115570000D03*
X138430000Y-85090000D03*
X133350000Y-120650000D03*
X133350000Y-105410000D03*
X140970000Y-110490000D03*
X151130000Y-107950000D03*
X168910000Y-100330000D03*
X138430000Y-115570000D03*
X159142402Y-120650000D03*
X156210000Y-110490000D03*
X171450000Y-87630000D03*
X138430000Y-105410000D03*
X166370000Y-100330000D03*
X156210000Y-113030000D03*
X171450000Y-90170000D03*
X141362402Y-118110000D03*
X168910000Y-107950000D03*
X156210000Y-115570000D03*
X133350000Y-97790000D03*
X148590000Y-82550000D03*
X158750000Y-92710000D03*
X146050000Y-105410000D03*
X171450000Y-102870000D03*
X148590000Y-118110000D03*
X166370000Y-87630000D03*
X163437598Y-120650000D03*
X163830000Y-107950000D03*
X138430000Y-82550000D03*
X140970000Y-113030000D03*
X166370000Y-102870000D03*
X168910000Y-115570000D03*
X151130000Y-118110000D03*
X156210000Y-85090000D03*
X138430000Y-110490000D03*
X166370000Y-110490000D03*
X153670000Y-90170000D03*
X138430000Y-120650000D03*
X153670000Y-118110000D03*
X148590000Y-87630000D03*
X161290000Y-113030000D03*
X171450000Y-113030000D03*
X141362402Y-120650000D03*
X151130000Y-92710000D03*
D12*
X147828000Y-91694000D03*
D11*
X140589000Y-90170000D03*
D13*
X146050000Y-100330000D02*
X147320000Y-101600000D01*
X147320000Y-101600000D02*
X160020000Y-101600000D01*
X160020000Y-101600000D02*
X161290000Y-102870000D01*
X161290000Y-102870000D02*
X161682446Y-102740000D01*
X161682446Y-102740000D02*
X163975000Y-102740000D01*
X162306000Y-86868000D02*
X162938000Y-87500000D01*
X145034000Y-86868000D02*
X162306000Y-86868000D01*
X162938000Y-87500000D02*
X163975000Y-87500000D01*
X162306000Y-89408000D02*
X162938000Y-90040000D01*
X162938000Y-90040000D02*
X163975000Y-90040000D01*
X145034000Y-89408000D02*
X162306000Y-89408000D01*
X159547046Y-91419400D02*
X162814400Y-91419400D01*
X162814400Y-91419400D02*
X163975000Y-92580000D01*
X145034000Y-91440000D02*
X146304000Y-90170000D01*
X159526446Y-91440000D02*
X159547046Y-91419400D01*
X151130000Y-91440000D02*
X159526446Y-91440000D01*
X146304000Y-90170000D02*
X149860000Y-90170000D01*
X149860000Y-90170000D02*
X151130000Y-91440000D01*
X145034000Y-94488000D02*
X152908000Y-94488000D01*
X153900000Y-97028000D02*
X145034000Y-97028000D01*
X142733000Y-99568000D02*
X159766000Y-99568000D01*
X140825000Y-97660000D02*
X142733000Y-99568000D01*
X159766000Y-97028000D02*
X162938000Y-100200000D01*
X162938000Y-100200000D02*
X163975000Y-100200000D01*
X162306000Y-94488000D02*
X162052000Y-94488000D01*
X162938000Y-95120000D02*
X162306000Y-94488000D01*
X163975000Y-95120000D02*
X162938000Y-95120000D01*
X162938000Y-97660000D02*
X163975000Y-97660000D01*
X159766000Y-91948000D02*
X159766000Y-94488000D01*
X159766000Y-94488000D02*
X162938000Y-97660000D01*
D14*
X140825000Y-87500000D02*
X140825000Y-90040000D01*
X140462000Y-89916000D02*
X140825000Y-90040000D01*
D13*
X140825000Y-95120000D02*
X140825000Y-92580000D01*
G04 #@! TA.AperFunction,Conductor*
G36*
X172192638Y-81798093D02*
G01*
X172218358Y-81842642D01*
X172219500Y-81855700D01*
X172219500Y-121344300D01*
X172201907Y-121392638D01*
X172157358Y-121418358D01*
X172144300Y-121419500D01*
X132655700Y-121419500D01*
X132607362Y-121401907D01*
X132581642Y-121357358D01*
X132580500Y-121344300D01*
X132580500Y-118179632D01*
X133984686Y-118179632D01*
X134015129Y-118456309D01*
X134085531Y-118725599D01*
X134194393Y-118981773D01*
X134194395Y-118981776D01*
X134339388Y-119219357D01*
X134339394Y-119219366D01*
X134517438Y-119433308D01*
X134517442Y-119433312D01*
X134724745Y-119619056D01*
X134956883Y-119772637D01*
X135208909Y-119890782D01*
X135475451Y-119970973D01*
X135750828Y-120011500D01*
X135750832Y-120011500D01*
X135959497Y-120011500D01*
X135959499Y-120011499D01*
X136035139Y-120005963D01*
X136167592Y-119996269D01*
X136167594Y-119996268D01*
X136167601Y-119996268D01*
X136439286Y-119935748D01*
X136699263Y-119836315D01*
X136941993Y-119700089D01*
X137162301Y-119529972D01*
X137355492Y-119329592D01*
X137517449Y-119103218D01*
X137644719Y-118855675D01*
X137734591Y-118592239D01*
X137785148Y-118318526D01*
X137790224Y-118179632D01*
X167004686Y-118179632D01*
X167035129Y-118456309D01*
X167105531Y-118725599D01*
X167214393Y-118981773D01*
X167214395Y-118981776D01*
X167359388Y-119219357D01*
X167359394Y-119219366D01*
X167537438Y-119433308D01*
X167537442Y-119433312D01*
X167744745Y-119619056D01*
X167976883Y-119772637D01*
X168228909Y-119890782D01*
X168495451Y-119970973D01*
X168770828Y-120011500D01*
X168770832Y-120011500D01*
X168979497Y-120011500D01*
X168979499Y-120011499D01*
X169055139Y-120005963D01*
X169187592Y-119996269D01*
X169187594Y-119996268D01*
X169187601Y-119996268D01*
X169459286Y-119935748D01*
X169719263Y-119836315D01*
X169961993Y-119700089D01*
X170182301Y-119529972D01*
X170375492Y-119329592D01*
X170537449Y-119103218D01*
X170664719Y-118855675D01*
X170754591Y-118592239D01*
X170805148Y-118318526D01*
X170815314Y-118040368D01*
X170784871Y-117763694D01*
X170714469Y-117494401D01*
X170605607Y-117238228D01*
X170460607Y-117000636D01*
X170368879Y-116890413D01*
X170282561Y-116786691D01*
X170282557Y-116786687D01*
X170075257Y-116600946D01*
X170075255Y-116600944D01*
X169920496Y-116498556D01*
X169843116Y-116447362D01*
X169591089Y-116329217D01*
X169407904Y-116274105D01*
X169324549Y-116249027D01*
X169152672Y-116223732D01*
X169049173Y-116208500D01*
X169049172Y-116208500D01*
X168840511Y-116208500D01*
X168840499Y-116208500D01*
X168632407Y-116223730D01*
X168360709Y-116284253D01*
X168100739Y-116383684D01*
X168100735Y-116383686D01*
X167858010Y-116519908D01*
X167637699Y-116690027D01*
X167444512Y-116890403D01*
X167444504Y-116890413D01*
X167282553Y-117116777D01*
X167155278Y-117364330D01*
X167065410Y-117627753D01*
X167065408Y-117627763D01*
X167014852Y-117901471D01*
X167004686Y-118179628D01*
X167004686Y-118179632D01*
X137790224Y-118179632D01*
X137795314Y-118040368D01*
X137764871Y-117763694D01*
X137694469Y-117494401D01*
X137585607Y-117238228D01*
X137440607Y-117000636D01*
X137348879Y-116890413D01*
X137262561Y-116786691D01*
X137262557Y-116786687D01*
X137055257Y-116600946D01*
X137055255Y-116600944D01*
X136900496Y-116498556D01*
X136823116Y-116447362D01*
X136571089Y-116329217D01*
X136387904Y-116274105D01*
X136304549Y-116249027D01*
X136132672Y-116223732D01*
X136029173Y-116208500D01*
X136029172Y-116208500D01*
X135820511Y-116208500D01*
X135820499Y-116208500D01*
X135612407Y-116223730D01*
X135340709Y-116284253D01*
X135080739Y-116383684D01*
X135080735Y-116383686D01*
X134838010Y-116519908D01*
X134617699Y-116690027D01*
X134424512Y-116890403D01*
X134424504Y-116890413D01*
X134262553Y-117116777D01*
X134135278Y-117364330D01*
X134045410Y-117627753D01*
X134045408Y-117627763D01*
X133994852Y-117901471D01*
X133984686Y-118179628D01*
X133984686Y-118179632D01*
X132580500Y-118179632D01*
X132580500Y-115547000D01*
X139531001Y-115547000D01*
X139531001Y-116200017D01*
X139545737Y-116274105D01*
X139601876Y-116358124D01*
X139685894Y-116414262D01*
X139685896Y-116414263D01*
X139759982Y-116428999D01*
X140698000Y-116428999D01*
X140698000Y-115547000D01*
X140952000Y-115547000D01*
X140952000Y-116428999D01*
X141890016Y-116428999D01*
X141890017Y-116428998D01*
X141964105Y-116414262D01*
X142048124Y-116358123D01*
X142104262Y-116274105D01*
X142104263Y-116274103D01*
X142119000Y-116200017D01*
X142119000Y-115547000D01*
X162681001Y-115547000D01*
X162681001Y-116200017D01*
X162695737Y-116274105D01*
X162751876Y-116358124D01*
X162835894Y-116414262D01*
X162835896Y-116414263D01*
X162909982Y-116428999D01*
X163848000Y-116428999D01*
X163848000Y-115547000D01*
X164102000Y-115547000D01*
X164102000Y-116428999D01*
X165040016Y-116428999D01*
X165040017Y-116428998D01*
X165114105Y-116414262D01*
X165198124Y-116358123D01*
X165254262Y-116274105D01*
X165254263Y-116274103D01*
X165269000Y-116200017D01*
X165269000Y-115547000D01*
X164102000Y-115547000D01*
X163848000Y-115547000D01*
X162681001Y-115547000D01*
X142119000Y-115547000D01*
X140952000Y-115547000D01*
X140698000Y-115547000D01*
X139531001Y-115547000D01*
X132580500Y-115547000D01*
X132580500Y-115293000D01*
X139531000Y-115293000D01*
X140698000Y-115293000D01*
X140698000Y-114411000D01*
X140952000Y-114411000D01*
X140952000Y-115293000D01*
X142118999Y-115293000D01*
X162681000Y-115293000D01*
X163848000Y-115293000D01*
X163848000Y-114411000D01*
X164102000Y-114411000D01*
X164102000Y-115293000D01*
X165268999Y-115293000D01*
X165268999Y-114639984D01*
X165268998Y-114639982D01*
X165254262Y-114565894D01*
X165198123Y-114481875D01*
X165114105Y-114425737D01*
X165114103Y-114425736D01*
X165040018Y-114411000D01*
X164102000Y-114411000D01*
X163848000Y-114411000D01*
X162909984Y-114411000D01*
X162909982Y-114411001D01*
X162835894Y-114425737D01*
X162751875Y-114481876D01*
X162695737Y-114565894D01*
X162695736Y-114565896D01*
X162681000Y-114639982D01*
X162681000Y-115293000D01*
X142118999Y-115293000D01*
X142118999Y-114639984D01*
X142118998Y-114639982D01*
X142104262Y-114565894D01*
X142048123Y-114481875D01*
X141964105Y-114425737D01*
X141964103Y-114425736D01*
X141890018Y-114411000D01*
X140952000Y-114411000D01*
X140698000Y-114411000D01*
X139759984Y-114411000D01*
X139759982Y-114411001D01*
X139685894Y-114425737D01*
X139601875Y-114481876D01*
X139545737Y-114565894D01*
X139545736Y-114565896D01*
X139531000Y-114639982D01*
X139531000Y-115293000D01*
X132580500Y-115293000D01*
X132580500Y-113007000D01*
X139531001Y-113007000D01*
X139531001Y-113660017D01*
X139545737Y-113734105D01*
X139601876Y-113818124D01*
X139685894Y-113874262D01*
X139685896Y-113874263D01*
X139759982Y-113888999D01*
X140698000Y-113888999D01*
X140698000Y-113007000D01*
X140952000Y-113007000D01*
X140952000Y-113888999D01*
X141890016Y-113888999D01*
X141890017Y-113888998D01*
X141964105Y-113874262D01*
X142048124Y-113818123D01*
X142104262Y-113734105D01*
X142104263Y-113734103D01*
X142119000Y-113660017D01*
X142119000Y-113650055D01*
X162782100Y-113650055D01*
X162782101Y-113650057D01*
X162790972Y-113694659D01*
X162824764Y-113745232D01*
X162824765Y-113745232D01*
X162824766Y-113745234D01*
X162875342Y-113779028D01*
X162919943Y-113787900D01*
X165030056Y-113787899D01*
X165074658Y-113779028D01*
X165125234Y-113745234D01*
X165159028Y-113694658D01*
X165167900Y-113650057D01*
X165167899Y-112109944D01*
X165159028Y-112065342D01*
X165125234Y-112014766D01*
X165074658Y-111980972D01*
X165074656Y-111980971D01*
X165030057Y-111972100D01*
X162919944Y-111972100D01*
X162919942Y-111972101D01*
X162875340Y-111980972D01*
X162824767Y-112014764D01*
X162790972Y-112065342D01*
X162790971Y-112065343D01*
X162782100Y-112109942D01*
X162782100Y-113650055D01*
X142119000Y-113650055D01*
X142119000Y-113007000D01*
X140952000Y-113007000D01*
X140698000Y-113007000D01*
X139531001Y-113007000D01*
X132580500Y-113007000D01*
X132580500Y-112753000D01*
X139531000Y-112753000D01*
X140698000Y-112753000D01*
X140698000Y-111871000D01*
X140952000Y-111871000D01*
X140952000Y-112753000D01*
X142118999Y-112753000D01*
X142118999Y-112099984D01*
X142118998Y-112099982D01*
X142104262Y-112025894D01*
X142048123Y-111941875D01*
X141964105Y-111885737D01*
X141964103Y-111885736D01*
X141890018Y-111871000D01*
X140952000Y-111871000D01*
X140698000Y-111871000D01*
X139759984Y-111871000D01*
X139759982Y-111871001D01*
X139685894Y-111885737D01*
X139601875Y-111941876D01*
X139545737Y-112025894D01*
X139545736Y-112025896D01*
X139531000Y-112099982D01*
X139531000Y-112753000D01*
X132580500Y-112753000D01*
X132580500Y-110467000D01*
X139531001Y-110467000D01*
X139531001Y-111120017D01*
X139545737Y-111194105D01*
X139601876Y-111278124D01*
X139685894Y-111334262D01*
X139685896Y-111334263D01*
X139759982Y-111348999D01*
X140698000Y-111348999D01*
X140698000Y-110467000D01*
X140952000Y-110467000D01*
X140952000Y-111348999D01*
X141890016Y-111348999D01*
X141890017Y-111348998D01*
X141964105Y-111334262D01*
X142048124Y-111278123D01*
X142104262Y-111194105D01*
X142104263Y-111194103D01*
X142119000Y-111120017D01*
X142119000Y-110467000D01*
X162681001Y-110467000D01*
X162681001Y-111120017D01*
X162695737Y-111194105D01*
X162751876Y-111278124D01*
X162835894Y-111334262D01*
X162835896Y-111334263D01*
X162909982Y-111348999D01*
X163848000Y-111348999D01*
X163848000Y-110467000D01*
X164102000Y-110467000D01*
X164102000Y-111348999D01*
X165040016Y-111348999D01*
X165040017Y-111348998D01*
X165114105Y-111334262D01*
X165198124Y-111278123D01*
X165254262Y-111194105D01*
X165254263Y-111194103D01*
X165269000Y-111120017D01*
X165269000Y-110467000D01*
X164102000Y-110467000D01*
X163848000Y-110467000D01*
X162681001Y-110467000D01*
X142119000Y-110467000D01*
X140952000Y-110467000D01*
X140698000Y-110467000D01*
X139531001Y-110467000D01*
X132580500Y-110467000D01*
X132580500Y-110213000D01*
X139531000Y-110213000D01*
X140698000Y-110213000D01*
X140698000Y-109331000D01*
X140952000Y-109331000D01*
X140952000Y-110213000D01*
X142118999Y-110213000D01*
X162681000Y-110213000D01*
X163848000Y-110213000D01*
X163848000Y-109331000D01*
X164102000Y-109331000D01*
X164102000Y-110213000D01*
X165268999Y-110213000D01*
X165268999Y-109559984D01*
X165268998Y-109559982D01*
X165254262Y-109485894D01*
X165198123Y-109401875D01*
X165114105Y-109345737D01*
X165114103Y-109345736D01*
X165040018Y-109331000D01*
X164102000Y-109331000D01*
X163848000Y-109331000D01*
X162909984Y-109331000D01*
X162909982Y-109331001D01*
X162835894Y-109345737D01*
X162751875Y-109401876D01*
X162695737Y-109485894D01*
X162695736Y-109485896D01*
X162681000Y-109559982D01*
X162681000Y-110213000D01*
X142118999Y-110213000D01*
X142118999Y-109559984D01*
X142118998Y-109559982D01*
X142104262Y-109485894D01*
X142048123Y-109401875D01*
X141964105Y-109345737D01*
X141964103Y-109345736D01*
X141890018Y-109331000D01*
X140952000Y-109331000D01*
X140698000Y-109331000D01*
X139759984Y-109331000D01*
X139759982Y-109331001D01*
X139685894Y-109345737D01*
X139601875Y-109401876D01*
X139545737Y-109485894D01*
X139545736Y-109485896D01*
X139531000Y-109559982D01*
X139531000Y-110213000D01*
X132580500Y-110213000D01*
X132580500Y-102867000D01*
X139531001Y-102867000D01*
X139531001Y-103520017D01*
X139545737Y-103594105D01*
X139601876Y-103678124D01*
X139685894Y-103734262D01*
X139685896Y-103734263D01*
X139759982Y-103748999D01*
X140698000Y-103748999D01*
X140698000Y-102867000D01*
X140952000Y-102867000D01*
X140952000Y-103748999D01*
X141890016Y-103748999D01*
X141890017Y-103748998D01*
X141964105Y-103734262D01*
X142048124Y-103678123D01*
X142104262Y-103594105D01*
X142104263Y-103594103D01*
X142119000Y-103520017D01*
X142119000Y-102867000D01*
X140952000Y-102867000D01*
X140698000Y-102867000D01*
X139531001Y-102867000D01*
X132580500Y-102867000D01*
X132580500Y-102613000D01*
X139531000Y-102613000D01*
X140698000Y-102613000D01*
X140698000Y-101731000D01*
X140952000Y-101731000D01*
X140952000Y-102613000D01*
X142118999Y-102613000D01*
X142118999Y-101959984D01*
X142118998Y-101959982D01*
X142104262Y-101885894D01*
X142048123Y-101801875D01*
X141964105Y-101745737D01*
X141964103Y-101745736D01*
X141890018Y-101731000D01*
X140952000Y-101731000D01*
X140698000Y-101731000D01*
X139759984Y-101731000D01*
X139759982Y-101731001D01*
X139685894Y-101745737D01*
X139601875Y-101801876D01*
X139545737Y-101885894D01*
X139545736Y-101885896D01*
X139531000Y-101959982D01*
X139531000Y-102613000D01*
X132580500Y-102613000D01*
X132580500Y-100327000D01*
X139531001Y-100327000D01*
X139531001Y-100980017D01*
X139545737Y-101054105D01*
X139601876Y-101138124D01*
X139685894Y-101194262D01*
X139685896Y-101194263D01*
X139759982Y-101208999D01*
X140698000Y-101208999D01*
X140698000Y-100327000D01*
X140952000Y-100327000D01*
X140952000Y-101208999D01*
X141890016Y-101208999D01*
X141890017Y-101208998D01*
X141964105Y-101194262D01*
X142048124Y-101138123D01*
X142104262Y-101054105D01*
X142104263Y-101054103D01*
X142119000Y-100980017D01*
X142119000Y-100327000D01*
X140952000Y-100327000D01*
X140698000Y-100327000D01*
X139531001Y-100327000D01*
X132580500Y-100327000D01*
X132580500Y-100073000D01*
X139531000Y-100073000D01*
X140698000Y-100073000D01*
X140698000Y-99191000D01*
X139759984Y-99191000D01*
X139759982Y-99191001D01*
X139685894Y-99205737D01*
X139601875Y-99261876D01*
X139545737Y-99345894D01*
X139545736Y-99345896D01*
X139531000Y-99419982D01*
X139531000Y-100073000D01*
X132580500Y-100073000D01*
X132580500Y-98430055D01*
X139632100Y-98430055D01*
X139632101Y-98430057D01*
X139640972Y-98474659D01*
X139674764Y-98525232D01*
X139674765Y-98525232D01*
X139674766Y-98525234D01*
X139725342Y-98559028D01*
X139769943Y-98567900D01*
X141377755Y-98567899D01*
X141426093Y-98585492D01*
X141430929Y-98589925D01*
X141903630Y-99062626D01*
X141925370Y-99109246D01*
X141912056Y-99158933D01*
X141869919Y-99188438D01*
X141850456Y-99191000D01*
X140952000Y-99191000D01*
X140952000Y-100073000D01*
X142118999Y-100073000D01*
X142118999Y-99459543D01*
X142136592Y-99411205D01*
X142181141Y-99385485D01*
X142231799Y-99394418D01*
X142247373Y-99406369D01*
X142565359Y-99724355D01*
X142568069Y-99727210D01*
X142595330Y-99757486D01*
X142617936Y-99767551D01*
X142628304Y-99773181D01*
X142649060Y-99786660D01*
X142649061Y-99786660D01*
X142649063Y-99786661D01*
X142657589Y-99788011D01*
X142676408Y-99793585D01*
X142684303Y-99797100D01*
X142709059Y-99797100D01*
X142720821Y-99798025D01*
X142745258Y-99801896D01*
X142753596Y-99799662D01*
X142773057Y-99797100D01*
X145785392Y-99797100D01*
X145833730Y-99814693D01*
X145859450Y-99859242D01*
X145850517Y-99909900D01*
X145826049Y-99935561D01*
X145781678Y-99964076D01*
X145750365Y-99984200D01*
X145665080Y-100082623D01*
X145665078Y-100082626D01*
X145610977Y-100201088D01*
X145592443Y-100330000D01*
X145610977Y-100458911D01*
X145665078Y-100577373D01*
X145665080Y-100577376D01*
X145750366Y-100675801D01*
X145859926Y-100746209D01*
X145984883Y-100782900D01*
X146115115Y-100782900D01*
X146115117Y-100782900D01*
X146121610Y-100780993D01*
X146172944Y-100784251D01*
X146195975Y-100799971D01*
X147152359Y-101756355D01*
X147155069Y-101759210D01*
X147182330Y-101789486D01*
X147204936Y-101799551D01*
X147215304Y-101805181D01*
X147234997Y-101817969D01*
X147236063Y-101818661D01*
X147244591Y-101820011D01*
X147263412Y-101825587D01*
X147271302Y-101829100D01*
X147271303Y-101829100D01*
X147296053Y-101829100D01*
X147307817Y-101830025D01*
X147332258Y-101833897D01*
X147339278Y-101832015D01*
X147340600Y-101831662D01*
X147360061Y-101829100D01*
X159893956Y-101829100D01*
X159942294Y-101846693D01*
X159947130Y-101851126D01*
X160822613Y-102726609D01*
X160844353Y-102773229D01*
X160843874Y-102790483D01*
X160832443Y-102869999D01*
X160850977Y-102998911D01*
X160905078Y-103117373D01*
X160905080Y-103117376D01*
X160990366Y-103215801D01*
X161099926Y-103286209D01*
X161224883Y-103322900D01*
X161355117Y-103322900D01*
X161480073Y-103286209D01*
X161480073Y-103286208D01*
X161480076Y-103286208D01*
X161589636Y-103215799D01*
X161674921Y-103117374D01*
X161722560Y-103013061D01*
X161758644Y-102976400D01*
X161790964Y-102969100D01*
X162706901Y-102969100D01*
X162755239Y-102986693D01*
X162780959Y-103031242D01*
X162782101Y-103044300D01*
X162782101Y-103510057D01*
X162790972Y-103554659D01*
X162824764Y-103605232D01*
X162824765Y-103605232D01*
X162824766Y-103605234D01*
X162875342Y-103639028D01*
X162919943Y-103647900D01*
X165030056Y-103647899D01*
X165074658Y-103639028D01*
X165125234Y-103605234D01*
X165159028Y-103554658D01*
X165167900Y-103510057D01*
X165167899Y-101969944D01*
X165159028Y-101925342D01*
X165125234Y-101874766D01*
X165074658Y-101840972D01*
X165074656Y-101840971D01*
X165030057Y-101832100D01*
X162919944Y-101832100D01*
X162919942Y-101832101D01*
X162875340Y-101840972D01*
X162824767Y-101874764D01*
X162790972Y-101925342D01*
X162790971Y-101925343D01*
X162782100Y-101969942D01*
X162782100Y-102435700D01*
X162764507Y-102484038D01*
X162719958Y-102509758D01*
X162706900Y-102510900D01*
X161697520Y-102510900D01*
X161690088Y-102510532D01*
X161682295Y-102509758D01*
X161656631Y-102507209D01*
X161656630Y-102507209D01*
X161629061Y-102516340D01*
X161577643Y-102514836D01*
X161564763Y-102508216D01*
X161480073Y-102453790D01*
X161355117Y-102417100D01*
X161224883Y-102417100D01*
X161218380Y-102419009D01*
X161167044Y-102415744D01*
X161144024Y-102400028D01*
X160669339Y-101925343D01*
X160187630Y-101443633D01*
X160184920Y-101440778D01*
X160157669Y-101410513D01*
X160135058Y-101400445D01*
X160124692Y-101394817D01*
X160103936Y-101381339D01*
X160103933Y-101381338D01*
X160095401Y-101379986D01*
X160076587Y-101374412D01*
X160068698Y-101370900D01*
X160068697Y-101370900D01*
X160043946Y-101370900D01*
X160032183Y-101369974D01*
X160016889Y-101367551D01*
X160007743Y-101366103D01*
X160007741Y-101366103D01*
X159999400Y-101368338D01*
X159979939Y-101370900D01*
X147446044Y-101370900D01*
X147397706Y-101353307D01*
X147392870Y-101348874D01*
X146517385Y-100473388D01*
X146495645Y-100426768D01*
X146496123Y-100409520D01*
X146507557Y-100330000D01*
X146489023Y-100201091D01*
X146434921Y-100082626D01*
X146434919Y-100082623D01*
X146405416Y-100048575D01*
X146349636Y-99984201D01*
X146273951Y-99935562D01*
X146242800Y-99894629D01*
X146245247Y-99843248D01*
X146280149Y-99805460D01*
X146314608Y-99797100D01*
X159330902Y-99797100D01*
X159379240Y-99814693D01*
X159387732Y-99823052D01*
X159462986Y-99909900D01*
X159466366Y-99913801D01*
X159544668Y-99964121D01*
X159575913Y-99984201D01*
X159575926Y-99984209D01*
X159700883Y-100020900D01*
X159831117Y-100020900D01*
X159956073Y-99984209D01*
X159956073Y-99984208D01*
X159956076Y-99984208D01*
X160065636Y-99913799D01*
X160150921Y-99815374D01*
X160205023Y-99696909D01*
X160223557Y-99568000D01*
X160205023Y-99439091D01*
X160200845Y-99429943D01*
X160150921Y-99320626D01*
X160150919Y-99320623D01*
X160065633Y-99222198D01*
X159956073Y-99151790D01*
X159831117Y-99115100D01*
X159700883Y-99115100D01*
X159575926Y-99151790D01*
X159466366Y-99222198D01*
X159387735Y-99312945D01*
X159342784Y-99337955D01*
X159330902Y-99338900D01*
X142859045Y-99338900D01*
X142810707Y-99321307D01*
X142805871Y-99316874D01*
X142029922Y-98540925D01*
X142008182Y-98494305D01*
X142009340Y-98473086D01*
X142017900Y-98430057D01*
X142017899Y-97028000D01*
X144576443Y-97028000D01*
X144594977Y-97156911D01*
X144649078Y-97275373D01*
X144649080Y-97275376D01*
X144734366Y-97373801D01*
X144843926Y-97444209D01*
X144968883Y-97480900D01*
X145099117Y-97480900D01*
X145224073Y-97444209D01*
X145224073Y-97444208D01*
X145224076Y-97444208D01*
X145333636Y-97373799D01*
X145412265Y-97283054D01*
X145457216Y-97258045D01*
X145469098Y-97257100D01*
X153464902Y-97257100D01*
X153513240Y-97274693D01*
X153521735Y-97283055D01*
X153600366Y-97373801D01*
X153709926Y-97444209D01*
X153834883Y-97480900D01*
X153965117Y-97480900D01*
X154090073Y-97444209D01*
X154090073Y-97444208D01*
X154090076Y-97444208D01*
X154199636Y-97373799D01*
X154284921Y-97275374D01*
X154339023Y-97156909D01*
X154357557Y-97028000D01*
X159308443Y-97028000D01*
X159326977Y-97156911D01*
X159381078Y-97275373D01*
X159381080Y-97275376D01*
X159466366Y-97373801D01*
X159575926Y-97444209D01*
X159700883Y-97480900D01*
X159831115Y-97480900D01*
X159831117Y-97480900D01*
X159837610Y-97478993D01*
X159888944Y-97482251D01*
X159911975Y-97497971D01*
X162760074Y-100346070D01*
X162781814Y-100392690D01*
X162782100Y-100399244D01*
X162782100Y-100970055D01*
X162782101Y-100970057D01*
X162790972Y-101014659D01*
X162824764Y-101065232D01*
X162824765Y-101065232D01*
X162824766Y-101065234D01*
X162875342Y-101099028D01*
X162919943Y-101107900D01*
X165030056Y-101107899D01*
X165074658Y-101099028D01*
X165125234Y-101065234D01*
X165159028Y-101014658D01*
X165167900Y-100970057D01*
X165167899Y-99429944D01*
X165159028Y-99385342D01*
X165127996Y-99338900D01*
X165125235Y-99334767D01*
X165105091Y-99321307D01*
X165074658Y-99300972D01*
X165074656Y-99300971D01*
X165030057Y-99292100D01*
X162919944Y-99292100D01*
X162919942Y-99292101D01*
X162875340Y-99300972D01*
X162824767Y-99334764D01*
X162790972Y-99385342D01*
X162790971Y-99385343D01*
X162782100Y-99429942D01*
X162782100Y-99538555D01*
X162764507Y-99586893D01*
X162719958Y-99612613D01*
X162669300Y-99603680D01*
X162653726Y-99591729D01*
X160233385Y-97171388D01*
X160211645Y-97124768D01*
X160212123Y-97107520D01*
X160223557Y-97028000D01*
X160205023Y-96899091D01*
X160200845Y-96889943D01*
X160150921Y-96780626D01*
X160150919Y-96780623D01*
X160065633Y-96682198D01*
X159956073Y-96611790D01*
X159831117Y-96575100D01*
X159700883Y-96575100D01*
X159575926Y-96611790D01*
X159466366Y-96682198D01*
X159381080Y-96780623D01*
X159381078Y-96780626D01*
X159326977Y-96899088D01*
X159308443Y-97028000D01*
X154357557Y-97028000D01*
X154339023Y-96899091D01*
X154334845Y-96889943D01*
X154284921Y-96780626D01*
X154284919Y-96780623D01*
X154199633Y-96682198D01*
X154090073Y-96611790D01*
X153965117Y-96575100D01*
X153834883Y-96575100D01*
X153709926Y-96611790D01*
X153600366Y-96682198D01*
X153521735Y-96772945D01*
X153476784Y-96797955D01*
X153464902Y-96798900D01*
X145469098Y-96798900D01*
X145420760Y-96781307D01*
X145412265Y-96772945D01*
X145401890Y-96760972D01*
X145333636Y-96682201D01*
X145333635Y-96682200D01*
X145333633Y-96682198D01*
X145224073Y-96611790D01*
X145099117Y-96575100D01*
X144968883Y-96575100D01*
X144843926Y-96611790D01*
X144734366Y-96682198D01*
X144649080Y-96780623D01*
X144649078Y-96780626D01*
X144594977Y-96899088D01*
X144576443Y-97028000D01*
X142017899Y-97028000D01*
X142017899Y-96889944D01*
X142009028Y-96845342D01*
X141977996Y-96798900D01*
X141975235Y-96794767D01*
X141955091Y-96781307D01*
X141924658Y-96760972D01*
X141924656Y-96760971D01*
X141880057Y-96752100D01*
X139769944Y-96752100D01*
X139769942Y-96752101D01*
X139725340Y-96760972D01*
X139674767Y-96794764D01*
X139640972Y-96845342D01*
X139640971Y-96845343D01*
X139632100Y-96889942D01*
X139632100Y-98430055D01*
X132580500Y-98430055D01*
X132580500Y-95890055D01*
X139632100Y-95890055D01*
X139632101Y-95890057D01*
X139640972Y-95934659D01*
X139674764Y-95985232D01*
X139674765Y-95985232D01*
X139674766Y-95985234D01*
X139725342Y-96019028D01*
X139769943Y-96027900D01*
X141880056Y-96027899D01*
X141924658Y-96019028D01*
X141975234Y-95985234D01*
X142009028Y-95934658D01*
X142017900Y-95890057D01*
X142017899Y-94488000D01*
X144576443Y-94488000D01*
X144594977Y-94616911D01*
X144649078Y-94735373D01*
X144649080Y-94735376D01*
X144734366Y-94833801D01*
X144843926Y-94904209D01*
X144968883Y-94940900D01*
X145099117Y-94940900D01*
X145224073Y-94904209D01*
X145224073Y-94904208D01*
X145224076Y-94904208D01*
X145333636Y-94833799D01*
X145412265Y-94743054D01*
X145457216Y-94718045D01*
X145469098Y-94717100D01*
X152472902Y-94717100D01*
X152521240Y-94734693D01*
X152529735Y-94743055D01*
X152608366Y-94833801D01*
X152717926Y-94904209D01*
X152842883Y-94940900D01*
X152973117Y-94940900D01*
X153098073Y-94904209D01*
X153098073Y-94904208D01*
X153098076Y-94904208D01*
X153207636Y-94833799D01*
X153292921Y-94735374D01*
X153347023Y-94616909D01*
X153365557Y-94488000D01*
X153347023Y-94359091D01*
X153342845Y-94349943D01*
X153292921Y-94240626D01*
X153292919Y-94240623D01*
X153207633Y-94142198D01*
X153098073Y-94071790D01*
X152973117Y-94035100D01*
X152842883Y-94035100D01*
X152717926Y-94071790D01*
X152608366Y-94142198D01*
X152529735Y-94232945D01*
X152484784Y-94257955D01*
X152472902Y-94258900D01*
X145469098Y-94258900D01*
X145420760Y-94241307D01*
X145412265Y-94232945D01*
X145401890Y-94220972D01*
X145333636Y-94142201D01*
X145333635Y-94142200D01*
X145333633Y-94142198D01*
X145224073Y-94071790D01*
X145099117Y-94035100D01*
X144968883Y-94035100D01*
X144843926Y-94071790D01*
X144734366Y-94142198D01*
X144649080Y-94240623D01*
X144649078Y-94240626D01*
X144594977Y-94359088D01*
X144576443Y-94488000D01*
X142017899Y-94488000D01*
X142017899Y-94349944D01*
X142009028Y-94305342D01*
X141977996Y-94258900D01*
X141975235Y-94254767D01*
X141955091Y-94241307D01*
X141924658Y-94220972D01*
X141924656Y-94220971D01*
X141880057Y-94212100D01*
X141129300Y-94212100D01*
X141080962Y-94194507D01*
X141055242Y-94149958D01*
X141054100Y-94136900D01*
X141054100Y-93563099D01*
X141071693Y-93514761D01*
X141116242Y-93489041D01*
X141129300Y-93487899D01*
X141880056Y-93487899D01*
X141924658Y-93479028D01*
X141975234Y-93445234D01*
X142009028Y-93394658D01*
X142017900Y-93350057D01*
X142017899Y-91809944D01*
X142009028Y-91765342D01*
X141990853Y-91738142D01*
X141975235Y-91714767D01*
X141975231Y-91714764D01*
X141924658Y-91680972D01*
X141924656Y-91680971D01*
X141880057Y-91672100D01*
X139769944Y-91672100D01*
X139769942Y-91672101D01*
X139725340Y-91680972D01*
X139674767Y-91714764D01*
X139640972Y-91765342D01*
X139640971Y-91765343D01*
X139632100Y-91809942D01*
X139632100Y-93350055D01*
X139632101Y-93350057D01*
X139640972Y-93394659D01*
X139674764Y-93445232D01*
X139674765Y-93445232D01*
X139674766Y-93445234D01*
X139725342Y-93479028D01*
X139769943Y-93487900D01*
X140520700Y-93487899D01*
X140569038Y-93505492D01*
X140594758Y-93550041D01*
X140595900Y-93563099D01*
X140595900Y-94136900D01*
X140578307Y-94185238D01*
X140533758Y-94210958D01*
X140520700Y-94212100D01*
X139769944Y-94212100D01*
X139769942Y-94212101D01*
X139725340Y-94220972D01*
X139674767Y-94254764D01*
X139640972Y-94305342D01*
X139640971Y-94305343D01*
X139632100Y-94349942D01*
X139632100Y-95890055D01*
X132580500Y-95890055D01*
X132580500Y-91440000D01*
X144576443Y-91440000D01*
X144594977Y-91568911D01*
X144649078Y-91687373D01*
X144649080Y-91687376D01*
X144734366Y-91785801D01*
X144843926Y-91856209D01*
X144968883Y-91892900D01*
X145099117Y-91892900D01*
X145224073Y-91856209D01*
X145224073Y-91856208D01*
X145224076Y-91856208D01*
X145333636Y-91785799D01*
X145413180Y-91694000D01*
X146948784Y-91694000D01*
X146967996Y-91876795D01*
X147024797Y-92051611D01*
X147116698Y-92210790D01*
X147239691Y-92347386D01*
X147239696Y-92347390D01*
X147388388Y-92455421D01*
X147388391Y-92455422D01*
X147388392Y-92455423D01*
X147556307Y-92530184D01*
X147736097Y-92568400D01*
X147736099Y-92568400D01*
X147919901Y-92568400D01*
X147919903Y-92568400D01*
X148099693Y-92530184D01*
X148267608Y-92455423D01*
X148416310Y-92347385D01*
X148539301Y-92210790D01*
X148631204Y-92051609D01*
X148688003Y-91876799D01*
X148707216Y-91694000D01*
X148688003Y-91511201D01*
X148631204Y-91336391D01*
X148588043Y-91261634D01*
X148539301Y-91177209D01*
X148416308Y-91040613D01*
X148416303Y-91040609D01*
X148267611Y-90932578D01*
X148099694Y-90857816D01*
X148039763Y-90845077D01*
X147919903Y-90819600D01*
X147736097Y-90819600D01*
X147646202Y-90838708D01*
X147556305Y-90857816D01*
X147388388Y-90932578D01*
X147239696Y-91040609D01*
X147239691Y-91040613D01*
X147116698Y-91177209D01*
X147024797Y-91336388D01*
X146967996Y-91511204D01*
X146948784Y-91694000D01*
X145413180Y-91694000D01*
X145418921Y-91687374D01*
X145473023Y-91568909D01*
X145491557Y-91440000D01*
X145480124Y-91360482D01*
X145490660Y-91310136D01*
X145501381Y-91296613D01*
X146376870Y-90421126D01*
X146423490Y-90399386D01*
X146430044Y-90399100D01*
X149733956Y-90399100D01*
X149782294Y-90416693D01*
X149787130Y-90421126D01*
X150962359Y-91596355D01*
X150965069Y-91599210D01*
X150992330Y-91629486D01*
X151014936Y-91639551D01*
X151025304Y-91645181D01*
X151039666Y-91654507D01*
X151046063Y-91658661D01*
X151054591Y-91660011D01*
X151073412Y-91665587D01*
X151081302Y-91669100D01*
X151081303Y-91669100D01*
X151106053Y-91669100D01*
X151117817Y-91670025D01*
X151142258Y-91673897D01*
X151149278Y-91672015D01*
X151150600Y-91671662D01*
X151170061Y-91669100D01*
X159278462Y-91669100D01*
X159326800Y-91686693D01*
X159352520Y-91731242D01*
X159346866Y-91775540D01*
X159326977Y-91819087D01*
X159308443Y-91948000D01*
X159326977Y-92076911D01*
X159381078Y-92195373D01*
X159381080Y-92195376D01*
X159466366Y-92293801D01*
X159502355Y-92316929D01*
X159533508Y-92357863D01*
X159536900Y-92380192D01*
X159536900Y-94480039D01*
X159536797Y-94483975D01*
X159534665Y-94524638D01*
X159543533Y-94547740D01*
X159546883Y-94559050D01*
X159552030Y-94583263D01*
X159552031Y-94583265D01*
X159557108Y-94590253D01*
X159566473Y-94607501D01*
X159569569Y-94615566D01*
X159587064Y-94633061D01*
X159594726Y-94642031D01*
X159609276Y-94662056D01*
X159609278Y-94662058D01*
X159616759Y-94666377D01*
X159632330Y-94678326D01*
X162760074Y-97806070D01*
X162781814Y-97852690D01*
X162782100Y-97859244D01*
X162782100Y-98430055D01*
X162782101Y-98430057D01*
X162790972Y-98474659D01*
X162824764Y-98525232D01*
X162824765Y-98525232D01*
X162824766Y-98525234D01*
X162875342Y-98559028D01*
X162919943Y-98567900D01*
X165030056Y-98567899D01*
X165074658Y-98559028D01*
X165125234Y-98525234D01*
X165159028Y-98474658D01*
X165167900Y-98430057D01*
X165167899Y-96889944D01*
X165159028Y-96845342D01*
X165127996Y-96798900D01*
X165125235Y-96794767D01*
X165105091Y-96781307D01*
X165074658Y-96760972D01*
X165074656Y-96760971D01*
X165030057Y-96752100D01*
X162919944Y-96752100D01*
X162919942Y-96752101D01*
X162875340Y-96760972D01*
X162824767Y-96794764D01*
X162790972Y-96845342D01*
X162790971Y-96845343D01*
X162782100Y-96889942D01*
X162782100Y-96998555D01*
X162764507Y-97046893D01*
X162719958Y-97072613D01*
X162669300Y-97063680D01*
X162653726Y-97051729D01*
X160089997Y-94488000D01*
X161594443Y-94488000D01*
X161612977Y-94616911D01*
X161667078Y-94735373D01*
X161667080Y-94735376D01*
X161752366Y-94833801D01*
X161861926Y-94904209D01*
X161986883Y-94940900D01*
X162117115Y-94940900D01*
X162117117Y-94940900D01*
X162242076Y-94904208D01*
X162286146Y-94875885D01*
X162336320Y-94864552D01*
X162379976Y-94885973D01*
X162760074Y-95266071D01*
X162781814Y-95312691D01*
X162782100Y-95319245D01*
X162782100Y-95890055D01*
X162782101Y-95890057D01*
X162790972Y-95934659D01*
X162824764Y-95985232D01*
X162824765Y-95985232D01*
X162824766Y-95985234D01*
X162875342Y-96019028D01*
X162919943Y-96027900D01*
X165030056Y-96027899D01*
X165074658Y-96019028D01*
X165125234Y-95985234D01*
X165159028Y-95934658D01*
X165167900Y-95890057D01*
X165167899Y-94349944D01*
X165159028Y-94305342D01*
X165127996Y-94258900D01*
X165125235Y-94254767D01*
X165105091Y-94241307D01*
X165074658Y-94220972D01*
X165074656Y-94220971D01*
X165030057Y-94212100D01*
X162919944Y-94212100D01*
X162919942Y-94212101D01*
X162875340Y-94220972D01*
X162824767Y-94254764D01*
X162790972Y-94305342D01*
X162790971Y-94305343D01*
X162782100Y-94349942D01*
X162782100Y-94458555D01*
X162764507Y-94506893D01*
X162719958Y-94532613D01*
X162669300Y-94523680D01*
X162653726Y-94511729D01*
X162492156Y-94350159D01*
X162476926Y-94328224D01*
X162436922Y-94240628D01*
X162436919Y-94240623D01*
X162351633Y-94142198D01*
X162242073Y-94071790D01*
X162117117Y-94035100D01*
X161986883Y-94035100D01*
X161861926Y-94071790D01*
X161752366Y-94142198D01*
X161667080Y-94240623D01*
X161667078Y-94240626D01*
X161612977Y-94359088D01*
X161594443Y-94488000D01*
X160089997Y-94488000D01*
X160017126Y-94415129D01*
X159995386Y-94368509D01*
X159995100Y-94361955D01*
X159995100Y-92380192D01*
X160012693Y-92331854D01*
X160029645Y-92316929D01*
X160065633Y-92293801D01*
X160065633Y-92293800D01*
X160065636Y-92293799D01*
X160150921Y-92195374D01*
X160205023Y-92076909D01*
X160223557Y-91948000D01*
X160205023Y-91819091D01*
X160205021Y-91819087D01*
X160175726Y-91754940D01*
X160171649Y-91703662D01*
X160201487Y-91661760D01*
X160244130Y-91648500D01*
X162688356Y-91648500D01*
X162736694Y-91666093D01*
X162741530Y-91670526D01*
X162770077Y-91699073D01*
X162791817Y-91745693D01*
X162790658Y-91766918D01*
X162782100Y-91809941D01*
X162782100Y-93350055D01*
X162782101Y-93350057D01*
X162790972Y-93394659D01*
X162824764Y-93445232D01*
X162824765Y-93445232D01*
X162824766Y-93445234D01*
X162875342Y-93479028D01*
X162919943Y-93487900D01*
X165030056Y-93487899D01*
X165074658Y-93479028D01*
X165125234Y-93445234D01*
X165159028Y-93394658D01*
X165167900Y-93350057D01*
X165167899Y-91809944D01*
X165159028Y-91765342D01*
X165140853Y-91738142D01*
X165125235Y-91714767D01*
X165125231Y-91714764D01*
X165074658Y-91680972D01*
X165074656Y-91680971D01*
X165030057Y-91672100D01*
X163422245Y-91672100D01*
X163373907Y-91654507D01*
X163369071Y-91650074D01*
X162982030Y-91263033D01*
X162979320Y-91260178D01*
X162952069Y-91229913D01*
X162929458Y-91219845D01*
X162919092Y-91214217D01*
X162898336Y-91200739D01*
X162898333Y-91200738D01*
X162889801Y-91199386D01*
X162870987Y-91193812D01*
X162863098Y-91190300D01*
X162863097Y-91190300D01*
X162838346Y-91190300D01*
X162826583Y-91189374D01*
X162811289Y-91186951D01*
X162802143Y-91185503D01*
X162802141Y-91185503D01*
X162793800Y-91187738D01*
X162774339Y-91190300D01*
X159555014Y-91190300D01*
X159551079Y-91190197D01*
X159510408Y-91188065D01*
X159487300Y-91196935D01*
X159475991Y-91200284D01*
X159444051Y-91207074D01*
X159443941Y-91206557D01*
X159423513Y-91210900D01*
X151256044Y-91210900D01*
X151207706Y-91193307D01*
X151202870Y-91188874D01*
X150027630Y-90013633D01*
X150024920Y-90010778D01*
X149997669Y-89980513D01*
X149975058Y-89970445D01*
X149964692Y-89964817D01*
X149943936Y-89951339D01*
X149943933Y-89951338D01*
X149935401Y-89949986D01*
X149916587Y-89944412D01*
X149908698Y-89940900D01*
X149908697Y-89940900D01*
X149883946Y-89940900D01*
X149872183Y-89939974D01*
X149856889Y-89937551D01*
X149847743Y-89936103D01*
X149847741Y-89936103D01*
X149839400Y-89938338D01*
X149819939Y-89940900D01*
X146311960Y-89940900D01*
X146308024Y-89940797D01*
X146267361Y-89938665D01*
X146267360Y-89938665D01*
X146244252Y-89947535D01*
X146232945Y-89950884D01*
X146208735Y-89956030D01*
X146201748Y-89961107D01*
X146184502Y-89970471D01*
X146176439Y-89973566D01*
X146176434Y-89973569D01*
X146158931Y-89991071D01*
X146149965Y-89998729D01*
X146129942Y-90013277D01*
X146129940Y-90013280D01*
X146125622Y-90020759D01*
X146113673Y-90036329D01*
X145179974Y-90970027D01*
X145133354Y-90991767D01*
X145105618Y-90989008D01*
X145099123Y-90987101D01*
X145099118Y-90987100D01*
X145099117Y-90987100D01*
X144968883Y-90987100D01*
X144843926Y-91023790D01*
X144734366Y-91094198D01*
X144649080Y-91192623D01*
X144649078Y-91192626D01*
X144594977Y-91311088D01*
X144576443Y-91440000D01*
X132580500Y-91440000D01*
X132580500Y-90810055D01*
X139632100Y-90810055D01*
X139632101Y-90810057D01*
X139640972Y-90854659D01*
X139674764Y-90905232D01*
X139674765Y-90905232D01*
X139674766Y-90905234D01*
X139725342Y-90939028D01*
X139769943Y-90947900D01*
X141880056Y-90947899D01*
X141924658Y-90939028D01*
X141975234Y-90905234D01*
X142009028Y-90854658D01*
X142017900Y-90810057D01*
X142017899Y-89408000D01*
X144576443Y-89408000D01*
X144594977Y-89536911D01*
X144649078Y-89655373D01*
X144649080Y-89655376D01*
X144734366Y-89753801D01*
X144843926Y-89824209D01*
X144968883Y-89860900D01*
X145099117Y-89860900D01*
X145224073Y-89824209D01*
X145224073Y-89824208D01*
X145224076Y-89824208D01*
X145333636Y-89753799D01*
X145412265Y-89663054D01*
X145457216Y-89638045D01*
X145469098Y-89637100D01*
X162179956Y-89637100D01*
X162228294Y-89654693D01*
X162233130Y-89659126D01*
X162760074Y-90186071D01*
X162781814Y-90232691D01*
X162782100Y-90239245D01*
X162782100Y-90810055D01*
X162782101Y-90810057D01*
X162790972Y-90854659D01*
X162824764Y-90905232D01*
X162824765Y-90905232D01*
X162824766Y-90905234D01*
X162875342Y-90939028D01*
X162919943Y-90947900D01*
X165030056Y-90947899D01*
X165074658Y-90939028D01*
X165125234Y-90905234D01*
X165159028Y-90854658D01*
X165167900Y-90810057D01*
X165167899Y-89269944D01*
X165159028Y-89225342D01*
X165143977Y-89202817D01*
X165125235Y-89174767D01*
X165125231Y-89174764D01*
X165074658Y-89140972D01*
X165074656Y-89140971D01*
X165030057Y-89132100D01*
X162919944Y-89132100D01*
X162919942Y-89132101D01*
X162875340Y-89140972D01*
X162824767Y-89174764D01*
X162790972Y-89225342D01*
X162790971Y-89225343D01*
X162782100Y-89269942D01*
X162782100Y-89378555D01*
X162764507Y-89426893D01*
X162719958Y-89452613D01*
X162669300Y-89443680D01*
X162653726Y-89431729D01*
X162473630Y-89251633D01*
X162470920Y-89248778D01*
X162443669Y-89218513D01*
X162421058Y-89208445D01*
X162410692Y-89202817D01*
X162389936Y-89189339D01*
X162389933Y-89189338D01*
X162381401Y-89187986D01*
X162362587Y-89182412D01*
X162354698Y-89178900D01*
X162354697Y-89178900D01*
X162329946Y-89178900D01*
X162318183Y-89177974D01*
X162302889Y-89175551D01*
X162293743Y-89174103D01*
X162293741Y-89174103D01*
X162285400Y-89176338D01*
X162265939Y-89178900D01*
X145469098Y-89178900D01*
X145420760Y-89161307D01*
X145412265Y-89152945D01*
X145401890Y-89140972D01*
X145333636Y-89062201D01*
X145333635Y-89062200D01*
X145333633Y-89062198D01*
X145224073Y-88991790D01*
X145099117Y-88955100D01*
X144968883Y-88955100D01*
X144843926Y-88991790D01*
X144734366Y-89062198D01*
X144649080Y-89160623D01*
X144649078Y-89160626D01*
X144594977Y-89279088D01*
X144576443Y-89408000D01*
X142017899Y-89408000D01*
X142017899Y-89269944D01*
X142009028Y-89225342D01*
X141993977Y-89202817D01*
X141975235Y-89174767D01*
X141975231Y-89174764D01*
X141924658Y-89140972D01*
X141924656Y-89140971D01*
X141880057Y-89132100D01*
X141205500Y-89132100D01*
X141157162Y-89114507D01*
X141131442Y-89069958D01*
X141130300Y-89056900D01*
X141130300Y-88483099D01*
X141147893Y-88434761D01*
X141192442Y-88409041D01*
X141205500Y-88407899D01*
X141880056Y-88407899D01*
X141924658Y-88399028D01*
X141975234Y-88365234D01*
X142009028Y-88314658D01*
X142017900Y-88270057D01*
X142017899Y-86868000D01*
X144576443Y-86868000D01*
X144594977Y-86996911D01*
X144649078Y-87115373D01*
X144649080Y-87115376D01*
X144734366Y-87213801D01*
X144843926Y-87284209D01*
X144968883Y-87320900D01*
X145099117Y-87320900D01*
X145224073Y-87284209D01*
X145224073Y-87284208D01*
X145224076Y-87284208D01*
X145333636Y-87213799D01*
X145412265Y-87123054D01*
X145457216Y-87098045D01*
X145469098Y-87097100D01*
X162179956Y-87097100D01*
X162228294Y-87114693D01*
X162233130Y-87119126D01*
X162760074Y-87646071D01*
X162781814Y-87692691D01*
X162782100Y-87699245D01*
X162782100Y-88270055D01*
X162782101Y-88270057D01*
X162790972Y-88314659D01*
X162824764Y-88365232D01*
X162824765Y-88365232D01*
X162824766Y-88365234D01*
X162875342Y-88399028D01*
X162919943Y-88407900D01*
X165030056Y-88407899D01*
X165074658Y-88399028D01*
X165125234Y-88365234D01*
X165159028Y-88314658D01*
X165167900Y-88270057D01*
X165167899Y-86729944D01*
X165159028Y-86685342D01*
X165155519Y-86680091D01*
X165125235Y-86634767D01*
X165125231Y-86634764D01*
X165074658Y-86600972D01*
X165074656Y-86600971D01*
X165030057Y-86592100D01*
X162919944Y-86592100D01*
X162919942Y-86592101D01*
X162875340Y-86600972D01*
X162824767Y-86634764D01*
X162790972Y-86685342D01*
X162790971Y-86685343D01*
X162782100Y-86729942D01*
X162782100Y-86838555D01*
X162764507Y-86886893D01*
X162719958Y-86912613D01*
X162669300Y-86903680D01*
X162653726Y-86891729D01*
X162473630Y-86711633D01*
X162470920Y-86708778D01*
X162443669Y-86678513D01*
X162421058Y-86668445D01*
X162410692Y-86662817D01*
X162389936Y-86649339D01*
X162389933Y-86649338D01*
X162381401Y-86647986D01*
X162362587Y-86642412D01*
X162354698Y-86638900D01*
X162354697Y-86638900D01*
X162329946Y-86638900D01*
X162318183Y-86637974D01*
X162302889Y-86635551D01*
X162293743Y-86634103D01*
X162293741Y-86634103D01*
X162285400Y-86636338D01*
X162265939Y-86638900D01*
X145469098Y-86638900D01*
X145420760Y-86621307D01*
X145412265Y-86612945D01*
X145401890Y-86600972D01*
X145333636Y-86522201D01*
X145333635Y-86522200D01*
X145333633Y-86522198D01*
X145224073Y-86451790D01*
X145099117Y-86415100D01*
X144968883Y-86415100D01*
X144843926Y-86451790D01*
X144734366Y-86522198D01*
X144649080Y-86620623D01*
X144649078Y-86620626D01*
X144594977Y-86739088D01*
X144576443Y-86868000D01*
X142017899Y-86868000D01*
X142017899Y-86729944D01*
X142009028Y-86685342D01*
X142005519Y-86680091D01*
X141975235Y-86634767D01*
X141975231Y-86634764D01*
X141924658Y-86600972D01*
X141924656Y-86600971D01*
X141880057Y-86592100D01*
X139769944Y-86592100D01*
X139769942Y-86592101D01*
X139725340Y-86600972D01*
X139674767Y-86634764D01*
X139640972Y-86685342D01*
X139640971Y-86685343D01*
X139632100Y-86729942D01*
X139632100Y-88270055D01*
X139632101Y-88270057D01*
X139640972Y-88314659D01*
X139674764Y-88365232D01*
X139674765Y-88365232D01*
X139674766Y-88365234D01*
X139725342Y-88399028D01*
X139769943Y-88407900D01*
X140444500Y-88407899D01*
X140492838Y-88425492D01*
X140518558Y-88470041D01*
X140519700Y-88483099D01*
X140519700Y-89056900D01*
X140502107Y-89105238D01*
X140457558Y-89130958D01*
X140444500Y-89132100D01*
X139769944Y-89132100D01*
X139769942Y-89132101D01*
X139725340Y-89140972D01*
X139674767Y-89174764D01*
X139640972Y-89225342D01*
X139640971Y-89225343D01*
X139632100Y-89269942D01*
X139632100Y-90810055D01*
X132580500Y-90810055D01*
X132580500Y-85159632D01*
X133984686Y-85159632D01*
X134015129Y-85436309D01*
X134085531Y-85705599D01*
X134194393Y-85961773D01*
X134194395Y-85961776D01*
X134339388Y-86199357D01*
X134339394Y-86199366D01*
X134517438Y-86413308D01*
X134517442Y-86413312D01*
X134724745Y-86599056D01*
X134956883Y-86752637D01*
X135208909Y-86870782D01*
X135475451Y-86950973D01*
X135750828Y-86991500D01*
X135750832Y-86991500D01*
X135959497Y-86991500D01*
X135959499Y-86991499D01*
X136035139Y-86985963D01*
X136167592Y-86976269D01*
X136167594Y-86976268D01*
X136167601Y-86976268D01*
X136439286Y-86915748D01*
X136699263Y-86816315D01*
X136941993Y-86680089D01*
X137162301Y-86509972D01*
X137355492Y-86309592D01*
X137517449Y-86083218D01*
X137644719Y-85835675D01*
X137734591Y-85572239D01*
X137785148Y-85298526D01*
X137792879Y-85087000D01*
X139531001Y-85087000D01*
X139531001Y-85740017D01*
X139545737Y-85814105D01*
X139601876Y-85898124D01*
X139685894Y-85954262D01*
X139685896Y-85954263D01*
X139759982Y-85968999D01*
X140698000Y-85968999D01*
X140698000Y-85087000D01*
X140952000Y-85087000D01*
X140952000Y-85968999D01*
X141890016Y-85968999D01*
X141890017Y-85968998D01*
X141964105Y-85954262D01*
X142048124Y-85898123D01*
X142104262Y-85814105D01*
X142104263Y-85814103D01*
X142119000Y-85740017D01*
X142119000Y-85087000D01*
X162681001Y-85087000D01*
X162681001Y-85740017D01*
X162695737Y-85814105D01*
X162751876Y-85898124D01*
X162835894Y-85954262D01*
X162835896Y-85954263D01*
X162909982Y-85968999D01*
X163848000Y-85968999D01*
X163848000Y-85087000D01*
X164102000Y-85087000D01*
X164102000Y-85968999D01*
X165040016Y-85968999D01*
X165040017Y-85968998D01*
X165114105Y-85954262D01*
X165198124Y-85898123D01*
X165254262Y-85814105D01*
X165254263Y-85814103D01*
X165269000Y-85740017D01*
X165269000Y-85159632D01*
X167004686Y-85159632D01*
X167035129Y-85436309D01*
X167105531Y-85705599D01*
X167214393Y-85961773D01*
X167214395Y-85961776D01*
X167359388Y-86199357D01*
X167359394Y-86199366D01*
X167537438Y-86413308D01*
X167537442Y-86413312D01*
X167744745Y-86599056D01*
X167976883Y-86752637D01*
X168228909Y-86870782D01*
X168495451Y-86950973D01*
X168770828Y-86991500D01*
X168770832Y-86991500D01*
X168979497Y-86991500D01*
X168979499Y-86991499D01*
X169055139Y-86985963D01*
X169187592Y-86976269D01*
X169187594Y-86976268D01*
X169187601Y-86976268D01*
X169459286Y-86915748D01*
X169719263Y-86816315D01*
X169961993Y-86680089D01*
X170182301Y-86509972D01*
X170375492Y-86309592D01*
X170537449Y-86083218D01*
X170664719Y-85835675D01*
X170754591Y-85572239D01*
X170805148Y-85298526D01*
X170815314Y-85020368D01*
X170784871Y-84743694D01*
X170714469Y-84474401D01*
X170605607Y-84218228D01*
X170531487Y-84096777D01*
X170460611Y-83980642D01*
X170460605Y-83980633D01*
X170282561Y-83766691D01*
X170282557Y-83766687D01*
X170075257Y-83580946D01*
X170075255Y-83580944D01*
X169920496Y-83478556D01*
X169843116Y-83427362D01*
X169591089Y-83309217D01*
X169439246Y-83263534D01*
X169324549Y-83229027D01*
X169152672Y-83203732D01*
X169049173Y-83188500D01*
X169049172Y-83188500D01*
X168840511Y-83188500D01*
X168840499Y-83188500D01*
X168632407Y-83203730D01*
X168360709Y-83264253D01*
X168100739Y-83363684D01*
X168100735Y-83363686D01*
X167858010Y-83499908D01*
X167637699Y-83670027D01*
X167444512Y-83870403D01*
X167444504Y-83870413D01*
X167282553Y-84096777D01*
X167155278Y-84344330D01*
X167065410Y-84607753D01*
X167065408Y-84607763D01*
X167014852Y-84881471D01*
X167004686Y-85159628D01*
X167004686Y-85159632D01*
X165269000Y-85159632D01*
X165269000Y-85087000D01*
X164102000Y-85087000D01*
X163848000Y-85087000D01*
X162681001Y-85087000D01*
X142119000Y-85087000D01*
X140952000Y-85087000D01*
X140698000Y-85087000D01*
X139531001Y-85087000D01*
X137792879Y-85087000D01*
X137795314Y-85020368D01*
X137774698Y-84833000D01*
X139531000Y-84833000D01*
X140698000Y-84833000D01*
X140698000Y-83951000D01*
X140952000Y-83951000D01*
X140952000Y-84833000D01*
X142118999Y-84833000D01*
X162681000Y-84833000D01*
X163848000Y-84833000D01*
X163848000Y-83951000D01*
X164102000Y-83951000D01*
X164102000Y-84833000D01*
X165268999Y-84833000D01*
X165268999Y-84179984D01*
X165268998Y-84179982D01*
X165254262Y-84105894D01*
X165198123Y-84021875D01*
X165114105Y-83965737D01*
X165114103Y-83965736D01*
X165040018Y-83951000D01*
X164102000Y-83951000D01*
X163848000Y-83951000D01*
X162909984Y-83951000D01*
X162909982Y-83951001D01*
X162835894Y-83965737D01*
X162751875Y-84021876D01*
X162695737Y-84105894D01*
X162695736Y-84105896D01*
X162681000Y-84179982D01*
X162681000Y-84833000D01*
X142118999Y-84833000D01*
X142118999Y-84179984D01*
X142118998Y-84179982D01*
X142104262Y-84105894D01*
X142048123Y-84021875D01*
X141964105Y-83965737D01*
X141964103Y-83965736D01*
X141890018Y-83951000D01*
X140952000Y-83951000D01*
X140698000Y-83951000D01*
X139759984Y-83951000D01*
X139759982Y-83951001D01*
X139685894Y-83965737D01*
X139601875Y-84021876D01*
X139545737Y-84105894D01*
X139545736Y-84105896D01*
X139531000Y-84179982D01*
X139531000Y-84833000D01*
X137774698Y-84833000D01*
X137764871Y-84743694D01*
X137694469Y-84474401D01*
X137585607Y-84218228D01*
X137511487Y-84096777D01*
X137440611Y-83980642D01*
X137440605Y-83980633D01*
X137262561Y-83766691D01*
X137262557Y-83766687D01*
X137055257Y-83580946D01*
X137055255Y-83580944D01*
X136900496Y-83478556D01*
X136823116Y-83427362D01*
X136571089Y-83309217D01*
X136419246Y-83263534D01*
X136304549Y-83229027D01*
X136132672Y-83203732D01*
X136029173Y-83188500D01*
X136029172Y-83188500D01*
X135820511Y-83188500D01*
X135820499Y-83188500D01*
X135612407Y-83203730D01*
X135340709Y-83264253D01*
X135080739Y-83363684D01*
X135080735Y-83363686D01*
X134838010Y-83499908D01*
X134617699Y-83670027D01*
X134424512Y-83870403D01*
X134424504Y-83870413D01*
X134262553Y-84096777D01*
X134135278Y-84344330D01*
X134045410Y-84607753D01*
X134045408Y-84607763D01*
X133994852Y-84881471D01*
X133984686Y-85159628D01*
X133984686Y-85159632D01*
X132580500Y-85159632D01*
X132580500Y-81855700D01*
X132598093Y-81807362D01*
X132642642Y-81781642D01*
X132655700Y-81780500D01*
X172144300Y-81780500D01*
X172192638Y-81798093D01*
G37*
G04 #@! TD.AperFunction*
M02*
