G04 #@! TF.GenerationSoftware,KiCad,Pcbnew,7.0.11-2.fc39*
G04 #@! TF.CreationDate,2024-03-24T03:10:33+08:00*
G04 #@! TF.ProjectId,ikoka-nano-meshtastic-device,696b6f6b-612d-46e6-916e-6f2d6d657368,1*
G04 #@! TF.SameCoordinates,Original*
G04 #@! TF.FileFunction,Legend,Top*
G04 #@! TF.FilePolarity,Positive*
%FSLAX46Y46*%
G04 Gerber Fmt 4.6, Leading zero omitted, Abs format (unit mm)*
G04 Created by KiCad (PCBNEW 7.0.11-2.fc39) date 2024-03-24 03:10:33*
%MOMM*%
%LPD*%
G01*
G04 APERTURE LIST*
G04 Aperture macros list*
%AMRoundRect*
0 Rectangle with rounded corners*
0 $1 Rounding radius*
0 $2 $3 $4 $5 $6 $7 $8 $9 X,Y pos of 4 corners*
0 Add a 4 corners polygon primitive as box body*
4,1,4,$2,$3,$4,$5,$6,$7,$8,$9,$2,$3,0*
0 Add four circle primitives for the rounded corners*
1,1,$1+$1,$2,$3*
1,1,$1+$1,$4,$5*
1,1,$1+$1,$6,$7*
1,1,$1+$1,$8,$9*
0 Add four rect primitives between the rounded corners*
20,1,$1+$1,$2,$3,$4,$5,0*
20,1,$1+$1,$4,$5,$6,$7,0*
20,1,$1+$1,$6,$7,$8,$9,0*
20,1,$1+$1,$8,$9,$2,$3,0*%
G04 Aperture macros list end*
%ADD10C,0.187500*%
%ADD11C,0.150000*%
%ADD12C,0.101600*%
%ADD13C,0.127000*%
%ADD14C,0.203200*%
%ADD15C,0.120000*%
%ADD16C,0.254000*%
%ADD17C,0.025400*%
%ADD18R,1.270000X2.032000*%
%ADD19RoundRect,0.101600X0.500000X2.300000X-0.500000X2.300000X-0.500000X-2.300000X0.500000X-2.300000X0*%
%ADD20RoundRect,0.101600X-0.800000X1.700000X-0.800000X-1.700000X0.800000X-1.700000X0.800000X1.700000X0*%
%ADD21C,3.302000*%
%ADD22R,3.000000X2.000000*%
%ADD23C,1.500000*%
%ADD24R,1.300000X2.300000*%
%ADD25R,2.300000X1.300000*%
%ADD26RoundRect,0.101600X-0.300000X-0.675000X0.300000X-0.675000X0.300000X0.675000X-0.300000X0.675000X0*%
%ADD27RoundRect,0.101600X-0.600000X-1.000000X0.600000X-1.000000X0.600000X1.000000X-0.600000X1.000000X0*%
G04 APERTURE END LIST*
D10*
X140260000Y-111312678D02*
X139402857Y-111312678D01*
X139831428Y-111312678D02*
X139831428Y-109812678D01*
X139831428Y-109812678D02*
X139688571Y-110026964D01*
X139688571Y-110026964D02*
X139545714Y-110169821D01*
X139545714Y-110169821D02*
X139402857Y-110241250D01*
X140831428Y-111241250D02*
X141045714Y-111312678D01*
X141045714Y-111312678D02*
X141402856Y-111312678D01*
X141402856Y-111312678D02*
X141545714Y-111241250D01*
X141545714Y-111241250D02*
X141617142Y-111169821D01*
X141617142Y-111169821D02*
X141688571Y-111026964D01*
X141688571Y-111026964D02*
X141688571Y-110884107D01*
X141688571Y-110884107D02*
X141617142Y-110741250D01*
X141617142Y-110741250D02*
X141545714Y-110669821D01*
X141545714Y-110669821D02*
X141402856Y-110598392D01*
X141402856Y-110598392D02*
X141117142Y-110526964D01*
X141117142Y-110526964D02*
X140974285Y-110455535D01*
X140974285Y-110455535D02*
X140902856Y-110384107D01*
X140902856Y-110384107D02*
X140831428Y-110241250D01*
X140831428Y-110241250D02*
X140831428Y-110098392D01*
X140831428Y-110098392D02*
X140902856Y-109955535D01*
X140902856Y-109955535D02*
X140974285Y-109884107D01*
X140974285Y-109884107D02*
X141117142Y-109812678D01*
X141117142Y-109812678D02*
X141474285Y-109812678D01*
X141474285Y-109812678D02*
X141688571Y-109884107D01*
X144188570Y-111312678D02*
X143474284Y-111312678D01*
X143474284Y-111312678D02*
X143474284Y-109812678D01*
X144688570Y-111312678D02*
X144688570Y-110312678D01*
X144688570Y-109812678D02*
X144617142Y-109884107D01*
X144617142Y-109884107D02*
X144688570Y-109955535D01*
X144688570Y-109955535D02*
X144759999Y-109884107D01*
X144759999Y-109884107D02*
X144688570Y-109812678D01*
X144688570Y-109812678D02*
X144688570Y-109955535D01*
X145402856Y-111312678D02*
X145402856Y-109812678D01*
X145402856Y-109812678D02*
X145974285Y-109812678D01*
X145974285Y-109812678D02*
X146117142Y-109884107D01*
X146117142Y-109884107D02*
X146188571Y-109955535D01*
X146188571Y-109955535D02*
X146259999Y-110098392D01*
X146259999Y-110098392D02*
X146259999Y-110312678D01*
X146259999Y-110312678D02*
X146188571Y-110455535D01*
X146188571Y-110455535D02*
X146117142Y-110526964D01*
X146117142Y-110526964D02*
X145974285Y-110598392D01*
X145974285Y-110598392D02*
X145402856Y-110598392D01*
X147117142Y-111312678D02*
X146974285Y-111241250D01*
X146974285Y-111241250D02*
X146902856Y-111169821D01*
X146902856Y-111169821D02*
X146831428Y-111026964D01*
X146831428Y-111026964D02*
X146831428Y-110598392D01*
X146831428Y-110598392D02*
X146902856Y-110455535D01*
X146902856Y-110455535D02*
X146974285Y-110384107D01*
X146974285Y-110384107D02*
X147117142Y-110312678D01*
X147117142Y-110312678D02*
X147331428Y-110312678D01*
X147331428Y-110312678D02*
X147474285Y-110384107D01*
X147474285Y-110384107D02*
X147545714Y-110455535D01*
X147545714Y-110455535D02*
X147617142Y-110598392D01*
X147617142Y-110598392D02*
X147617142Y-111026964D01*
X147617142Y-111026964D02*
X147545714Y-111169821D01*
X147545714Y-111169821D02*
X147474285Y-111241250D01*
X147474285Y-111241250D02*
X147331428Y-111312678D01*
X147331428Y-111312678D02*
X147117142Y-111312678D01*
X158464572Y-108826250D02*
X157321714Y-108826250D01*
X158464572Y-108540535D02*
X157321714Y-108111964D01*
X157321714Y-108111964D02*
X158464572Y-107683392D01*
X159821715Y-107397678D02*
X159536000Y-107397678D01*
X159536000Y-107397678D02*
X159393143Y-107469107D01*
X159393143Y-107469107D02*
X159321715Y-107540535D01*
X159321715Y-107540535D02*
X159178857Y-107754821D01*
X159178857Y-107754821D02*
X159107429Y-108040535D01*
X159107429Y-108040535D02*
X159107429Y-108611964D01*
X159107429Y-108611964D02*
X159178857Y-108754821D01*
X159178857Y-108754821D02*
X159250286Y-108826250D01*
X159250286Y-108826250D02*
X159393143Y-108897678D01*
X159393143Y-108897678D02*
X159678857Y-108897678D01*
X159678857Y-108897678D02*
X159821715Y-108826250D01*
X159821715Y-108826250D02*
X159893143Y-108754821D01*
X159893143Y-108754821D02*
X159964572Y-108611964D01*
X159964572Y-108611964D02*
X159964572Y-108254821D01*
X159964572Y-108254821D02*
X159893143Y-108111964D01*
X159893143Y-108111964D02*
X159821715Y-108040535D01*
X159821715Y-108040535D02*
X159678857Y-107969107D01*
X159678857Y-107969107D02*
X159393143Y-107969107D01*
X159393143Y-107969107D02*
X159250286Y-108040535D01*
X159250286Y-108040535D02*
X159178857Y-108111964D01*
X159178857Y-108111964D02*
X159107429Y-108254821D01*
X160607428Y-108754821D02*
X160678857Y-108826250D01*
X160678857Y-108826250D02*
X160607428Y-108897678D01*
X160607428Y-108897678D02*
X160536000Y-108826250D01*
X160536000Y-108826250D02*
X160607428Y-108754821D01*
X160607428Y-108754821D02*
X160607428Y-108897678D01*
X161964572Y-107897678D02*
X161964572Y-108897678D01*
X161607429Y-107326250D02*
X161250286Y-108397678D01*
X161250286Y-108397678D02*
X162178857Y-108397678D01*
X163464571Y-107397678D02*
X162750285Y-107397678D01*
X162750285Y-107397678D02*
X162678857Y-108111964D01*
X162678857Y-108111964D02*
X162750285Y-108040535D01*
X162750285Y-108040535D02*
X162893143Y-107969107D01*
X162893143Y-107969107D02*
X163250285Y-107969107D01*
X163250285Y-107969107D02*
X163393143Y-108040535D01*
X163393143Y-108040535D02*
X163464571Y-108111964D01*
X163464571Y-108111964D02*
X163536000Y-108254821D01*
X163536000Y-108254821D02*
X163536000Y-108611964D01*
X163536000Y-108611964D02*
X163464571Y-108754821D01*
X163464571Y-108754821D02*
X163393143Y-108826250D01*
X163393143Y-108826250D02*
X163250285Y-108897678D01*
X163250285Y-108897678D02*
X162893143Y-108897678D01*
X162893143Y-108897678D02*
X162750285Y-108826250D01*
X162750285Y-108826250D02*
X162678857Y-108754821D01*
X163964571Y-107397678D02*
X164464571Y-108897678D01*
X164464571Y-108897678D02*
X164964571Y-107397678D01*
X158393143Y-111241250D02*
X158607429Y-111312678D01*
X158607429Y-111312678D02*
X158964571Y-111312678D01*
X158964571Y-111312678D02*
X159107429Y-111241250D01*
X159107429Y-111241250D02*
X159178857Y-111169821D01*
X159178857Y-111169821D02*
X159250286Y-111026964D01*
X159250286Y-111026964D02*
X159250286Y-110884107D01*
X159250286Y-110884107D02*
X159178857Y-110741250D01*
X159178857Y-110741250D02*
X159107429Y-110669821D01*
X159107429Y-110669821D02*
X158964571Y-110598392D01*
X158964571Y-110598392D02*
X158678857Y-110526964D01*
X158678857Y-110526964D02*
X158536000Y-110455535D01*
X158536000Y-110455535D02*
X158464571Y-110384107D01*
X158464571Y-110384107D02*
X158393143Y-110241250D01*
X158393143Y-110241250D02*
X158393143Y-110098392D01*
X158393143Y-110098392D02*
X158464571Y-109955535D01*
X158464571Y-109955535D02*
X158536000Y-109884107D01*
X158536000Y-109884107D02*
X158678857Y-109812678D01*
X158678857Y-109812678D02*
X159036000Y-109812678D01*
X159036000Y-109812678D02*
X159250286Y-109884107D01*
X160107428Y-111312678D02*
X159964571Y-111241250D01*
X159964571Y-111241250D02*
X159893142Y-111169821D01*
X159893142Y-111169821D02*
X159821714Y-111026964D01*
X159821714Y-111026964D02*
X159821714Y-110598392D01*
X159821714Y-110598392D02*
X159893142Y-110455535D01*
X159893142Y-110455535D02*
X159964571Y-110384107D01*
X159964571Y-110384107D02*
X160107428Y-110312678D01*
X160107428Y-110312678D02*
X160321714Y-110312678D01*
X160321714Y-110312678D02*
X160464571Y-110384107D01*
X160464571Y-110384107D02*
X160536000Y-110455535D01*
X160536000Y-110455535D02*
X160607428Y-110598392D01*
X160607428Y-110598392D02*
X160607428Y-111026964D01*
X160607428Y-111026964D02*
X160536000Y-111169821D01*
X160536000Y-111169821D02*
X160464571Y-111241250D01*
X160464571Y-111241250D02*
X160321714Y-111312678D01*
X160321714Y-111312678D02*
X160107428Y-111312678D01*
X161464571Y-111312678D02*
X161321714Y-111241250D01*
X161321714Y-111241250D02*
X161250285Y-111098392D01*
X161250285Y-111098392D02*
X161250285Y-109812678D01*
X162678857Y-111312678D02*
X162678857Y-110526964D01*
X162678857Y-110526964D02*
X162607428Y-110384107D01*
X162607428Y-110384107D02*
X162464571Y-110312678D01*
X162464571Y-110312678D02*
X162178857Y-110312678D01*
X162178857Y-110312678D02*
X162035999Y-110384107D01*
X162678857Y-111241250D02*
X162535999Y-111312678D01*
X162535999Y-111312678D02*
X162178857Y-111312678D01*
X162178857Y-111312678D02*
X162035999Y-111241250D01*
X162035999Y-111241250D02*
X161964571Y-111098392D01*
X161964571Y-111098392D02*
X161964571Y-110955535D01*
X161964571Y-110955535D02*
X162035999Y-110812678D01*
X162035999Y-110812678D02*
X162178857Y-110741250D01*
X162178857Y-110741250D02*
X162535999Y-110741250D01*
X162535999Y-110741250D02*
X162678857Y-110669821D01*
X163393142Y-111312678D02*
X163393142Y-110312678D01*
X163393142Y-110598392D02*
X163464571Y-110455535D01*
X163464571Y-110455535D02*
X163536000Y-110384107D01*
X163536000Y-110384107D02*
X163678857Y-110312678D01*
X163678857Y-110312678D02*
X163821714Y-110312678D01*
X150828570Y-113995535D02*
X150685713Y-113924107D01*
X150685713Y-113924107D02*
X150542856Y-113781250D01*
X150542856Y-113781250D02*
X150328570Y-113566964D01*
X150328570Y-113566964D02*
X150185713Y-113495535D01*
X150185713Y-113495535D02*
X150042856Y-113495535D01*
X150114285Y-113852678D02*
X149971428Y-113781250D01*
X149971428Y-113781250D02*
X149828570Y-113638392D01*
X149828570Y-113638392D02*
X149757142Y-113352678D01*
X149757142Y-113352678D02*
X149757142Y-112852678D01*
X149757142Y-112852678D02*
X149828570Y-112566964D01*
X149828570Y-112566964D02*
X149971428Y-112424107D01*
X149971428Y-112424107D02*
X150114285Y-112352678D01*
X150114285Y-112352678D02*
X150399999Y-112352678D01*
X150399999Y-112352678D02*
X150542856Y-112424107D01*
X150542856Y-112424107D02*
X150685713Y-112566964D01*
X150685713Y-112566964D02*
X150757142Y-112852678D01*
X150757142Y-112852678D02*
X150757142Y-113352678D01*
X150757142Y-113352678D02*
X150685713Y-113638392D01*
X150685713Y-113638392D02*
X150542856Y-113781250D01*
X150542856Y-113781250D02*
X150399999Y-113852678D01*
X150399999Y-113852678D02*
X150114285Y-113852678D01*
X151257142Y-112852678D02*
X151542857Y-113852678D01*
X151542857Y-113852678D02*
X151828571Y-113138392D01*
X151828571Y-113138392D02*
X152114285Y-113852678D01*
X152114285Y-113852678D02*
X152399999Y-112852678D01*
X152971428Y-113852678D02*
X152971428Y-112852678D01*
X152971428Y-112352678D02*
X152900000Y-112424107D01*
X152900000Y-112424107D02*
X152971428Y-112495535D01*
X152971428Y-112495535D02*
X153042857Y-112424107D01*
X153042857Y-112424107D02*
X152971428Y-112352678D01*
X152971428Y-112352678D02*
X152971428Y-112495535D01*
X153685714Y-113852678D02*
X153685714Y-112852678D01*
X153685714Y-112352678D02*
X153614286Y-112424107D01*
X153614286Y-112424107D02*
X153685714Y-112495535D01*
X153685714Y-112495535D02*
X153757143Y-112424107D01*
X153757143Y-112424107D02*
X153685714Y-112352678D01*
X153685714Y-112352678D02*
X153685714Y-112495535D01*
X155042858Y-113781250D02*
X154900000Y-113852678D01*
X154900000Y-113852678D02*
X154614286Y-113852678D01*
X154614286Y-113852678D02*
X154471429Y-113781250D01*
X154471429Y-113781250D02*
X154400000Y-113709821D01*
X154400000Y-113709821D02*
X154328572Y-113566964D01*
X154328572Y-113566964D02*
X154328572Y-113138392D01*
X154328572Y-113138392D02*
X154400000Y-112995535D01*
X154400000Y-112995535D02*
X154471429Y-112924107D01*
X154471429Y-112924107D02*
X154614286Y-112852678D01*
X154614286Y-112852678D02*
X154900000Y-112852678D01*
X154900000Y-112852678D02*
X155042858Y-112924107D01*
D11*
X138771333Y-89191580D02*
X138723714Y-89239200D01*
X138723714Y-89239200D02*
X138580857Y-89286819D01*
X138580857Y-89286819D02*
X138485619Y-89286819D01*
X138485619Y-89286819D02*
X138342762Y-89239200D01*
X138342762Y-89239200D02*
X138247524Y-89143961D01*
X138247524Y-89143961D02*
X138199905Y-89048723D01*
X138199905Y-89048723D02*
X138152286Y-88858247D01*
X138152286Y-88858247D02*
X138152286Y-88715390D01*
X138152286Y-88715390D02*
X138199905Y-88524914D01*
X138199905Y-88524914D02*
X138247524Y-88429676D01*
X138247524Y-88429676D02*
X138342762Y-88334438D01*
X138342762Y-88334438D02*
X138485619Y-88286819D01*
X138485619Y-88286819D02*
X138580857Y-88286819D01*
X138580857Y-88286819D02*
X138723714Y-88334438D01*
X138723714Y-88334438D02*
X138771333Y-88382057D01*
X139723714Y-89286819D02*
X139152286Y-89286819D01*
X139438000Y-89286819D02*
X139438000Y-88286819D01*
X139438000Y-88286819D02*
X139342762Y-88429676D01*
X139342762Y-88429676D02*
X139247524Y-88524914D01*
X139247524Y-88524914D02*
X139152286Y-88572533D01*
D12*
X145372666Y-102894985D02*
X145372666Y-103614652D01*
X145372666Y-103614652D02*
X145415000Y-103699318D01*
X145415000Y-103699318D02*
X145457333Y-103741652D01*
X145457333Y-103741652D02*
X145542000Y-103783985D01*
X145542000Y-103783985D02*
X145711333Y-103783985D01*
X145711333Y-103783985D02*
X145796000Y-103741652D01*
X145796000Y-103741652D02*
X145838333Y-103699318D01*
X145838333Y-103699318D02*
X145880666Y-103614652D01*
X145880666Y-103614652D02*
X145880666Y-102894985D01*
X146769666Y-103783985D02*
X146261666Y-103783985D01*
X146515666Y-103783985D02*
X146515666Y-102894985D01*
X146515666Y-102894985D02*
X146430999Y-103021985D01*
X146430999Y-103021985D02*
X146346333Y-103106652D01*
X146346333Y-103106652D02*
X146261666Y-103148985D01*
D13*
X136474200Y-89712800D02*
X141401800Y-89712800D01*
X136474200Y-92151200D02*
X136474200Y-89712800D01*
X141401800Y-89712800D02*
X141401800Y-92151200D01*
X141401800Y-92151200D02*
X136474200Y-92151200D01*
D14*
X147510000Y-117110000D02*
X147510000Y-113610000D01*
X147510000Y-113610000D02*
X146710000Y-113610000D01*
X146710000Y-116110000D02*
X145510000Y-116110000D01*
X146710000Y-113610000D02*
X146710000Y-116110000D01*
X141510000Y-121110000D02*
X145510000Y-121110000D01*
X141510000Y-116110000D02*
X140310000Y-116110000D01*
X140310000Y-116110000D02*
X140310000Y-113610000D01*
X140310000Y-113610000D02*
X139510000Y-113610000D01*
X139510000Y-113610000D02*
X139510000Y-117110000D01*
X165290000Y-117110000D02*
X165290000Y-113610000D01*
X165290000Y-113610000D02*
X164490000Y-113610000D01*
X164490000Y-116110000D02*
X163290000Y-116110000D01*
X164490000Y-113610000D02*
X164490000Y-116110000D01*
X159290000Y-121110000D02*
X163290000Y-121110000D01*
X159290000Y-116110000D02*
X158090000Y-116110000D01*
X158090000Y-116110000D02*
X158090000Y-113610000D01*
X158090000Y-113610000D02*
X157290000Y-113610000D01*
X157290000Y-113610000D02*
X157290000Y-117110000D01*
D13*
X143500000Y-83448000D02*
X143500000Y-100448000D01*
X145500000Y-102448000D02*
X159300000Y-102448000D01*
X147900000Y-80023970D02*
X156900000Y-80023970D01*
X147900000Y-87377270D02*
X147900000Y-80023970D01*
X156900000Y-80023970D02*
X156900000Y-87377270D01*
X156900000Y-87377270D02*
X147900000Y-87377270D01*
X159300000Y-81448910D02*
X145500000Y-81448910D01*
X161300000Y-100448000D02*
X161300000Y-83448000D01*
D15*
X145500000Y-81448001D02*
G75*
G03*
X143500001Y-83448000I44612J-2044611D01*
G01*
X143500001Y-100448000D02*
G75*
G03*
X145500000Y-102447999I2044856J44857D01*
G01*
X161299999Y-83448000D02*
G75*
G03*
X159300000Y-81448001I-2044609J-44610D01*
G01*
X159300000Y-102448000D02*
G75*
G03*
X161300000Y-100448000I0J2000000D01*
G01*
D16*
X141527000Y-83148000D02*
G75*
G03*
X141273000Y-83148000I-127000J0D01*
G01*
X141273000Y-83148000D02*
G75*
G03*
X141527000Y-83148000I127000J0D01*
G01*
D17*
X143512285Y-83386295D02*
X143515333Y-83337527D01*
X143519397Y-83288506D01*
X143512285Y-83386295D01*
X161287713Y-100518850D02*
X161284665Y-100567618D01*
X161280601Y-100616639D01*
X161275268Y-100665407D01*
X161268664Y-100714175D01*
X161261044Y-100762690D01*
X161252153Y-100810950D01*
X161242248Y-100858955D01*
X161289492Y-100469574D01*
X161287713Y-100518850D01*
D14*
X149400000Y-116979000D02*
X150150000Y-116979000D01*
X149400000Y-118629000D02*
X149400000Y-116979000D01*
X150900000Y-121229000D02*
X153900000Y-121229000D01*
X154650000Y-116979000D02*
X155400000Y-116979000D01*
X155400000Y-116979000D02*
X155400000Y-118629000D01*
%LPC*%
D18*
X137287000Y-90932000D03*
X140589000Y-90932000D03*
D19*
X144510000Y-114410000D03*
X142510000Y-114410000D03*
D20*
X146910000Y-119610000D03*
X140110000Y-119610000D03*
D19*
X162290000Y-114410000D03*
X160290000Y-114410000D03*
D20*
X164690000Y-119610000D03*
X157890000Y-119610000D03*
D21*
X168910000Y-118110000D03*
X135890000Y-85090000D03*
X168910000Y-85090000D03*
X135890000Y-118110000D03*
D22*
X143900000Y-84328000D03*
X143900000Y-86868000D03*
X143900000Y-89408000D03*
X143900000Y-91948000D03*
X143900000Y-94488000D03*
X143900000Y-97028000D03*
X143900000Y-99568000D03*
X160900000Y-99568000D03*
X160900000Y-97028000D03*
X160900000Y-94488000D03*
X160900000Y-91948000D03*
X160900000Y-89408000D03*
X160900000Y-86868000D03*
X160900000Y-84328000D03*
D23*
X151130000Y-83558000D03*
X153670000Y-83558000D03*
X151130000Y-86098000D03*
X153670000Y-86098000D03*
D24*
X156200000Y-101198000D03*
X158100000Y-101198000D03*
D25*
X147900000Y-89748000D03*
X147900000Y-91648000D03*
D26*
X150900000Y-116629000D03*
X151900000Y-116629000D03*
X152900000Y-116629000D03*
X153900000Y-116629000D03*
D27*
X155200000Y-120304000D03*
X149600000Y-120304000D03*
%LPD*%
M02*
