G04 #@! TF.GenerationSoftware,KiCad,Pcbnew,7.0.11-2.fc39*
G04 #@! TF.CreationDate,2024-03-24T03:41:49+08:00*
G04 #@! TF.ProjectId,ikoka-nano-meshtastic-device,696b6f6b-612d-46e6-916e-6f2d6d657368,1.1*
G04 #@! TF.SameCoordinates,Original*
G04 #@! TF.FileFunction,Legend,Top*
G04 #@! TF.FilePolarity,Positive*
%FSLAX46Y46*%
G04 Gerber Fmt 4.6, Leading zero omitted, Abs format (unit mm)*
G04 Created by KiCad (PCBNEW 7.0.11-2.fc39) date 2024-03-24 03:41:49*
%MOMM*%
%LPD*%
G01*
G04 APERTURE LIST*
G04 Aperture macros list*
%AMRoundRect*
0 Rectangle with rounded corners*
0 $1 Rounding radius*
0 $2 $3 $4 $5 $6 $7 $8 $9 X,Y pos of 4 corners*
0 Add a 4 corners polygon primitive as box body*
4,1,4,$2,$3,$4,$5,$6,$7,$8,$9,$2,$3,0*
0 Add four circle primitives for the rounded corners*
1,1,$1+$1,$2,$3*
1,1,$1+$1,$4,$5*
1,1,$1+$1,$6,$7*
1,1,$1+$1,$8,$9*
0 Add four rect primitives between the rounded corners*
20,1,$1+$1,$2,$3,$4,$5,0*
20,1,$1+$1,$4,$5,$6,$7,0*
20,1,$1+$1,$6,$7,$8,$9,0*
20,1,$1+$1,$8,$9,$2,$3,0*%
G04 Aperture macros list end*
%ADD10C,0.187500*%
%ADD11C,0.150000*%
%ADD12C,0.101600*%
%ADD13C,0.127000*%
%ADD14C,0.203200*%
%ADD15C,0.120000*%
%ADD16C,0.254000*%
%ADD17C,0.025400*%
%ADD18R,1.270000X2.032000*%
%ADD19RoundRect,0.101600X0.500000X2.300000X-0.500000X2.300000X-0.500000X-2.300000X0.500000X-2.300000X0*%
%ADD20RoundRect,0.101600X-0.800000X1.700000X-0.800000X-1.700000X0.800000X-1.700000X0.800000X1.700000X0*%
%ADD21C,3.302000*%
%ADD22R,3.000000X2.000000*%
%ADD23C,1.500000*%
%ADD24R,1.300000X2.300000*%
%ADD25R,2.300000X1.300000*%
%ADD26RoundRect,0.101600X-0.300000X-0.675000X0.300000X-0.675000X0.300000X0.675000X-0.300000X0.675000X0*%
%ADD27RoundRect,0.101600X-0.600000X-1.000000X0.600000X-1.000000X0.600000X1.000000X-0.600000X1.000000X0*%
G04 APERTURE END LIST*
D10*
X140260000Y-110042678D02*
X139402857Y-110042678D01*
X139831428Y-110042678D02*
X139831428Y-108542678D01*
X139831428Y-108542678D02*
X139688571Y-108756964D01*
X139688571Y-108756964D02*
X139545714Y-108899821D01*
X139545714Y-108899821D02*
X139402857Y-108971250D01*
X140831428Y-109971250D02*
X141045714Y-110042678D01*
X141045714Y-110042678D02*
X141402856Y-110042678D01*
X141402856Y-110042678D02*
X141545714Y-109971250D01*
X141545714Y-109971250D02*
X141617142Y-109899821D01*
X141617142Y-109899821D02*
X141688571Y-109756964D01*
X141688571Y-109756964D02*
X141688571Y-109614107D01*
X141688571Y-109614107D02*
X141617142Y-109471250D01*
X141617142Y-109471250D02*
X141545714Y-109399821D01*
X141545714Y-109399821D02*
X141402856Y-109328392D01*
X141402856Y-109328392D02*
X141117142Y-109256964D01*
X141117142Y-109256964D02*
X140974285Y-109185535D01*
X140974285Y-109185535D02*
X140902856Y-109114107D01*
X140902856Y-109114107D02*
X140831428Y-108971250D01*
X140831428Y-108971250D02*
X140831428Y-108828392D01*
X140831428Y-108828392D02*
X140902856Y-108685535D01*
X140902856Y-108685535D02*
X140974285Y-108614107D01*
X140974285Y-108614107D02*
X141117142Y-108542678D01*
X141117142Y-108542678D02*
X141474285Y-108542678D01*
X141474285Y-108542678D02*
X141688571Y-108614107D01*
X144188570Y-110042678D02*
X143474284Y-110042678D01*
X143474284Y-110042678D02*
X143474284Y-108542678D01*
X144688570Y-110042678D02*
X144688570Y-109042678D01*
X144688570Y-108542678D02*
X144617142Y-108614107D01*
X144617142Y-108614107D02*
X144688570Y-108685535D01*
X144688570Y-108685535D02*
X144759999Y-108614107D01*
X144759999Y-108614107D02*
X144688570Y-108542678D01*
X144688570Y-108542678D02*
X144688570Y-108685535D01*
X145402856Y-110042678D02*
X145402856Y-108542678D01*
X145402856Y-108542678D02*
X145974285Y-108542678D01*
X145974285Y-108542678D02*
X146117142Y-108614107D01*
X146117142Y-108614107D02*
X146188571Y-108685535D01*
X146188571Y-108685535D02*
X146259999Y-108828392D01*
X146259999Y-108828392D02*
X146259999Y-109042678D01*
X146259999Y-109042678D02*
X146188571Y-109185535D01*
X146188571Y-109185535D02*
X146117142Y-109256964D01*
X146117142Y-109256964D02*
X145974285Y-109328392D01*
X145974285Y-109328392D02*
X145402856Y-109328392D01*
X147117142Y-110042678D02*
X146974285Y-109971250D01*
X146974285Y-109971250D02*
X146902856Y-109899821D01*
X146902856Y-109899821D02*
X146831428Y-109756964D01*
X146831428Y-109756964D02*
X146831428Y-109328392D01*
X146831428Y-109328392D02*
X146902856Y-109185535D01*
X146902856Y-109185535D02*
X146974285Y-109114107D01*
X146974285Y-109114107D02*
X147117142Y-109042678D01*
X147117142Y-109042678D02*
X147331428Y-109042678D01*
X147331428Y-109042678D02*
X147474285Y-109114107D01*
X147474285Y-109114107D02*
X147545714Y-109185535D01*
X147545714Y-109185535D02*
X147617142Y-109328392D01*
X147617142Y-109328392D02*
X147617142Y-109756964D01*
X147617142Y-109756964D02*
X147545714Y-109899821D01*
X147545714Y-109899821D02*
X147474285Y-109971250D01*
X147474285Y-109971250D02*
X147331428Y-110042678D01*
X147331428Y-110042678D02*
X147117142Y-110042678D01*
X158464572Y-107556250D02*
X157321714Y-107556250D01*
X158464572Y-107270535D02*
X157321714Y-106841964D01*
X157321714Y-106841964D02*
X158464572Y-106413392D01*
X159821715Y-106127678D02*
X159536000Y-106127678D01*
X159536000Y-106127678D02*
X159393143Y-106199107D01*
X159393143Y-106199107D02*
X159321715Y-106270535D01*
X159321715Y-106270535D02*
X159178857Y-106484821D01*
X159178857Y-106484821D02*
X159107429Y-106770535D01*
X159107429Y-106770535D02*
X159107429Y-107341964D01*
X159107429Y-107341964D02*
X159178857Y-107484821D01*
X159178857Y-107484821D02*
X159250286Y-107556250D01*
X159250286Y-107556250D02*
X159393143Y-107627678D01*
X159393143Y-107627678D02*
X159678857Y-107627678D01*
X159678857Y-107627678D02*
X159821715Y-107556250D01*
X159821715Y-107556250D02*
X159893143Y-107484821D01*
X159893143Y-107484821D02*
X159964572Y-107341964D01*
X159964572Y-107341964D02*
X159964572Y-106984821D01*
X159964572Y-106984821D02*
X159893143Y-106841964D01*
X159893143Y-106841964D02*
X159821715Y-106770535D01*
X159821715Y-106770535D02*
X159678857Y-106699107D01*
X159678857Y-106699107D02*
X159393143Y-106699107D01*
X159393143Y-106699107D02*
X159250286Y-106770535D01*
X159250286Y-106770535D02*
X159178857Y-106841964D01*
X159178857Y-106841964D02*
X159107429Y-106984821D01*
X160607428Y-107484821D02*
X160678857Y-107556250D01*
X160678857Y-107556250D02*
X160607428Y-107627678D01*
X160607428Y-107627678D02*
X160536000Y-107556250D01*
X160536000Y-107556250D02*
X160607428Y-107484821D01*
X160607428Y-107484821D02*
X160607428Y-107627678D01*
X161964572Y-106627678D02*
X161964572Y-107627678D01*
X161607429Y-106056250D02*
X161250286Y-107127678D01*
X161250286Y-107127678D02*
X162178857Y-107127678D01*
X163464571Y-106127678D02*
X162750285Y-106127678D01*
X162750285Y-106127678D02*
X162678857Y-106841964D01*
X162678857Y-106841964D02*
X162750285Y-106770535D01*
X162750285Y-106770535D02*
X162893143Y-106699107D01*
X162893143Y-106699107D02*
X163250285Y-106699107D01*
X163250285Y-106699107D02*
X163393143Y-106770535D01*
X163393143Y-106770535D02*
X163464571Y-106841964D01*
X163464571Y-106841964D02*
X163536000Y-106984821D01*
X163536000Y-106984821D02*
X163536000Y-107341964D01*
X163536000Y-107341964D02*
X163464571Y-107484821D01*
X163464571Y-107484821D02*
X163393143Y-107556250D01*
X163393143Y-107556250D02*
X163250285Y-107627678D01*
X163250285Y-107627678D02*
X162893143Y-107627678D01*
X162893143Y-107627678D02*
X162750285Y-107556250D01*
X162750285Y-107556250D02*
X162678857Y-107484821D01*
X163964571Y-106127678D02*
X164464571Y-107627678D01*
X164464571Y-107627678D02*
X164964571Y-106127678D01*
X158393143Y-109971250D02*
X158607429Y-110042678D01*
X158607429Y-110042678D02*
X158964571Y-110042678D01*
X158964571Y-110042678D02*
X159107429Y-109971250D01*
X159107429Y-109971250D02*
X159178857Y-109899821D01*
X159178857Y-109899821D02*
X159250286Y-109756964D01*
X159250286Y-109756964D02*
X159250286Y-109614107D01*
X159250286Y-109614107D02*
X159178857Y-109471250D01*
X159178857Y-109471250D02*
X159107429Y-109399821D01*
X159107429Y-109399821D02*
X158964571Y-109328392D01*
X158964571Y-109328392D02*
X158678857Y-109256964D01*
X158678857Y-109256964D02*
X158536000Y-109185535D01*
X158536000Y-109185535D02*
X158464571Y-109114107D01*
X158464571Y-109114107D02*
X158393143Y-108971250D01*
X158393143Y-108971250D02*
X158393143Y-108828392D01*
X158393143Y-108828392D02*
X158464571Y-108685535D01*
X158464571Y-108685535D02*
X158536000Y-108614107D01*
X158536000Y-108614107D02*
X158678857Y-108542678D01*
X158678857Y-108542678D02*
X159036000Y-108542678D01*
X159036000Y-108542678D02*
X159250286Y-108614107D01*
X160107428Y-110042678D02*
X159964571Y-109971250D01*
X159964571Y-109971250D02*
X159893142Y-109899821D01*
X159893142Y-109899821D02*
X159821714Y-109756964D01*
X159821714Y-109756964D02*
X159821714Y-109328392D01*
X159821714Y-109328392D02*
X159893142Y-109185535D01*
X159893142Y-109185535D02*
X159964571Y-109114107D01*
X159964571Y-109114107D02*
X160107428Y-109042678D01*
X160107428Y-109042678D02*
X160321714Y-109042678D01*
X160321714Y-109042678D02*
X160464571Y-109114107D01*
X160464571Y-109114107D02*
X160536000Y-109185535D01*
X160536000Y-109185535D02*
X160607428Y-109328392D01*
X160607428Y-109328392D02*
X160607428Y-109756964D01*
X160607428Y-109756964D02*
X160536000Y-109899821D01*
X160536000Y-109899821D02*
X160464571Y-109971250D01*
X160464571Y-109971250D02*
X160321714Y-110042678D01*
X160321714Y-110042678D02*
X160107428Y-110042678D01*
X161464571Y-110042678D02*
X161321714Y-109971250D01*
X161321714Y-109971250D02*
X161250285Y-109828392D01*
X161250285Y-109828392D02*
X161250285Y-108542678D01*
X162678857Y-110042678D02*
X162678857Y-109256964D01*
X162678857Y-109256964D02*
X162607428Y-109114107D01*
X162607428Y-109114107D02*
X162464571Y-109042678D01*
X162464571Y-109042678D02*
X162178857Y-109042678D01*
X162178857Y-109042678D02*
X162035999Y-109114107D01*
X162678857Y-109971250D02*
X162535999Y-110042678D01*
X162535999Y-110042678D02*
X162178857Y-110042678D01*
X162178857Y-110042678D02*
X162035999Y-109971250D01*
X162035999Y-109971250D02*
X161964571Y-109828392D01*
X161964571Y-109828392D02*
X161964571Y-109685535D01*
X161964571Y-109685535D02*
X162035999Y-109542678D01*
X162035999Y-109542678D02*
X162178857Y-109471250D01*
X162178857Y-109471250D02*
X162535999Y-109471250D01*
X162535999Y-109471250D02*
X162678857Y-109399821D01*
X163393142Y-110042678D02*
X163393142Y-109042678D01*
X163393142Y-109328392D02*
X163464571Y-109185535D01*
X163464571Y-109185535D02*
X163536000Y-109114107D01*
X163536000Y-109114107D02*
X163678857Y-109042678D01*
X163678857Y-109042678D02*
X163821714Y-109042678D01*
X150828570Y-115011535D02*
X150685713Y-114940107D01*
X150685713Y-114940107D02*
X150542856Y-114797250D01*
X150542856Y-114797250D02*
X150328570Y-114582964D01*
X150328570Y-114582964D02*
X150185713Y-114511535D01*
X150185713Y-114511535D02*
X150042856Y-114511535D01*
X150114285Y-114868678D02*
X149971428Y-114797250D01*
X149971428Y-114797250D02*
X149828570Y-114654392D01*
X149828570Y-114654392D02*
X149757142Y-114368678D01*
X149757142Y-114368678D02*
X149757142Y-113868678D01*
X149757142Y-113868678D02*
X149828570Y-113582964D01*
X149828570Y-113582964D02*
X149971428Y-113440107D01*
X149971428Y-113440107D02*
X150114285Y-113368678D01*
X150114285Y-113368678D02*
X150399999Y-113368678D01*
X150399999Y-113368678D02*
X150542856Y-113440107D01*
X150542856Y-113440107D02*
X150685713Y-113582964D01*
X150685713Y-113582964D02*
X150757142Y-113868678D01*
X150757142Y-113868678D02*
X150757142Y-114368678D01*
X150757142Y-114368678D02*
X150685713Y-114654392D01*
X150685713Y-114654392D02*
X150542856Y-114797250D01*
X150542856Y-114797250D02*
X150399999Y-114868678D01*
X150399999Y-114868678D02*
X150114285Y-114868678D01*
X151257142Y-113868678D02*
X151542857Y-114868678D01*
X151542857Y-114868678D02*
X151828571Y-114154392D01*
X151828571Y-114154392D02*
X152114285Y-114868678D01*
X152114285Y-114868678D02*
X152399999Y-113868678D01*
X152971428Y-114868678D02*
X152971428Y-113868678D01*
X152971428Y-113368678D02*
X152900000Y-113440107D01*
X152900000Y-113440107D02*
X152971428Y-113511535D01*
X152971428Y-113511535D02*
X153042857Y-113440107D01*
X153042857Y-113440107D02*
X152971428Y-113368678D01*
X152971428Y-113368678D02*
X152971428Y-113511535D01*
X153685714Y-114868678D02*
X153685714Y-113868678D01*
X153685714Y-113368678D02*
X153614286Y-113440107D01*
X153614286Y-113440107D02*
X153685714Y-113511535D01*
X153685714Y-113511535D02*
X153757143Y-113440107D01*
X153757143Y-113440107D02*
X153685714Y-113368678D01*
X153685714Y-113368678D02*
X153685714Y-113511535D01*
X155042858Y-114797250D02*
X154900000Y-114868678D01*
X154900000Y-114868678D02*
X154614286Y-114868678D01*
X154614286Y-114868678D02*
X154471429Y-114797250D01*
X154471429Y-114797250D02*
X154400000Y-114725821D01*
X154400000Y-114725821D02*
X154328572Y-114582964D01*
X154328572Y-114582964D02*
X154328572Y-114154392D01*
X154328572Y-114154392D02*
X154400000Y-114011535D01*
X154400000Y-114011535D02*
X154471429Y-113940107D01*
X154471429Y-113940107D02*
X154614286Y-113868678D01*
X154614286Y-113868678D02*
X154900000Y-113868678D01*
X154900000Y-113868678D02*
X155042858Y-113940107D01*
D11*
X140041333Y-88243580D02*
X139993714Y-88291200D01*
X139993714Y-88291200D02*
X139850857Y-88338819D01*
X139850857Y-88338819D02*
X139755619Y-88338819D01*
X139755619Y-88338819D02*
X139612762Y-88291200D01*
X139612762Y-88291200D02*
X139517524Y-88195961D01*
X139517524Y-88195961D02*
X139469905Y-88100723D01*
X139469905Y-88100723D02*
X139422286Y-87910247D01*
X139422286Y-87910247D02*
X139422286Y-87767390D01*
X139422286Y-87767390D02*
X139469905Y-87576914D01*
X139469905Y-87576914D02*
X139517524Y-87481676D01*
X139517524Y-87481676D02*
X139612762Y-87386438D01*
X139612762Y-87386438D02*
X139755619Y-87338819D01*
X139755619Y-87338819D02*
X139850857Y-87338819D01*
X139850857Y-87338819D02*
X139993714Y-87386438D01*
X139993714Y-87386438D02*
X140041333Y-87434057D01*
X140993714Y-88338819D02*
X140422286Y-88338819D01*
X140708000Y-88338819D02*
X140708000Y-87338819D01*
X140708000Y-87338819D02*
X140612762Y-87481676D01*
X140612762Y-87481676D02*
X140517524Y-87576914D01*
X140517524Y-87576914D02*
X140422286Y-87624533D01*
D12*
X145372666Y-102894985D02*
X145372666Y-103614652D01*
X145372666Y-103614652D02*
X145415000Y-103699318D01*
X145415000Y-103699318D02*
X145457333Y-103741652D01*
X145457333Y-103741652D02*
X145542000Y-103783985D01*
X145542000Y-103783985D02*
X145711333Y-103783985D01*
X145711333Y-103783985D02*
X145796000Y-103741652D01*
X145796000Y-103741652D02*
X145838333Y-103699318D01*
X145838333Y-103699318D02*
X145880666Y-103614652D01*
X145880666Y-103614652D02*
X145880666Y-102894985D01*
X146769666Y-103783985D02*
X146261666Y-103783985D01*
X146515666Y-103783985D02*
X146515666Y-102894985D01*
X146515666Y-102894985D02*
X146430999Y-103021985D01*
X146430999Y-103021985D02*
X146346333Y-103106652D01*
X146346333Y-103106652D02*
X146261666Y-103148985D01*
D13*
X136474200Y-88950800D02*
X141401800Y-88950800D01*
X136474200Y-91389200D02*
X136474200Y-88950800D01*
X141401800Y-88950800D02*
X141401800Y-91389200D01*
X141401800Y-91389200D02*
X136474200Y-91389200D01*
D14*
X147510000Y-117110000D02*
X147510000Y-113610000D01*
X147510000Y-113610000D02*
X146710000Y-113610000D01*
X146710000Y-116110000D02*
X145510000Y-116110000D01*
X146710000Y-113610000D02*
X146710000Y-116110000D01*
X141510000Y-121110000D02*
X145510000Y-121110000D01*
X141510000Y-116110000D02*
X140310000Y-116110000D01*
X140310000Y-116110000D02*
X140310000Y-113610000D01*
X140310000Y-113610000D02*
X139510000Y-113610000D01*
X139510000Y-113610000D02*
X139510000Y-117110000D01*
X165290000Y-117110000D02*
X165290000Y-113610000D01*
X165290000Y-113610000D02*
X164490000Y-113610000D01*
X164490000Y-116110000D02*
X163290000Y-116110000D01*
X164490000Y-113610000D02*
X164490000Y-116110000D01*
X159290000Y-121110000D02*
X163290000Y-121110000D01*
X159290000Y-116110000D02*
X158090000Y-116110000D01*
X158090000Y-116110000D02*
X158090000Y-113610000D01*
X158090000Y-113610000D02*
X157290000Y-113610000D01*
X157290000Y-113610000D02*
X157290000Y-117110000D01*
D13*
X143500000Y-83448000D02*
X143500000Y-100448000D01*
X145500000Y-102448000D02*
X159300000Y-102448000D01*
X147900000Y-80023970D02*
X156900000Y-80023970D01*
X147900000Y-87377270D02*
X147900000Y-80023970D01*
X156900000Y-80023970D02*
X156900000Y-87377270D01*
X156900000Y-87377270D02*
X147900000Y-87377270D01*
X159300000Y-81448910D02*
X145500000Y-81448910D01*
X161300000Y-100448000D02*
X161300000Y-83448000D01*
D15*
X145500000Y-81448001D02*
G75*
G03*
X143500001Y-83448000I44612J-2044611D01*
G01*
X143500001Y-100448000D02*
G75*
G03*
X145500000Y-102447999I2044856J44857D01*
G01*
X161299999Y-83448000D02*
G75*
G03*
X159300000Y-81448001I-2044609J-44610D01*
G01*
X159300000Y-102448000D02*
G75*
G03*
X161300000Y-100448000I0J2000000D01*
G01*
D16*
X141527000Y-83148000D02*
G75*
G03*
X141273000Y-83148000I-127000J0D01*
G01*
X141273000Y-83148000D02*
G75*
G03*
X141527000Y-83148000I127000J0D01*
G01*
D17*
X143512285Y-83386295D02*
X143515333Y-83337527D01*
X143519397Y-83288506D01*
X143512285Y-83386295D01*
X161287713Y-100518850D02*
X161284665Y-100567618D01*
X161280601Y-100616639D01*
X161275268Y-100665407D01*
X161268664Y-100714175D01*
X161261044Y-100762690D01*
X161252153Y-100810950D01*
X161242248Y-100858955D01*
X161289492Y-100469574D01*
X161287713Y-100518850D01*
D14*
X149400000Y-116979000D02*
X150150000Y-116979000D01*
X149400000Y-118629000D02*
X149400000Y-116979000D01*
X150900000Y-121229000D02*
X153900000Y-121229000D01*
X154650000Y-116979000D02*
X155400000Y-116979000D01*
X155400000Y-116979000D02*
X155400000Y-118629000D01*
%LPC*%
D18*
X137287000Y-90170000D03*
X140589000Y-90170000D03*
D19*
X144510000Y-114410000D03*
X142510000Y-114410000D03*
D20*
X146910000Y-119610000D03*
X140110000Y-119610000D03*
D19*
X162290000Y-114410000D03*
X160290000Y-114410000D03*
D20*
X164690000Y-119610000D03*
X157890000Y-119610000D03*
D21*
X168910000Y-118110000D03*
X135890000Y-85090000D03*
X168910000Y-85090000D03*
X135890000Y-118110000D03*
D22*
X143900000Y-84328000D03*
X143900000Y-86868000D03*
X143900000Y-89408000D03*
X143900000Y-91948000D03*
X143900000Y-94488000D03*
X143900000Y-97028000D03*
X143900000Y-99568000D03*
X160900000Y-99568000D03*
X160900000Y-97028000D03*
X160900000Y-94488000D03*
X160900000Y-91948000D03*
X160900000Y-89408000D03*
X160900000Y-86868000D03*
X160900000Y-84328000D03*
D23*
X151130000Y-83558000D03*
X153670000Y-83558000D03*
X151130000Y-86098000D03*
X153670000Y-86098000D03*
D24*
X156200000Y-101198000D03*
X158100000Y-101198000D03*
D25*
X147900000Y-89748000D03*
X147900000Y-91648000D03*
D26*
X150900000Y-116629000D03*
X151900000Y-116629000D03*
X152900000Y-116629000D03*
X153900000Y-116629000D03*
D27*
X155200000Y-120304000D03*
X149600000Y-120304000D03*
%LPD*%
M02*
