M48
; DRILL file {KiCad 7.0.11-2.fc39} date Sun 24 Mar 2024 03:41:56 AM +08
; FORMAT={-:-/ absolute / metric / decimal}
; #@! TF.CreationDate,2024-03-24T03:41:56+08:00
; #@! TF.GenerationSoftware,Kicad,Pcbnew,7.0.11-2.fc39
; #@! TF.FileFunction,Plated,1,2,PTH
FMAT,2
METRIC
; #@! TA.AperFunction,Plated,PTH,ViaDrill
T1C0.300
; #@! TA.AperFunction,Plated,PTH,ViaDrill
T2C1.143
%
G90
G05
T1
X133.35Y-82.55
X133.35Y-85.09
X133.35Y-87.63
X133.35Y-90.17
X133.35Y-92.71
X133.35Y-95.25
X133.35Y-97.79
X133.35Y-100.33
X133.35Y-102.87
X133.35Y-105.41
X133.35Y-107.95
X133.35Y-110.49
X133.35Y-113.03
X133.35Y-115.57
X133.35Y-118.11
X133.35Y-120.65
X135.89Y-82.55
X135.89Y-87.63
X135.89Y-90.17
X135.89Y-92.71
X135.89Y-95.25
X135.89Y-97.79
X135.89Y-100.33
X135.89Y-102.87
X135.89Y-105.41
X135.89Y-107.95
X135.89Y-110.49
X135.89Y-113.03
X135.89Y-115.57
X135.89Y-120.65
X138.43Y-82.55
X138.43Y-85.09
X138.43Y-87.63
X138.43Y-90.17
X138.43Y-92.71
X138.43Y-95.25
X138.43Y-97.79
X138.43Y-100.33
X138.43Y-102.87
X138.43Y-105.41
X138.43Y-107.95
X138.43Y-110.49
X138.43Y-113.03
X138.43Y-115.57
X138.43Y-118.11
X138.43Y-120.65
X140.589Y-90.17
X140.97Y-82.55
X140.97Y-85.09
X140.97Y-100.33
X140.97Y-102.87
X140.97Y-105.41
X140.97Y-107.95
X140.97Y-110.49
X140.97Y-113.03
X140.97Y-115.57
X141.362Y-118.11
X141.362Y-120.65
X143.51Y-82.55
X143.51Y-102.87
X143.51Y-107.95
X143.51Y-110.49
X143.51Y-113.03
X143.51Y-115.57
X143.51Y-118.11
X143.51Y-120.65
X143.62Y-105.52
X145.034Y-86.868
X145.034Y-89.408
X145.034Y-91.44
X145.034Y-94.488
X145.034Y-97.028
X145.658Y-118.11
X145.658Y-120.65
X146.05Y-82.55
X146.05Y-100.33
X146.05Y-102.87
X146.05Y-105.41
X146.05Y-107.95
X146.05Y-110.49
X146.05Y-113.03
X146.05Y-115.57
X148.59Y-82.55
X148.59Y-85.09
X148.59Y-87.63
X148.59Y-95.25
X148.59Y-97.79
X148.59Y-100.33
X148.59Y-102.87
X148.59Y-105.41
X148.59Y-107.95
X148.59Y-110.49
X148.59Y-113.03
X148.59Y-115.57
X148.59Y-118.11
X148.59Y-118.11
X151.13Y-87.63
X151.13Y-90.17
X151.13Y-92.71
X151.13Y-95.25
X151.13Y-97.79
X151.13Y-100.33
X151.13Y-102.87
X151.13Y-105.41
X151.13Y-107.95
X151.13Y-110.49
X151.13Y-113.03
X151.13Y-118.11
X151.13Y-120.65
X152.4Y-82.55
X152.4Y-84.836
X152.908Y-94.488
X153.67Y-87.63
X153.67Y-90.17
X153.67Y-92.71
X153.67Y-95.25
X153.67Y-118.11
X153.67Y-120.65
X153.9Y-97.028
X156.21Y-82.55
X156.21Y-85.09
X156.21Y-87.63
X156.21Y-90.17
X156.21Y-92.71
X156.21Y-95.25
X156.21Y-97.79
X156.21Y-102.87
X156.21Y-105.41
X156.21Y-107.95
X156.21Y-110.49
X156.21Y-113.03
X156.21Y-115.57
X156.21Y-118.11
X158.75Y-82.55
X158.75Y-85.09
X158.75Y-87.63
X158.75Y-90.17
X158.75Y-92.71
X158.75Y-95.25
X158.75Y-97.79
X158.75Y-102.87
X158.75Y-105.41
X158.75Y-107.95
X158.75Y-110.49
X158.75Y-113.03
X158.75Y-115.57
X159.142Y-118.11
X159.142Y-120.65
X159.766Y-91.948
X159.766Y-97.028
X159.766Y-99.568
X161.29Y-82.55
X161.29Y-101.6
X161.29Y-102.87
X161.29Y-105.41
X161.29Y-107.95
X161.29Y-110.49
X161.29Y-113.03
X161.29Y-115.57
X161.29Y-118.11
X161.29Y-120.65
X162.052Y-94.488
X163.438Y-118.11
X163.438Y-120.65
X163.83Y-82.55
X163.83Y-85.09
X163.83Y-105.41
X163.83Y-107.95
X163.83Y-110.49
X163.83Y-115.57
X166.37Y-82.55
X166.37Y-85.09
X166.37Y-87.63
X166.37Y-90.17
X166.37Y-92.71
X166.37Y-95.25
X166.37Y-97.79
X166.37Y-100.33
X166.37Y-102.87
X166.37Y-105.41
X166.37Y-107.95
X166.37Y-110.49
X166.37Y-113.03
X166.37Y-115.57
X166.37Y-118.11
X166.37Y-120.65
X168.91Y-82.55
X168.91Y-87.63
X168.91Y-90.17
X168.91Y-92.71
X168.91Y-95.25
X168.91Y-97.79
X168.91Y-100.33
X168.91Y-102.87
X168.91Y-105.41
X168.91Y-107.95
X168.91Y-110.49
X168.91Y-113.03
X168.91Y-115.57
X168.91Y-120.65
X171.45Y-82.55
X171.45Y-85.09
X171.45Y-87.63
X171.45Y-90.17
X171.45Y-92.71
X171.45Y-95.25
X171.45Y-97.79
X171.45Y-100.33
X171.45Y-102.87
X171.45Y-105.41
X171.45Y-107.95
X171.45Y-110.49
X171.45Y-113.03
X171.45Y-115.57
X171.45Y-118.11
X171.45Y-120.65
T2
X147.828Y-91.694
M30
