%TF.GenerationSoftware,KiCad,Pcbnew,7.0.11-2.fc39*%
%TF.CreationDate,2024-03-24T03:10:40+08:00*%
%TF.ProjectId,ikoka-nano-meshtastic-device,696b6f6b-612d-46e6-916e-6f2d6d657368,1*%
%TF.SameCoordinates,Original*%
%TF.FileFunction,Drillmap*%
%TF.FilePolarity,Positive*%
%FSLAX45Y45*%
G04 Gerber Fmt 4.5, Leading zero omitted, Abs format (unit mm)*
G04 Created by KiCad (PCBNEW 7.0.11-2.fc39) date 2024-03-24 03:10:40*
%MOMM*%
%LPD*%
G01*
G04 APERTURE LIST*
%ADD10C,0.001000*%
%ADD11C,0.200000*%
%ADD12C,0.100000*%
%ADD13C,0.114300*%
G04 APERTURE END LIST*
D10*
X13208000Y-8128000D02*
X17272000Y-8128000D01*
X17272000Y-12192000D01*
X13208000Y-12192000D01*
X13208000Y-8128000D01*
D11*
D12*
X13320000Y-8367000D02*
X13350000Y-8397000D01*
X13350000Y-8367000D02*
X13320000Y-8397000D01*
X13320000Y-8621000D02*
X13350000Y-8651000D01*
X13350000Y-8621000D02*
X13320000Y-8651000D01*
X13320000Y-8875000D02*
X13350000Y-8905000D01*
X13350000Y-8875000D02*
X13320000Y-8905000D01*
X13320000Y-9129000D02*
X13350000Y-9159000D01*
X13350000Y-9129000D02*
X13320000Y-9159000D01*
X13320000Y-9383000D02*
X13350000Y-9413000D01*
X13350000Y-9383000D02*
X13320000Y-9413000D01*
X13320000Y-9637000D02*
X13350000Y-9667000D01*
X13350000Y-9637000D02*
X13320000Y-9667000D01*
X13320000Y-9891000D02*
X13350000Y-9921000D01*
X13350000Y-9891000D02*
X13320000Y-9921000D01*
X13320000Y-10145000D02*
X13350000Y-10175000D01*
X13350000Y-10145000D02*
X13320000Y-10175000D01*
X13320000Y-10399000D02*
X13350000Y-10429000D01*
X13350000Y-10399000D02*
X13320000Y-10429000D01*
X13320000Y-10653000D02*
X13350000Y-10683000D01*
X13350000Y-10653000D02*
X13320000Y-10683000D01*
X13320000Y-10907000D02*
X13350000Y-10937000D01*
X13350000Y-10907000D02*
X13320000Y-10937000D01*
X13320000Y-11161000D02*
X13350000Y-11191000D01*
X13350000Y-11161000D02*
X13320000Y-11191000D01*
X13320000Y-11415000D02*
X13350000Y-11445000D01*
X13350000Y-11415000D02*
X13320000Y-11445000D01*
X13320000Y-11669000D02*
X13350000Y-11699000D01*
X13350000Y-11669000D02*
X13320000Y-11699000D01*
X13320000Y-11923000D02*
X13350000Y-11953000D01*
X13350000Y-11923000D02*
X13320000Y-11953000D01*
X13447000Y-8240000D02*
X13477000Y-8270000D01*
X13477000Y-8240000D02*
X13447000Y-8270000D01*
X13447000Y-12050000D02*
X13477000Y-12080000D01*
X13477000Y-12050000D02*
X13447000Y-12080000D01*
X13574000Y-8875000D02*
X13604000Y-8905000D01*
X13604000Y-8875000D02*
X13574000Y-8905000D01*
X13574000Y-9129000D02*
X13604000Y-9159000D01*
X13604000Y-9129000D02*
X13574000Y-9159000D01*
X13574000Y-9383000D02*
X13604000Y-9413000D01*
X13604000Y-9383000D02*
X13574000Y-9413000D01*
X13574000Y-9637000D02*
X13604000Y-9667000D01*
X13604000Y-9637000D02*
X13574000Y-9667000D01*
X13574000Y-9891000D02*
X13604000Y-9921000D01*
X13604000Y-9891000D02*
X13574000Y-9921000D01*
X13574000Y-10145000D02*
X13604000Y-10175000D01*
X13604000Y-10145000D02*
X13574000Y-10175000D01*
X13574000Y-10399000D02*
X13604000Y-10429000D01*
X13604000Y-10399000D02*
X13574000Y-10429000D01*
X13574000Y-10653000D02*
X13604000Y-10683000D01*
X13604000Y-10653000D02*
X13574000Y-10683000D01*
X13574000Y-10907000D02*
X13604000Y-10937000D01*
X13604000Y-10907000D02*
X13574000Y-10937000D01*
X13574000Y-11161000D02*
X13604000Y-11191000D01*
X13604000Y-11161000D02*
X13574000Y-11191000D01*
X13574000Y-11415000D02*
X13604000Y-11445000D01*
X13604000Y-11415000D02*
X13574000Y-11445000D01*
X13701000Y-8240000D02*
X13731000Y-8270000D01*
X13731000Y-8240000D02*
X13701000Y-8270000D01*
X13701000Y-12050000D02*
X13731000Y-12080000D01*
X13731000Y-12050000D02*
X13701000Y-12080000D01*
X13828000Y-8367000D02*
X13858000Y-8397000D01*
X13858000Y-8367000D02*
X13828000Y-8397000D01*
X13828000Y-8621000D02*
X13858000Y-8651000D01*
X13858000Y-8621000D02*
X13828000Y-8651000D01*
X13828000Y-8875000D02*
X13858000Y-8905000D01*
X13858000Y-8875000D02*
X13828000Y-8905000D01*
X13828000Y-9129000D02*
X13858000Y-9159000D01*
X13858000Y-9129000D02*
X13828000Y-9159000D01*
X13828000Y-9383000D02*
X13858000Y-9413000D01*
X13858000Y-9383000D02*
X13828000Y-9413000D01*
X13828000Y-9637000D02*
X13858000Y-9667000D01*
X13858000Y-9637000D02*
X13828000Y-9667000D01*
X13828000Y-9891000D02*
X13858000Y-9921000D01*
X13858000Y-9891000D02*
X13828000Y-9921000D01*
X13828000Y-10145000D02*
X13858000Y-10175000D01*
X13858000Y-10145000D02*
X13828000Y-10175000D01*
X13828000Y-10399000D02*
X13858000Y-10429000D01*
X13858000Y-10399000D02*
X13828000Y-10429000D01*
X13828000Y-10653000D02*
X13858000Y-10683000D01*
X13858000Y-10653000D02*
X13828000Y-10683000D01*
X13828000Y-10907000D02*
X13858000Y-10937000D01*
X13858000Y-10907000D02*
X13828000Y-10937000D01*
X13828000Y-11161000D02*
X13858000Y-11191000D01*
X13858000Y-11161000D02*
X13828000Y-11191000D01*
X13828000Y-11415000D02*
X13858000Y-11445000D01*
X13858000Y-11415000D02*
X13828000Y-11445000D01*
X13828000Y-11669000D02*
X13858000Y-11699000D01*
X13858000Y-11669000D02*
X13828000Y-11699000D01*
X13828000Y-11923000D02*
X13858000Y-11953000D01*
X13858000Y-11923000D02*
X13828000Y-11953000D01*
X13955000Y-8240000D02*
X13985000Y-8270000D01*
X13985000Y-8240000D02*
X13955000Y-8270000D01*
X14056600Y-9027400D02*
X14086600Y-9057400D01*
X14086600Y-9027400D02*
X14056600Y-9057400D01*
X14082000Y-8367000D02*
X14112000Y-8397000D01*
X14112000Y-8367000D02*
X14082000Y-8397000D01*
X14082000Y-9891000D02*
X14112000Y-9921000D01*
X14112000Y-9891000D02*
X14082000Y-9921000D01*
X14082000Y-10145000D02*
X14112000Y-10175000D01*
X14112000Y-10145000D02*
X14082000Y-10175000D01*
X14082000Y-10399000D02*
X14112000Y-10429000D01*
X14112000Y-10399000D02*
X14082000Y-10429000D01*
X14082000Y-10653000D02*
X14112000Y-10683000D01*
X14112000Y-10653000D02*
X14082000Y-10683000D01*
X14082000Y-10907000D02*
X14112000Y-10937000D01*
X14112000Y-10907000D02*
X14082000Y-10937000D01*
X14082000Y-11161000D02*
X14112000Y-11191000D01*
X14112000Y-11161000D02*
X14082000Y-11191000D01*
X14082000Y-11415000D02*
X14112000Y-11445000D01*
X14112000Y-11415000D02*
X14082000Y-11445000D01*
X14082000Y-11669000D02*
X14112000Y-11699000D01*
X14112000Y-11669000D02*
X14082000Y-11699000D01*
X14209000Y-8240000D02*
X14239000Y-8270000D01*
X14239000Y-8240000D02*
X14209000Y-8270000D01*
X14209000Y-12050000D02*
X14239000Y-12080000D01*
X14239000Y-12050000D02*
X14209000Y-12080000D01*
X14336000Y-10145000D02*
X14366000Y-10175000D01*
X14366000Y-10145000D02*
X14336000Y-10175000D01*
X14336000Y-10399000D02*
X14366000Y-10429000D01*
X14366000Y-10399000D02*
X14336000Y-10429000D01*
X14336000Y-10653000D02*
X14366000Y-10683000D01*
X14366000Y-10653000D02*
X14336000Y-10683000D01*
X14336000Y-10907000D02*
X14366000Y-10937000D01*
X14366000Y-10907000D02*
X14336000Y-10937000D01*
X14336000Y-11161000D02*
X14366000Y-11191000D01*
X14366000Y-11161000D02*
X14336000Y-11191000D01*
X14336000Y-11415000D02*
X14366000Y-11445000D01*
X14366000Y-11415000D02*
X14336000Y-11445000D01*
X14336000Y-11669000D02*
X14366000Y-11699000D01*
X14366000Y-11669000D02*
X14336000Y-11699000D01*
X14336000Y-11923000D02*
X14366000Y-11953000D01*
X14366000Y-11923000D02*
X14336000Y-11953000D01*
X14463000Y-8240000D02*
X14493000Y-8270000D01*
X14493000Y-8240000D02*
X14463000Y-8270000D01*
X14463000Y-12050000D02*
X14493000Y-12080000D01*
X14493000Y-12050000D02*
X14463000Y-12080000D01*
X14488400Y-8671800D02*
X14518400Y-8701800D01*
X14518400Y-8671800D02*
X14488400Y-8701800D01*
X14488400Y-8925800D02*
X14518400Y-8955800D01*
X14518400Y-8925800D02*
X14488400Y-8955800D01*
X14488400Y-9129000D02*
X14518400Y-9159000D01*
X14518400Y-9129000D02*
X14488400Y-9159000D01*
X14488400Y-9433800D02*
X14518400Y-9463800D01*
X14518400Y-9433800D02*
X14488400Y-9463800D01*
X14488400Y-9687800D02*
X14518400Y-9717800D01*
X14518400Y-9687800D02*
X14488400Y-9717800D01*
X14590000Y-10145000D02*
X14620000Y-10175000D01*
X14620000Y-10145000D02*
X14590000Y-10175000D01*
X14590000Y-10399000D02*
X14620000Y-10429000D01*
X14620000Y-10399000D02*
X14590000Y-10429000D01*
X14590000Y-10653000D02*
X14620000Y-10683000D01*
X14620000Y-10653000D02*
X14590000Y-10683000D01*
X14590000Y-10907000D02*
X14620000Y-10937000D01*
X14620000Y-10907000D02*
X14590000Y-10937000D01*
X14590000Y-11161000D02*
X14620000Y-11191000D01*
X14620000Y-11161000D02*
X14590000Y-11191000D01*
X14590000Y-11415000D02*
X14620000Y-11445000D01*
X14620000Y-11415000D02*
X14590000Y-11445000D01*
X14590000Y-11669000D02*
X14620000Y-11699000D01*
X14620000Y-11669000D02*
X14590000Y-11699000D01*
X14717000Y-8240000D02*
X14747000Y-8270000D01*
X14747000Y-8240000D02*
X14717000Y-8270000D01*
X14844000Y-8494000D02*
X14874000Y-8524000D01*
X14874000Y-8494000D02*
X14844000Y-8524000D01*
X14844000Y-8748000D02*
X14874000Y-8778000D01*
X14874000Y-8748000D02*
X14844000Y-8778000D01*
X14844000Y-9510000D02*
X14874000Y-9540000D01*
X14874000Y-9510000D02*
X14844000Y-9540000D01*
X14844000Y-9764000D02*
X14874000Y-9794000D01*
X14874000Y-9764000D02*
X14844000Y-9794000D01*
X14844000Y-10145000D02*
X14874000Y-10175000D01*
X14874000Y-10145000D02*
X14844000Y-10175000D01*
X14844000Y-10399000D02*
X14874000Y-10429000D01*
X14874000Y-10399000D02*
X14844000Y-10429000D01*
X14844000Y-10653000D02*
X14874000Y-10683000D01*
X14874000Y-10653000D02*
X14844000Y-10683000D01*
X14844000Y-10907000D02*
X14874000Y-10937000D01*
X14874000Y-10907000D02*
X14844000Y-10937000D01*
X14844000Y-11161000D02*
X14874000Y-11191000D01*
X14874000Y-11161000D02*
X14844000Y-11191000D01*
X14844000Y-11415000D02*
X14874000Y-11445000D01*
X14874000Y-11415000D02*
X14844000Y-11445000D01*
X14844000Y-11669000D02*
X14874000Y-11699000D01*
X14874000Y-11669000D02*
X14844000Y-11699000D01*
X14971000Y-8240000D02*
X15001000Y-8270000D01*
X15001000Y-8240000D02*
X14971000Y-8270000D01*
X15098000Y-8748000D02*
X15128000Y-8778000D01*
X15128000Y-8748000D02*
X15098000Y-8778000D01*
X15098000Y-9002000D02*
X15128000Y-9032000D01*
X15128000Y-9002000D02*
X15098000Y-9032000D01*
X15098000Y-9256000D02*
X15128000Y-9286000D01*
X15128000Y-9256000D02*
X15098000Y-9286000D01*
X15098000Y-9510000D02*
X15128000Y-9540000D01*
X15128000Y-9510000D02*
X15098000Y-9540000D01*
X15098000Y-9764000D02*
X15128000Y-9794000D01*
X15128000Y-9764000D02*
X15098000Y-9794000D01*
X15098000Y-10145000D02*
X15128000Y-10175000D01*
X15128000Y-10145000D02*
X15098000Y-10175000D01*
X15098000Y-10399000D02*
X15128000Y-10429000D01*
X15128000Y-10399000D02*
X15098000Y-10429000D01*
X15098000Y-10653000D02*
X15128000Y-10683000D01*
X15128000Y-10653000D02*
X15098000Y-10683000D01*
X15098000Y-10907000D02*
X15128000Y-10937000D01*
X15128000Y-10907000D02*
X15098000Y-10937000D01*
X15098000Y-11161000D02*
X15128000Y-11191000D01*
X15128000Y-11161000D02*
X15098000Y-11191000D01*
X15098000Y-11415000D02*
X15128000Y-11445000D01*
X15128000Y-11415000D02*
X15098000Y-11445000D01*
X15098000Y-12050000D02*
X15128000Y-12080000D01*
X15128000Y-12050000D02*
X15098000Y-12080000D01*
X15225000Y-8240000D02*
X15255000Y-8270000D01*
X15255000Y-8240000D02*
X15225000Y-8270000D01*
X15225000Y-8494000D02*
X15255000Y-8524000D01*
X15255000Y-8494000D02*
X15225000Y-8524000D01*
X15225000Y-11923000D02*
X15255000Y-11953000D01*
X15255000Y-11923000D02*
X15225000Y-11953000D01*
X15275800Y-9433800D02*
X15305800Y-9463800D01*
X15305800Y-9433800D02*
X15275800Y-9463800D01*
X15352000Y-8748000D02*
X15382000Y-8778000D01*
X15382000Y-8748000D02*
X15352000Y-8778000D01*
X15352000Y-9002000D02*
X15382000Y-9032000D01*
X15382000Y-9002000D02*
X15352000Y-9032000D01*
X15352000Y-9256000D02*
X15382000Y-9286000D01*
X15382000Y-9256000D02*
X15352000Y-9286000D01*
X15352000Y-9510000D02*
X15382000Y-9540000D01*
X15382000Y-9510000D02*
X15352000Y-9540000D01*
X15352000Y-12050000D02*
X15382000Y-12080000D01*
X15382000Y-12050000D02*
X15352000Y-12080000D01*
X15375000Y-9687800D02*
X15405000Y-9717800D01*
X15405000Y-9687800D02*
X15375000Y-9717800D01*
X15479000Y-8240000D02*
X15509000Y-8270000D01*
X15509000Y-8240000D02*
X15479000Y-8270000D01*
X15606000Y-8494000D02*
X15636000Y-8524000D01*
X15636000Y-8494000D02*
X15606000Y-8524000D01*
X15606000Y-8748000D02*
X15636000Y-8778000D01*
X15636000Y-8748000D02*
X15606000Y-8778000D01*
X15606000Y-9002000D02*
X15636000Y-9032000D01*
X15636000Y-9002000D02*
X15606000Y-9032000D01*
X15606000Y-9256000D02*
X15636000Y-9286000D01*
X15636000Y-9256000D02*
X15606000Y-9286000D01*
X15606000Y-9510000D02*
X15636000Y-9540000D01*
X15636000Y-9510000D02*
X15606000Y-9540000D01*
X15606000Y-9764000D02*
X15636000Y-9794000D01*
X15636000Y-9764000D02*
X15606000Y-9794000D01*
X15606000Y-10399000D02*
X15636000Y-10429000D01*
X15636000Y-10399000D02*
X15606000Y-10429000D01*
X15606000Y-10653000D02*
X15636000Y-10683000D01*
X15636000Y-10653000D02*
X15606000Y-10683000D01*
X15606000Y-10907000D02*
X15636000Y-10937000D01*
X15636000Y-10907000D02*
X15606000Y-10937000D01*
X15606000Y-11161000D02*
X15636000Y-11191000D01*
X15636000Y-11161000D02*
X15606000Y-11191000D01*
X15606000Y-11415000D02*
X15636000Y-11445000D01*
X15636000Y-11415000D02*
X15606000Y-11445000D01*
X15606000Y-11669000D02*
X15636000Y-11699000D01*
X15636000Y-11669000D02*
X15606000Y-11699000D01*
X15733000Y-8240000D02*
X15763000Y-8270000D01*
X15763000Y-8240000D02*
X15733000Y-8270000D01*
X15860000Y-8494000D02*
X15890000Y-8524000D01*
X15890000Y-8494000D02*
X15860000Y-8524000D01*
X15860000Y-8748000D02*
X15890000Y-8778000D01*
X15890000Y-8748000D02*
X15860000Y-8778000D01*
X15860000Y-9002000D02*
X15890000Y-9032000D01*
X15890000Y-9002000D02*
X15860000Y-9032000D01*
X15860000Y-9256000D02*
X15890000Y-9286000D01*
X15890000Y-9256000D02*
X15860000Y-9286000D01*
X15860000Y-9510000D02*
X15890000Y-9540000D01*
X15890000Y-9510000D02*
X15860000Y-9540000D01*
X15860000Y-9764000D02*
X15890000Y-9794000D01*
X15890000Y-9764000D02*
X15860000Y-9794000D01*
X15860000Y-10399000D02*
X15890000Y-10429000D01*
X15890000Y-10399000D02*
X15860000Y-10429000D01*
X15860000Y-10653000D02*
X15890000Y-10683000D01*
X15890000Y-10653000D02*
X15860000Y-10683000D01*
X15860000Y-10907000D02*
X15890000Y-10937000D01*
X15890000Y-10907000D02*
X15860000Y-10937000D01*
X15860000Y-11161000D02*
X15890000Y-11191000D01*
X15890000Y-11161000D02*
X15860000Y-11191000D01*
X15860000Y-11415000D02*
X15890000Y-11445000D01*
X15890000Y-11415000D02*
X15860000Y-11445000D01*
X15860000Y-11669000D02*
X15890000Y-11699000D01*
X15890000Y-11669000D02*
X15860000Y-11699000D01*
X15961600Y-9179800D02*
X15991600Y-9209800D01*
X15991600Y-9179800D02*
X15961600Y-9209800D01*
X15961600Y-9687800D02*
X15991600Y-9717800D01*
X15991600Y-9687800D02*
X15961600Y-9717800D01*
X15961600Y-9941800D02*
X15991600Y-9971800D01*
X15991600Y-9941800D02*
X15961600Y-9971800D01*
X15987000Y-8240000D02*
X16017000Y-8270000D01*
X16017000Y-8240000D02*
X15987000Y-8270000D01*
X15987000Y-12050000D02*
X16017000Y-12080000D01*
X16017000Y-12050000D02*
X15987000Y-12080000D01*
X16114000Y-10145000D02*
X16144000Y-10175000D01*
X16144000Y-10145000D02*
X16114000Y-10175000D01*
X16114000Y-10399000D02*
X16144000Y-10429000D01*
X16144000Y-10399000D02*
X16114000Y-10429000D01*
X16114000Y-10653000D02*
X16144000Y-10683000D01*
X16144000Y-10653000D02*
X16114000Y-10683000D01*
X16114000Y-10907000D02*
X16144000Y-10937000D01*
X16144000Y-10907000D02*
X16114000Y-10937000D01*
X16114000Y-11161000D02*
X16144000Y-11191000D01*
X16144000Y-11161000D02*
X16114000Y-11191000D01*
X16114000Y-11415000D02*
X16144000Y-11445000D01*
X16144000Y-11415000D02*
X16114000Y-11445000D01*
X16114000Y-11669000D02*
X16144000Y-11699000D01*
X16144000Y-11669000D02*
X16114000Y-11699000D01*
X16114000Y-11923000D02*
X16144000Y-11953000D01*
X16144000Y-11923000D02*
X16114000Y-11953000D01*
X16190200Y-9433800D02*
X16220200Y-9463800D01*
X16220200Y-9433800D02*
X16190200Y-9463800D01*
X16241000Y-8240000D02*
X16271000Y-8270000D01*
X16271000Y-8240000D02*
X16241000Y-8270000D01*
X16241000Y-12050000D02*
X16271000Y-12080000D01*
X16271000Y-12050000D02*
X16241000Y-12080000D01*
X16368000Y-10399000D02*
X16398000Y-10429000D01*
X16398000Y-10399000D02*
X16368000Y-10429000D01*
X16368000Y-10653000D02*
X16398000Y-10683000D01*
X16398000Y-10653000D02*
X16368000Y-10683000D01*
X16368000Y-10907000D02*
X16398000Y-10937000D01*
X16398000Y-10907000D02*
X16368000Y-10937000D01*
X16368000Y-11415000D02*
X16398000Y-11445000D01*
X16398000Y-11415000D02*
X16368000Y-11445000D01*
X16368000Y-11669000D02*
X16398000Y-11699000D01*
X16398000Y-11669000D02*
X16368000Y-11699000D01*
X16495000Y-8240000D02*
X16525000Y-8270000D01*
X16525000Y-8240000D02*
X16495000Y-8270000D01*
X16622000Y-8621000D02*
X16652000Y-8651000D01*
X16652000Y-8621000D02*
X16622000Y-8651000D01*
X16622000Y-8875000D02*
X16652000Y-8905000D01*
X16652000Y-8875000D02*
X16622000Y-8905000D01*
X16622000Y-9129000D02*
X16652000Y-9159000D01*
X16652000Y-9129000D02*
X16622000Y-9159000D01*
X16622000Y-9383000D02*
X16652000Y-9413000D01*
X16652000Y-9383000D02*
X16622000Y-9413000D01*
X16622000Y-9637000D02*
X16652000Y-9667000D01*
X16652000Y-9637000D02*
X16622000Y-9667000D01*
X16622000Y-9891000D02*
X16652000Y-9921000D01*
X16652000Y-9891000D02*
X16622000Y-9921000D01*
X16622000Y-10145000D02*
X16652000Y-10175000D01*
X16652000Y-10145000D02*
X16622000Y-10175000D01*
X16622000Y-10399000D02*
X16652000Y-10429000D01*
X16652000Y-10399000D02*
X16622000Y-10429000D01*
X16622000Y-10653000D02*
X16652000Y-10683000D01*
X16652000Y-10653000D02*
X16622000Y-10683000D01*
X16622000Y-10907000D02*
X16652000Y-10937000D01*
X16652000Y-10907000D02*
X16622000Y-10937000D01*
X16622000Y-11161000D02*
X16652000Y-11191000D01*
X16652000Y-11161000D02*
X16622000Y-11191000D01*
X16622000Y-11415000D02*
X16652000Y-11445000D01*
X16652000Y-11415000D02*
X16622000Y-11445000D01*
X16622000Y-11669000D02*
X16652000Y-11699000D01*
X16652000Y-11669000D02*
X16622000Y-11699000D01*
X16622000Y-11923000D02*
X16652000Y-11953000D01*
X16652000Y-11923000D02*
X16622000Y-11953000D01*
X16749000Y-8240000D02*
X16779000Y-8270000D01*
X16779000Y-8240000D02*
X16749000Y-8270000D01*
X16749000Y-12050000D02*
X16779000Y-12080000D01*
X16779000Y-12050000D02*
X16749000Y-12080000D01*
X16876000Y-8875000D02*
X16906000Y-8905000D01*
X16906000Y-8875000D02*
X16876000Y-8905000D01*
X16876000Y-9129000D02*
X16906000Y-9159000D01*
X16906000Y-9129000D02*
X16876000Y-9159000D01*
X16876000Y-9383000D02*
X16906000Y-9413000D01*
X16906000Y-9383000D02*
X16876000Y-9413000D01*
X16876000Y-9637000D02*
X16906000Y-9667000D01*
X16906000Y-9637000D02*
X16876000Y-9667000D01*
X16876000Y-9891000D02*
X16906000Y-9921000D01*
X16906000Y-9891000D02*
X16876000Y-9921000D01*
X16876000Y-10145000D02*
X16906000Y-10175000D01*
X16906000Y-10145000D02*
X16876000Y-10175000D01*
X16876000Y-10399000D02*
X16906000Y-10429000D01*
X16906000Y-10399000D02*
X16876000Y-10429000D01*
X16876000Y-10653000D02*
X16906000Y-10683000D01*
X16906000Y-10653000D02*
X16876000Y-10683000D01*
X16876000Y-10907000D02*
X16906000Y-10937000D01*
X16906000Y-10907000D02*
X16876000Y-10937000D01*
X16876000Y-11161000D02*
X16906000Y-11191000D01*
X16906000Y-11161000D02*
X16876000Y-11191000D01*
X16876000Y-11415000D02*
X16906000Y-11445000D01*
X16906000Y-11415000D02*
X16876000Y-11445000D01*
X17003000Y-8240000D02*
X17033000Y-8270000D01*
X17033000Y-8240000D02*
X17003000Y-8270000D01*
X17003000Y-12050000D02*
X17033000Y-12080000D01*
X17033000Y-12050000D02*
X17003000Y-12080000D01*
X17130000Y-8367000D02*
X17160000Y-8397000D01*
X17160000Y-8367000D02*
X17130000Y-8397000D01*
X17130000Y-8621000D02*
X17160000Y-8651000D01*
X17160000Y-8621000D02*
X17130000Y-8651000D01*
X17130000Y-8875000D02*
X17160000Y-8905000D01*
X17160000Y-8875000D02*
X17130000Y-8905000D01*
X17130000Y-9129000D02*
X17160000Y-9159000D01*
X17160000Y-9129000D02*
X17130000Y-9159000D01*
X17130000Y-9383000D02*
X17160000Y-9413000D01*
X17160000Y-9383000D02*
X17130000Y-9413000D01*
X17130000Y-9637000D02*
X17160000Y-9667000D01*
X17160000Y-9637000D02*
X17130000Y-9667000D01*
X17130000Y-9891000D02*
X17160000Y-9921000D01*
X17160000Y-9891000D02*
X17130000Y-9921000D01*
X17130000Y-10145000D02*
X17160000Y-10175000D01*
X17160000Y-10145000D02*
X17130000Y-10175000D01*
X17130000Y-10399000D02*
X17160000Y-10429000D01*
X17160000Y-10399000D02*
X17130000Y-10429000D01*
X17130000Y-10653000D02*
X17160000Y-10683000D01*
X17160000Y-10653000D02*
X17130000Y-10683000D01*
X17130000Y-10907000D02*
X17160000Y-10937000D01*
X17160000Y-10907000D02*
X17130000Y-10937000D01*
X17130000Y-11161000D02*
X17160000Y-11191000D01*
X17160000Y-11161000D02*
X17130000Y-11191000D01*
X17130000Y-11415000D02*
X17160000Y-11445000D01*
X17160000Y-11415000D02*
X17130000Y-11445000D01*
X17130000Y-11669000D02*
X17160000Y-11699000D01*
X17160000Y-11669000D02*
X17130000Y-11699000D01*
X17130000Y-11923000D02*
X17160000Y-11953000D01*
X17160000Y-11923000D02*
X17130000Y-11953000D01*
D13*
X14839950Y-9169400D02*
G75*
G03*
X14725650Y-9169400I-57150J0D01*
G01*
X14725650Y-9169400D02*
G75*
G03*
X14839950Y-9169400I57150J0D01*
G01*
D11*
X13468727Y-12503534D02*
X13468727Y-12303534D01*
X13468727Y-12303534D02*
X13516346Y-12303534D01*
X13516346Y-12303534D02*
X13544917Y-12313058D01*
X13544917Y-12313058D02*
X13563965Y-12332105D01*
X13563965Y-12332105D02*
X13573489Y-12351153D01*
X13573489Y-12351153D02*
X13583012Y-12389248D01*
X13583012Y-12389248D02*
X13583012Y-12417819D01*
X13583012Y-12417819D02*
X13573489Y-12455915D01*
X13573489Y-12455915D02*
X13563965Y-12474962D01*
X13563965Y-12474962D02*
X13544917Y-12494010D01*
X13544917Y-12494010D02*
X13516346Y-12503534D01*
X13516346Y-12503534D02*
X13468727Y-12503534D01*
X13668727Y-12503534D02*
X13668727Y-12370200D01*
X13668727Y-12408296D02*
X13678251Y-12389248D01*
X13678251Y-12389248D02*
X13687774Y-12379724D01*
X13687774Y-12379724D02*
X13706822Y-12370200D01*
X13706822Y-12370200D02*
X13725870Y-12370200D01*
X13792536Y-12503534D02*
X13792536Y-12370200D01*
X13792536Y-12303534D02*
X13783012Y-12313058D01*
X13783012Y-12313058D02*
X13792536Y-12322581D01*
X13792536Y-12322581D02*
X13802060Y-12313058D01*
X13802060Y-12313058D02*
X13792536Y-12303534D01*
X13792536Y-12303534D02*
X13792536Y-12322581D01*
X13916346Y-12503534D02*
X13897298Y-12494010D01*
X13897298Y-12494010D02*
X13887774Y-12474962D01*
X13887774Y-12474962D02*
X13887774Y-12303534D01*
X14021108Y-12503534D02*
X14002060Y-12494010D01*
X14002060Y-12494010D02*
X13992536Y-12474962D01*
X13992536Y-12474962D02*
X13992536Y-12303534D01*
X14249679Y-12503534D02*
X14249679Y-12303534D01*
X14249679Y-12303534D02*
X14316346Y-12446391D01*
X14316346Y-12446391D02*
X14383012Y-12303534D01*
X14383012Y-12303534D02*
X14383012Y-12503534D01*
X14563965Y-12503534D02*
X14563965Y-12398772D01*
X14563965Y-12398772D02*
X14554441Y-12379724D01*
X14554441Y-12379724D02*
X14535393Y-12370200D01*
X14535393Y-12370200D02*
X14497298Y-12370200D01*
X14497298Y-12370200D02*
X14478251Y-12379724D01*
X14563965Y-12494010D02*
X14544917Y-12503534D01*
X14544917Y-12503534D02*
X14497298Y-12503534D01*
X14497298Y-12503534D02*
X14478251Y-12494010D01*
X14478251Y-12494010D02*
X14468727Y-12474962D01*
X14468727Y-12474962D02*
X14468727Y-12455915D01*
X14468727Y-12455915D02*
X14478251Y-12436867D01*
X14478251Y-12436867D02*
X14497298Y-12427343D01*
X14497298Y-12427343D02*
X14544917Y-12427343D01*
X14544917Y-12427343D02*
X14563965Y-12417819D01*
X14659203Y-12370200D02*
X14659203Y-12570200D01*
X14659203Y-12379724D02*
X14678251Y-12370200D01*
X14678251Y-12370200D02*
X14716346Y-12370200D01*
X14716346Y-12370200D02*
X14735393Y-12379724D01*
X14735393Y-12379724D02*
X14744917Y-12389248D01*
X14744917Y-12389248D02*
X14754441Y-12408296D01*
X14754441Y-12408296D02*
X14754441Y-12465438D01*
X14754441Y-12465438D02*
X14744917Y-12484486D01*
X14744917Y-12484486D02*
X14735393Y-12494010D01*
X14735393Y-12494010D02*
X14716346Y-12503534D01*
X14716346Y-12503534D02*
X14678251Y-12503534D01*
X14678251Y-12503534D02*
X14659203Y-12494010D01*
X14840155Y-12484486D02*
X14849679Y-12494010D01*
X14849679Y-12494010D02*
X14840155Y-12503534D01*
X14840155Y-12503534D02*
X14830632Y-12494010D01*
X14830632Y-12494010D02*
X14840155Y-12484486D01*
X14840155Y-12484486D02*
X14840155Y-12503534D01*
X14840155Y-12379724D02*
X14849679Y-12389248D01*
X14849679Y-12389248D02*
X14840155Y-12398772D01*
X14840155Y-12398772D02*
X14830632Y-12389248D01*
X14830632Y-12389248D02*
X14840155Y-12379724D01*
X14840155Y-12379724D02*
X14840155Y-12398772D01*
D12*
X13177950Y-12817050D02*
X13207950Y-12847050D01*
X13207950Y-12817050D02*
X13177950Y-12847050D01*
D11*
X13506822Y-12723534D02*
X13525870Y-12723534D01*
X13525870Y-12723534D02*
X13544917Y-12733058D01*
X13544917Y-12733058D02*
X13554441Y-12742581D01*
X13554441Y-12742581D02*
X13563965Y-12761629D01*
X13563965Y-12761629D02*
X13573489Y-12799724D01*
X13573489Y-12799724D02*
X13573489Y-12847343D01*
X13573489Y-12847343D02*
X13563965Y-12885438D01*
X13563965Y-12885438D02*
X13554441Y-12904486D01*
X13554441Y-12904486D02*
X13544917Y-12914010D01*
X13544917Y-12914010D02*
X13525870Y-12923534D01*
X13525870Y-12923534D02*
X13506822Y-12923534D01*
X13506822Y-12923534D02*
X13487774Y-12914010D01*
X13487774Y-12914010D02*
X13478251Y-12904486D01*
X13478251Y-12904486D02*
X13468727Y-12885438D01*
X13468727Y-12885438D02*
X13459203Y-12847343D01*
X13459203Y-12847343D02*
X13459203Y-12799724D01*
X13459203Y-12799724D02*
X13468727Y-12761629D01*
X13468727Y-12761629D02*
X13478251Y-12742581D01*
X13478251Y-12742581D02*
X13487774Y-12733058D01*
X13487774Y-12733058D02*
X13506822Y-12723534D01*
X13659203Y-12904486D02*
X13668727Y-12914010D01*
X13668727Y-12914010D02*
X13659203Y-12923534D01*
X13659203Y-12923534D02*
X13649679Y-12914010D01*
X13649679Y-12914010D02*
X13659203Y-12904486D01*
X13659203Y-12904486D02*
X13659203Y-12923534D01*
X13735393Y-12723534D02*
X13859203Y-12723534D01*
X13859203Y-12723534D02*
X13792536Y-12799724D01*
X13792536Y-12799724D02*
X13821108Y-12799724D01*
X13821108Y-12799724D02*
X13840155Y-12809248D01*
X13840155Y-12809248D02*
X13849679Y-12818772D01*
X13849679Y-12818772D02*
X13859203Y-12837819D01*
X13859203Y-12837819D02*
X13859203Y-12885438D01*
X13859203Y-12885438D02*
X13849679Y-12904486D01*
X13849679Y-12904486D02*
X13840155Y-12914010D01*
X13840155Y-12914010D02*
X13821108Y-12923534D01*
X13821108Y-12923534D02*
X13763965Y-12923534D01*
X13763965Y-12923534D02*
X13744917Y-12914010D01*
X13744917Y-12914010D02*
X13735393Y-12904486D01*
X13983012Y-12723534D02*
X14002060Y-12723534D01*
X14002060Y-12723534D02*
X14021108Y-12733058D01*
X14021108Y-12733058D02*
X14030632Y-12742581D01*
X14030632Y-12742581D02*
X14040155Y-12761629D01*
X14040155Y-12761629D02*
X14049679Y-12799724D01*
X14049679Y-12799724D02*
X14049679Y-12847343D01*
X14049679Y-12847343D02*
X14040155Y-12885438D01*
X14040155Y-12885438D02*
X14030632Y-12904486D01*
X14030632Y-12904486D02*
X14021108Y-12914010D01*
X14021108Y-12914010D02*
X14002060Y-12923534D01*
X14002060Y-12923534D02*
X13983012Y-12923534D01*
X13983012Y-12923534D02*
X13963965Y-12914010D01*
X13963965Y-12914010D02*
X13954441Y-12904486D01*
X13954441Y-12904486D02*
X13944917Y-12885438D01*
X13944917Y-12885438D02*
X13935393Y-12847343D01*
X13935393Y-12847343D02*
X13935393Y-12799724D01*
X13935393Y-12799724D02*
X13944917Y-12761629D01*
X13944917Y-12761629D02*
X13954441Y-12742581D01*
X13954441Y-12742581D02*
X13963965Y-12733058D01*
X13963965Y-12733058D02*
X13983012Y-12723534D01*
X14173489Y-12723534D02*
X14192536Y-12723534D01*
X14192536Y-12723534D02*
X14211584Y-12733058D01*
X14211584Y-12733058D02*
X14221108Y-12742581D01*
X14221108Y-12742581D02*
X14230632Y-12761629D01*
X14230632Y-12761629D02*
X14240155Y-12799724D01*
X14240155Y-12799724D02*
X14240155Y-12847343D01*
X14240155Y-12847343D02*
X14230632Y-12885438D01*
X14230632Y-12885438D02*
X14221108Y-12904486D01*
X14221108Y-12904486D02*
X14211584Y-12914010D01*
X14211584Y-12914010D02*
X14192536Y-12923534D01*
X14192536Y-12923534D02*
X14173489Y-12923534D01*
X14173489Y-12923534D02*
X14154441Y-12914010D01*
X14154441Y-12914010D02*
X14144917Y-12904486D01*
X14144917Y-12904486D02*
X14135393Y-12885438D01*
X14135393Y-12885438D02*
X14125870Y-12847343D01*
X14125870Y-12847343D02*
X14125870Y-12799724D01*
X14125870Y-12799724D02*
X14135393Y-12761629D01*
X14135393Y-12761629D02*
X14144917Y-12742581D01*
X14144917Y-12742581D02*
X14154441Y-12733058D01*
X14154441Y-12733058D02*
X14173489Y-12723534D01*
X14325870Y-12923534D02*
X14325870Y-12790200D01*
X14325870Y-12809248D02*
X14335393Y-12799724D01*
X14335393Y-12799724D02*
X14354441Y-12790200D01*
X14354441Y-12790200D02*
X14383013Y-12790200D01*
X14383013Y-12790200D02*
X14402060Y-12799724D01*
X14402060Y-12799724D02*
X14411584Y-12818772D01*
X14411584Y-12818772D02*
X14411584Y-12923534D01*
X14411584Y-12818772D02*
X14421108Y-12799724D01*
X14421108Y-12799724D02*
X14440155Y-12790200D01*
X14440155Y-12790200D02*
X14468727Y-12790200D01*
X14468727Y-12790200D02*
X14487774Y-12799724D01*
X14487774Y-12799724D02*
X14497298Y-12818772D01*
X14497298Y-12818772D02*
X14497298Y-12923534D01*
X14592536Y-12923534D02*
X14592536Y-12790200D01*
X14592536Y-12809248D02*
X14602060Y-12799724D01*
X14602060Y-12799724D02*
X14621108Y-12790200D01*
X14621108Y-12790200D02*
X14649679Y-12790200D01*
X14649679Y-12790200D02*
X14668727Y-12799724D01*
X14668727Y-12799724D02*
X14678251Y-12818772D01*
X14678251Y-12818772D02*
X14678251Y-12923534D01*
X14678251Y-12818772D02*
X14687774Y-12799724D01*
X14687774Y-12799724D02*
X14706822Y-12790200D01*
X14706822Y-12790200D02*
X14735393Y-12790200D01*
X14735393Y-12790200D02*
X14754441Y-12799724D01*
X14754441Y-12799724D02*
X14763965Y-12818772D01*
X14763965Y-12818772D02*
X14763965Y-12923534D01*
X15154441Y-12714010D02*
X14983013Y-12971153D01*
X15411584Y-12723534D02*
X15430632Y-12723534D01*
X15430632Y-12723534D02*
X15449679Y-12733058D01*
X15449679Y-12733058D02*
X15459203Y-12742581D01*
X15459203Y-12742581D02*
X15468727Y-12761629D01*
X15468727Y-12761629D02*
X15478251Y-12799724D01*
X15478251Y-12799724D02*
X15478251Y-12847343D01*
X15478251Y-12847343D02*
X15468727Y-12885438D01*
X15468727Y-12885438D02*
X15459203Y-12904486D01*
X15459203Y-12904486D02*
X15449679Y-12914010D01*
X15449679Y-12914010D02*
X15430632Y-12923534D01*
X15430632Y-12923534D02*
X15411584Y-12923534D01*
X15411584Y-12923534D02*
X15392536Y-12914010D01*
X15392536Y-12914010D02*
X15383013Y-12904486D01*
X15383013Y-12904486D02*
X15373489Y-12885438D01*
X15373489Y-12885438D02*
X15363965Y-12847343D01*
X15363965Y-12847343D02*
X15363965Y-12799724D01*
X15363965Y-12799724D02*
X15373489Y-12761629D01*
X15373489Y-12761629D02*
X15383013Y-12742581D01*
X15383013Y-12742581D02*
X15392536Y-12733058D01*
X15392536Y-12733058D02*
X15411584Y-12723534D01*
X15563965Y-12904486D02*
X15573489Y-12914010D01*
X15573489Y-12914010D02*
X15563965Y-12923534D01*
X15563965Y-12923534D02*
X15554441Y-12914010D01*
X15554441Y-12914010D02*
X15563965Y-12904486D01*
X15563965Y-12904486D02*
X15563965Y-12923534D01*
X15697298Y-12723534D02*
X15716346Y-12723534D01*
X15716346Y-12723534D02*
X15735394Y-12733058D01*
X15735394Y-12733058D02*
X15744917Y-12742581D01*
X15744917Y-12742581D02*
X15754441Y-12761629D01*
X15754441Y-12761629D02*
X15763965Y-12799724D01*
X15763965Y-12799724D02*
X15763965Y-12847343D01*
X15763965Y-12847343D02*
X15754441Y-12885438D01*
X15754441Y-12885438D02*
X15744917Y-12904486D01*
X15744917Y-12904486D02*
X15735394Y-12914010D01*
X15735394Y-12914010D02*
X15716346Y-12923534D01*
X15716346Y-12923534D02*
X15697298Y-12923534D01*
X15697298Y-12923534D02*
X15678251Y-12914010D01*
X15678251Y-12914010D02*
X15668727Y-12904486D01*
X15668727Y-12904486D02*
X15659203Y-12885438D01*
X15659203Y-12885438D02*
X15649679Y-12847343D01*
X15649679Y-12847343D02*
X15649679Y-12799724D01*
X15649679Y-12799724D02*
X15659203Y-12761629D01*
X15659203Y-12761629D02*
X15668727Y-12742581D01*
X15668727Y-12742581D02*
X15678251Y-12733058D01*
X15678251Y-12733058D02*
X15697298Y-12723534D01*
X15954441Y-12923534D02*
X15840156Y-12923534D01*
X15897298Y-12923534D02*
X15897298Y-12723534D01*
X15897298Y-12723534D02*
X15878251Y-12752105D01*
X15878251Y-12752105D02*
X15859203Y-12771153D01*
X15859203Y-12771153D02*
X15840156Y-12780677D01*
X16144917Y-12923534D02*
X16030632Y-12923534D01*
X16087775Y-12923534D02*
X16087775Y-12723534D01*
X16087775Y-12723534D02*
X16068727Y-12752105D01*
X16068727Y-12752105D02*
X16049679Y-12771153D01*
X16049679Y-12771153D02*
X16030632Y-12780677D01*
X16259203Y-12809248D02*
X16240156Y-12799724D01*
X16240156Y-12799724D02*
X16230632Y-12790200D01*
X16230632Y-12790200D02*
X16221108Y-12771153D01*
X16221108Y-12771153D02*
X16221108Y-12761629D01*
X16221108Y-12761629D02*
X16230632Y-12742581D01*
X16230632Y-12742581D02*
X16240156Y-12733058D01*
X16240156Y-12733058D02*
X16259203Y-12723534D01*
X16259203Y-12723534D02*
X16297298Y-12723534D01*
X16297298Y-12723534D02*
X16316346Y-12733058D01*
X16316346Y-12733058D02*
X16325870Y-12742581D01*
X16325870Y-12742581D02*
X16335394Y-12761629D01*
X16335394Y-12761629D02*
X16335394Y-12771153D01*
X16335394Y-12771153D02*
X16325870Y-12790200D01*
X16325870Y-12790200D02*
X16316346Y-12799724D01*
X16316346Y-12799724D02*
X16297298Y-12809248D01*
X16297298Y-12809248D02*
X16259203Y-12809248D01*
X16259203Y-12809248D02*
X16240156Y-12818772D01*
X16240156Y-12818772D02*
X16230632Y-12828296D01*
X16230632Y-12828296D02*
X16221108Y-12847343D01*
X16221108Y-12847343D02*
X16221108Y-12885438D01*
X16221108Y-12885438D02*
X16230632Y-12904486D01*
X16230632Y-12904486D02*
X16240156Y-12914010D01*
X16240156Y-12914010D02*
X16259203Y-12923534D01*
X16259203Y-12923534D02*
X16297298Y-12923534D01*
X16297298Y-12923534D02*
X16316346Y-12914010D01*
X16316346Y-12914010D02*
X16325870Y-12904486D01*
X16325870Y-12904486D02*
X16335394Y-12885438D01*
X16335394Y-12885438D02*
X16335394Y-12847343D01*
X16335394Y-12847343D02*
X16325870Y-12828296D01*
X16325870Y-12828296D02*
X16316346Y-12818772D01*
X16316346Y-12818772D02*
X16297298Y-12809248D01*
X16411584Y-12723534D02*
X16411584Y-12761629D01*
X16487775Y-12723534D02*
X16487775Y-12761629D01*
X16783013Y-12999724D02*
X16773489Y-12990200D01*
X16773489Y-12990200D02*
X16754441Y-12961629D01*
X16754441Y-12961629D02*
X16744918Y-12942581D01*
X16744918Y-12942581D02*
X16735394Y-12914010D01*
X16735394Y-12914010D02*
X16725870Y-12866391D01*
X16725870Y-12866391D02*
X16725870Y-12828296D01*
X16725870Y-12828296D02*
X16735394Y-12780677D01*
X16735394Y-12780677D02*
X16744918Y-12752105D01*
X16744918Y-12752105D02*
X16754441Y-12733058D01*
X16754441Y-12733058D02*
X16773489Y-12704486D01*
X16773489Y-12704486D02*
X16783013Y-12694962D01*
X16849680Y-12742581D02*
X16859203Y-12733058D01*
X16859203Y-12733058D02*
X16878251Y-12723534D01*
X16878251Y-12723534D02*
X16925870Y-12723534D01*
X16925870Y-12723534D02*
X16944918Y-12733058D01*
X16944918Y-12733058D02*
X16954441Y-12742581D01*
X16954441Y-12742581D02*
X16963965Y-12761629D01*
X16963965Y-12761629D02*
X16963965Y-12780677D01*
X16963965Y-12780677D02*
X16954441Y-12809248D01*
X16954441Y-12809248D02*
X16840156Y-12923534D01*
X16840156Y-12923534D02*
X16963965Y-12923534D01*
X17087775Y-12723534D02*
X17106822Y-12723534D01*
X17106822Y-12723534D02*
X17125870Y-12733058D01*
X17125870Y-12733058D02*
X17135394Y-12742581D01*
X17135394Y-12742581D02*
X17144918Y-12761629D01*
X17144918Y-12761629D02*
X17154441Y-12799724D01*
X17154441Y-12799724D02*
X17154441Y-12847343D01*
X17154441Y-12847343D02*
X17144918Y-12885438D01*
X17144918Y-12885438D02*
X17135394Y-12904486D01*
X17135394Y-12904486D02*
X17125870Y-12914010D01*
X17125870Y-12914010D02*
X17106822Y-12923534D01*
X17106822Y-12923534D02*
X17087775Y-12923534D01*
X17087775Y-12923534D02*
X17068727Y-12914010D01*
X17068727Y-12914010D02*
X17059203Y-12904486D01*
X17059203Y-12904486D02*
X17049680Y-12885438D01*
X17049680Y-12885438D02*
X17040156Y-12847343D01*
X17040156Y-12847343D02*
X17040156Y-12799724D01*
X17040156Y-12799724D02*
X17049680Y-12761629D01*
X17049680Y-12761629D02*
X17059203Y-12742581D01*
X17059203Y-12742581D02*
X17068727Y-12733058D01*
X17068727Y-12733058D02*
X17087775Y-12723534D01*
X17221108Y-12723534D02*
X17354441Y-12723534D01*
X17354441Y-12723534D02*
X17268727Y-12923534D01*
X17583013Y-12923534D02*
X17583013Y-12723534D01*
X17668727Y-12923534D02*
X17668727Y-12818772D01*
X17668727Y-12818772D02*
X17659203Y-12799724D01*
X17659203Y-12799724D02*
X17640156Y-12790200D01*
X17640156Y-12790200D02*
X17611584Y-12790200D01*
X17611584Y-12790200D02*
X17592537Y-12799724D01*
X17592537Y-12799724D02*
X17583013Y-12809248D01*
X17792537Y-12923534D02*
X17773489Y-12914010D01*
X17773489Y-12914010D02*
X17763965Y-12904486D01*
X17763965Y-12904486D02*
X17754442Y-12885438D01*
X17754442Y-12885438D02*
X17754442Y-12828296D01*
X17754442Y-12828296D02*
X17763965Y-12809248D01*
X17763965Y-12809248D02*
X17773489Y-12799724D01*
X17773489Y-12799724D02*
X17792537Y-12790200D01*
X17792537Y-12790200D02*
X17821108Y-12790200D01*
X17821108Y-12790200D02*
X17840156Y-12799724D01*
X17840156Y-12799724D02*
X17849680Y-12809248D01*
X17849680Y-12809248D02*
X17859203Y-12828296D01*
X17859203Y-12828296D02*
X17859203Y-12885438D01*
X17859203Y-12885438D02*
X17849680Y-12904486D01*
X17849680Y-12904486D02*
X17840156Y-12914010D01*
X17840156Y-12914010D02*
X17821108Y-12923534D01*
X17821108Y-12923534D02*
X17792537Y-12923534D01*
X17973489Y-12923534D02*
X17954442Y-12914010D01*
X17954442Y-12914010D02*
X17944918Y-12894962D01*
X17944918Y-12894962D02*
X17944918Y-12723534D01*
X18125870Y-12914010D02*
X18106823Y-12923534D01*
X18106823Y-12923534D02*
X18068727Y-12923534D01*
X18068727Y-12923534D02*
X18049680Y-12914010D01*
X18049680Y-12914010D02*
X18040156Y-12894962D01*
X18040156Y-12894962D02*
X18040156Y-12818772D01*
X18040156Y-12818772D02*
X18049680Y-12799724D01*
X18049680Y-12799724D02*
X18068727Y-12790200D01*
X18068727Y-12790200D02*
X18106823Y-12790200D01*
X18106823Y-12790200D02*
X18125870Y-12799724D01*
X18125870Y-12799724D02*
X18135394Y-12818772D01*
X18135394Y-12818772D02*
X18135394Y-12837819D01*
X18135394Y-12837819D02*
X18040156Y-12856867D01*
X18211584Y-12914010D02*
X18230632Y-12923534D01*
X18230632Y-12923534D02*
X18268727Y-12923534D01*
X18268727Y-12923534D02*
X18287775Y-12914010D01*
X18287775Y-12914010D02*
X18297299Y-12894962D01*
X18297299Y-12894962D02*
X18297299Y-12885438D01*
X18297299Y-12885438D02*
X18287775Y-12866391D01*
X18287775Y-12866391D02*
X18268727Y-12856867D01*
X18268727Y-12856867D02*
X18240156Y-12856867D01*
X18240156Y-12856867D02*
X18221108Y-12847343D01*
X18221108Y-12847343D02*
X18211584Y-12828296D01*
X18211584Y-12828296D02*
X18211584Y-12818772D01*
X18211584Y-12818772D02*
X18221108Y-12799724D01*
X18221108Y-12799724D02*
X18240156Y-12790200D01*
X18240156Y-12790200D02*
X18268727Y-12790200D01*
X18268727Y-12790200D02*
X18287775Y-12799724D01*
X18363965Y-12999724D02*
X18373489Y-12990200D01*
X18373489Y-12990200D02*
X18392537Y-12961629D01*
X18392537Y-12961629D02*
X18402061Y-12942581D01*
X18402061Y-12942581D02*
X18411584Y-12914010D01*
X18411584Y-12914010D02*
X18421108Y-12866391D01*
X18421108Y-12866391D02*
X18421108Y-12828296D01*
X18421108Y-12828296D02*
X18411584Y-12780677D01*
X18411584Y-12780677D02*
X18402061Y-12752105D01*
X18402061Y-12752105D02*
X18392537Y-12733058D01*
X18392537Y-12733058D02*
X18373489Y-12704486D01*
X18373489Y-12704486D02*
X18363965Y-12694962D01*
D13*
X13207950Y-13096050D02*
G75*
G03*
X13093650Y-13096050I-57150J0D01*
G01*
X13093650Y-13096050D02*
G75*
G03*
X13207950Y-13096050I57150J0D01*
G01*
D11*
X13573489Y-13187534D02*
X13459203Y-13187534D01*
X13516346Y-13187534D02*
X13516346Y-12987534D01*
X13516346Y-12987534D02*
X13497298Y-13016105D01*
X13497298Y-13016105D02*
X13478251Y-13035153D01*
X13478251Y-13035153D02*
X13459203Y-13044677D01*
X13659203Y-13168486D02*
X13668727Y-13178010D01*
X13668727Y-13178010D02*
X13659203Y-13187534D01*
X13659203Y-13187534D02*
X13649679Y-13178010D01*
X13649679Y-13178010D02*
X13659203Y-13168486D01*
X13659203Y-13168486D02*
X13659203Y-13187534D01*
X13859203Y-13187534D02*
X13744917Y-13187534D01*
X13802060Y-13187534D02*
X13802060Y-12987534D01*
X13802060Y-12987534D02*
X13783012Y-13016105D01*
X13783012Y-13016105D02*
X13763965Y-13035153D01*
X13763965Y-13035153D02*
X13744917Y-13044677D01*
X14030632Y-13054200D02*
X14030632Y-13187534D01*
X13983012Y-12978010D02*
X13935393Y-13120867D01*
X13935393Y-13120867D02*
X14059203Y-13120867D01*
X14116346Y-12987534D02*
X14240155Y-12987534D01*
X14240155Y-12987534D02*
X14173489Y-13063724D01*
X14173489Y-13063724D02*
X14202060Y-13063724D01*
X14202060Y-13063724D02*
X14221108Y-13073248D01*
X14221108Y-13073248D02*
X14230632Y-13082772D01*
X14230632Y-13082772D02*
X14240155Y-13101819D01*
X14240155Y-13101819D02*
X14240155Y-13149438D01*
X14240155Y-13149438D02*
X14230632Y-13168486D01*
X14230632Y-13168486D02*
X14221108Y-13178010D01*
X14221108Y-13178010D02*
X14202060Y-13187534D01*
X14202060Y-13187534D02*
X14144917Y-13187534D01*
X14144917Y-13187534D02*
X14125870Y-13178010D01*
X14125870Y-13178010D02*
X14116346Y-13168486D01*
X14325870Y-13187534D02*
X14325870Y-13054200D01*
X14325870Y-13073248D02*
X14335393Y-13063724D01*
X14335393Y-13063724D02*
X14354441Y-13054200D01*
X14354441Y-13054200D02*
X14383013Y-13054200D01*
X14383013Y-13054200D02*
X14402060Y-13063724D01*
X14402060Y-13063724D02*
X14411584Y-13082772D01*
X14411584Y-13082772D02*
X14411584Y-13187534D01*
X14411584Y-13082772D02*
X14421108Y-13063724D01*
X14421108Y-13063724D02*
X14440155Y-13054200D01*
X14440155Y-13054200D02*
X14468727Y-13054200D01*
X14468727Y-13054200D02*
X14487774Y-13063724D01*
X14487774Y-13063724D02*
X14497298Y-13082772D01*
X14497298Y-13082772D02*
X14497298Y-13187534D01*
X14592536Y-13187534D02*
X14592536Y-13054200D01*
X14592536Y-13073248D02*
X14602060Y-13063724D01*
X14602060Y-13063724D02*
X14621108Y-13054200D01*
X14621108Y-13054200D02*
X14649679Y-13054200D01*
X14649679Y-13054200D02*
X14668727Y-13063724D01*
X14668727Y-13063724D02*
X14678251Y-13082772D01*
X14678251Y-13082772D02*
X14678251Y-13187534D01*
X14678251Y-13082772D02*
X14687774Y-13063724D01*
X14687774Y-13063724D02*
X14706822Y-13054200D01*
X14706822Y-13054200D02*
X14735393Y-13054200D01*
X14735393Y-13054200D02*
X14754441Y-13063724D01*
X14754441Y-13063724D02*
X14763965Y-13082772D01*
X14763965Y-13082772D02*
X14763965Y-13187534D01*
X15154441Y-12978010D02*
X14983013Y-13235153D01*
X15411584Y-12987534D02*
X15430632Y-12987534D01*
X15430632Y-12987534D02*
X15449679Y-12997058D01*
X15449679Y-12997058D02*
X15459203Y-13006581D01*
X15459203Y-13006581D02*
X15468727Y-13025629D01*
X15468727Y-13025629D02*
X15478251Y-13063724D01*
X15478251Y-13063724D02*
X15478251Y-13111343D01*
X15478251Y-13111343D02*
X15468727Y-13149438D01*
X15468727Y-13149438D02*
X15459203Y-13168486D01*
X15459203Y-13168486D02*
X15449679Y-13178010D01*
X15449679Y-13178010D02*
X15430632Y-13187534D01*
X15430632Y-13187534D02*
X15411584Y-13187534D01*
X15411584Y-13187534D02*
X15392536Y-13178010D01*
X15392536Y-13178010D02*
X15383013Y-13168486D01*
X15383013Y-13168486D02*
X15373489Y-13149438D01*
X15373489Y-13149438D02*
X15363965Y-13111343D01*
X15363965Y-13111343D02*
X15363965Y-13063724D01*
X15363965Y-13063724D02*
X15373489Y-13025629D01*
X15373489Y-13025629D02*
X15383013Y-13006581D01*
X15383013Y-13006581D02*
X15392536Y-12997058D01*
X15392536Y-12997058D02*
X15411584Y-12987534D01*
X15563965Y-13168486D02*
X15573489Y-13178010D01*
X15573489Y-13178010D02*
X15563965Y-13187534D01*
X15563965Y-13187534D02*
X15554441Y-13178010D01*
X15554441Y-13178010D02*
X15563965Y-13168486D01*
X15563965Y-13168486D02*
X15563965Y-13187534D01*
X15697298Y-12987534D02*
X15716346Y-12987534D01*
X15716346Y-12987534D02*
X15735394Y-12997058D01*
X15735394Y-12997058D02*
X15744917Y-13006581D01*
X15744917Y-13006581D02*
X15754441Y-13025629D01*
X15754441Y-13025629D02*
X15763965Y-13063724D01*
X15763965Y-13063724D02*
X15763965Y-13111343D01*
X15763965Y-13111343D02*
X15754441Y-13149438D01*
X15754441Y-13149438D02*
X15744917Y-13168486D01*
X15744917Y-13168486D02*
X15735394Y-13178010D01*
X15735394Y-13178010D02*
X15716346Y-13187534D01*
X15716346Y-13187534D02*
X15697298Y-13187534D01*
X15697298Y-13187534D02*
X15678251Y-13178010D01*
X15678251Y-13178010D02*
X15668727Y-13168486D01*
X15668727Y-13168486D02*
X15659203Y-13149438D01*
X15659203Y-13149438D02*
X15649679Y-13111343D01*
X15649679Y-13111343D02*
X15649679Y-13063724D01*
X15649679Y-13063724D02*
X15659203Y-13025629D01*
X15659203Y-13025629D02*
X15668727Y-13006581D01*
X15668727Y-13006581D02*
X15678251Y-12997058D01*
X15678251Y-12997058D02*
X15697298Y-12987534D01*
X15935394Y-13054200D02*
X15935394Y-13187534D01*
X15887775Y-12978010D02*
X15840156Y-13120867D01*
X15840156Y-13120867D02*
X15963965Y-13120867D01*
X16135394Y-12987534D02*
X16040156Y-12987534D01*
X16040156Y-12987534D02*
X16030632Y-13082772D01*
X16030632Y-13082772D02*
X16040156Y-13073248D01*
X16040156Y-13073248D02*
X16059203Y-13063724D01*
X16059203Y-13063724D02*
X16106822Y-13063724D01*
X16106822Y-13063724D02*
X16125870Y-13073248D01*
X16125870Y-13073248D02*
X16135394Y-13082772D01*
X16135394Y-13082772D02*
X16144917Y-13101819D01*
X16144917Y-13101819D02*
X16144917Y-13149438D01*
X16144917Y-13149438D02*
X16135394Y-13168486D01*
X16135394Y-13168486D02*
X16125870Y-13178010D01*
X16125870Y-13178010D02*
X16106822Y-13187534D01*
X16106822Y-13187534D02*
X16059203Y-13187534D01*
X16059203Y-13187534D02*
X16040156Y-13178010D01*
X16040156Y-13178010D02*
X16030632Y-13168486D01*
X16268727Y-12987534D02*
X16287775Y-12987534D01*
X16287775Y-12987534D02*
X16306822Y-12997058D01*
X16306822Y-12997058D02*
X16316346Y-13006581D01*
X16316346Y-13006581D02*
X16325870Y-13025629D01*
X16325870Y-13025629D02*
X16335394Y-13063724D01*
X16335394Y-13063724D02*
X16335394Y-13111343D01*
X16335394Y-13111343D02*
X16325870Y-13149438D01*
X16325870Y-13149438D02*
X16316346Y-13168486D01*
X16316346Y-13168486D02*
X16306822Y-13178010D01*
X16306822Y-13178010D02*
X16287775Y-13187534D01*
X16287775Y-13187534D02*
X16268727Y-13187534D01*
X16268727Y-13187534D02*
X16249679Y-13178010D01*
X16249679Y-13178010D02*
X16240156Y-13168486D01*
X16240156Y-13168486D02*
X16230632Y-13149438D01*
X16230632Y-13149438D02*
X16221108Y-13111343D01*
X16221108Y-13111343D02*
X16221108Y-13063724D01*
X16221108Y-13063724D02*
X16230632Y-13025629D01*
X16230632Y-13025629D02*
X16240156Y-13006581D01*
X16240156Y-13006581D02*
X16249679Y-12997058D01*
X16249679Y-12997058D02*
X16268727Y-12987534D01*
X16411584Y-12987534D02*
X16411584Y-13025629D01*
X16487775Y-12987534D02*
X16487775Y-13025629D01*
X16783013Y-13263724D02*
X16773489Y-13254200D01*
X16773489Y-13254200D02*
X16754441Y-13225629D01*
X16754441Y-13225629D02*
X16744918Y-13206581D01*
X16744918Y-13206581D02*
X16735394Y-13178010D01*
X16735394Y-13178010D02*
X16725870Y-13130391D01*
X16725870Y-13130391D02*
X16725870Y-13092296D01*
X16725870Y-13092296D02*
X16735394Y-13044677D01*
X16735394Y-13044677D02*
X16744918Y-13016105D01*
X16744918Y-13016105D02*
X16754441Y-12997058D01*
X16754441Y-12997058D02*
X16773489Y-12968486D01*
X16773489Y-12968486D02*
X16783013Y-12958962D01*
X16963965Y-13187534D02*
X16849680Y-13187534D01*
X16906822Y-13187534D02*
X16906822Y-12987534D01*
X16906822Y-12987534D02*
X16887775Y-13016105D01*
X16887775Y-13016105D02*
X16868727Y-13035153D01*
X16868727Y-13035153D02*
X16849680Y-13044677D01*
X17202061Y-13187534D02*
X17202061Y-12987534D01*
X17287775Y-13187534D02*
X17287775Y-13082772D01*
X17287775Y-13082772D02*
X17278251Y-13063724D01*
X17278251Y-13063724D02*
X17259203Y-13054200D01*
X17259203Y-13054200D02*
X17230632Y-13054200D01*
X17230632Y-13054200D02*
X17211584Y-13063724D01*
X17211584Y-13063724D02*
X17202061Y-13073248D01*
X17411584Y-13187534D02*
X17392537Y-13178010D01*
X17392537Y-13178010D02*
X17383013Y-13168486D01*
X17383013Y-13168486D02*
X17373489Y-13149438D01*
X17373489Y-13149438D02*
X17373489Y-13092296D01*
X17373489Y-13092296D02*
X17383013Y-13073248D01*
X17383013Y-13073248D02*
X17392537Y-13063724D01*
X17392537Y-13063724D02*
X17411584Y-13054200D01*
X17411584Y-13054200D02*
X17440156Y-13054200D01*
X17440156Y-13054200D02*
X17459203Y-13063724D01*
X17459203Y-13063724D02*
X17468727Y-13073248D01*
X17468727Y-13073248D02*
X17478251Y-13092296D01*
X17478251Y-13092296D02*
X17478251Y-13149438D01*
X17478251Y-13149438D02*
X17468727Y-13168486D01*
X17468727Y-13168486D02*
X17459203Y-13178010D01*
X17459203Y-13178010D02*
X17440156Y-13187534D01*
X17440156Y-13187534D02*
X17411584Y-13187534D01*
X17592537Y-13187534D02*
X17573489Y-13178010D01*
X17573489Y-13178010D02*
X17563965Y-13158962D01*
X17563965Y-13158962D02*
X17563965Y-12987534D01*
X17744918Y-13178010D02*
X17725870Y-13187534D01*
X17725870Y-13187534D02*
X17687775Y-13187534D01*
X17687775Y-13187534D02*
X17668727Y-13178010D01*
X17668727Y-13178010D02*
X17659203Y-13158962D01*
X17659203Y-13158962D02*
X17659203Y-13082772D01*
X17659203Y-13082772D02*
X17668727Y-13063724D01*
X17668727Y-13063724D02*
X17687775Y-13054200D01*
X17687775Y-13054200D02*
X17725870Y-13054200D01*
X17725870Y-13054200D02*
X17744918Y-13063724D01*
X17744918Y-13063724D02*
X17754442Y-13082772D01*
X17754442Y-13082772D02*
X17754442Y-13101819D01*
X17754442Y-13101819D02*
X17659203Y-13120867D01*
X17821108Y-13263724D02*
X17830632Y-13254200D01*
X17830632Y-13254200D02*
X17849680Y-13225629D01*
X17849680Y-13225629D02*
X17859203Y-13206581D01*
X17859203Y-13206581D02*
X17868727Y-13178010D01*
X17868727Y-13178010D02*
X17878251Y-13130391D01*
X17878251Y-13130391D02*
X17878251Y-13092296D01*
X17878251Y-13092296D02*
X17868727Y-13044677D01*
X17868727Y-13044677D02*
X17859203Y-13016105D01*
X17859203Y-13016105D02*
X17849680Y-12997058D01*
X17849680Y-12997058D02*
X17830632Y-12968486D01*
X17830632Y-12968486D02*
X17821108Y-12958962D01*
M02*
