M48
; DRILL file {KiCad 7.0.11-2.fc39} date Sun 24 Mar 2024 03:10:39 AM +08
; FORMAT={-:-/ absolute / metric / decimal}
; #@! TF.CreationDate,2024-03-24T03:10:39+08:00
; #@! TF.GenerationSoftware,Kicad,Pcbnew,7.0.11-2.fc39
; #@! TF.FileFunction,Plated,1,2,PTH
FMAT,2
METRIC
; #@! TA.AperFunction,Plated,PTH,ViaDrill
T1C0.300
; #@! TA.AperFunction,Plated,PTH,ViaDrill
T2C1.143
%
G90
G05
T1
X133.35Y-83.82
X133.35Y-86.36
X133.35Y-88.9
X133.35Y-91.44
X133.35Y-93.98
X133.35Y-96.52
X133.35Y-99.06
X133.35Y-101.6
X133.35Y-104.14
X133.35Y-106.68
X133.35Y-109.22
X133.35Y-111.76
X133.35Y-114.3
X133.35Y-116.84
X133.35Y-119.38
X134.62Y-82.55
X134.62Y-120.65
X135.89Y-88.9
X135.89Y-91.44
X135.89Y-93.98
X135.89Y-96.52
X135.89Y-99.06
X135.89Y-101.6
X135.89Y-104.14
X135.89Y-106.68
X135.89Y-109.22
X135.89Y-111.76
X135.89Y-114.3
X137.16Y-82.55
X137.16Y-120.65
X138.43Y-83.82
X138.43Y-86.36
X138.43Y-88.9
X138.43Y-91.44
X138.43Y-93.98
X138.43Y-96.52
X138.43Y-99.06
X138.43Y-101.6
X138.43Y-104.14
X138.43Y-106.68
X138.43Y-109.22
X138.43Y-111.76
X138.43Y-114.3
X138.43Y-116.84
X138.43Y-119.38
X139.7Y-82.55
X140.716Y-90.424
X140.97Y-83.82
X140.97Y-99.06
X140.97Y-101.6
X140.97Y-104.14
X140.97Y-106.68
X140.97Y-109.22
X140.97Y-111.76
X140.97Y-114.3
X140.97Y-116.84
X142.24Y-82.55
X142.24Y-120.65
X143.51Y-101.6
X143.51Y-104.14
X143.51Y-106.68
X143.51Y-109.22
X143.51Y-111.76
X143.51Y-114.3
X143.51Y-116.84
X143.51Y-119.38
X144.78Y-82.55
X144.78Y-120.65
X145.034Y-86.868
X145.034Y-89.408
X145.034Y-91.44
X145.034Y-94.488
X145.034Y-97.028
X146.05Y-101.6
X146.05Y-104.14
X146.05Y-106.68
X146.05Y-109.22
X146.05Y-111.76
X146.05Y-114.3
X146.05Y-116.84
X147.32Y-82.55
X148.59Y-85.09
X148.59Y-87.63
X148.59Y-95.25
X148.59Y-97.79
X148.59Y-101.6
X148.59Y-104.14
X148.59Y-106.68
X148.59Y-109.22
X148.59Y-111.76
X148.59Y-114.3
X148.59Y-116.84
X149.86Y-82.55
X151.13Y-87.63
X151.13Y-90.17
X151.13Y-92.71
X151.13Y-95.25
X151.13Y-97.79
X151.13Y-101.6
X151.13Y-104.14
X151.13Y-106.68
X151.13Y-109.22
X151.13Y-111.76
X151.13Y-114.3
X151.13Y-120.65
X152.4Y-82.55
X152.4Y-85.09
X152.4Y-119.38
X152.908Y-94.488
X153.67Y-87.63
X153.67Y-90.17
X153.67Y-92.71
X153.67Y-95.25
X153.67Y-120.65
X153.9Y-97.028
X154.94Y-82.55
X156.21Y-85.09
X156.21Y-87.63
X156.21Y-90.17
X156.21Y-92.71
X156.21Y-95.25
X156.21Y-97.79
X156.21Y-104.14
X156.21Y-106.68
X156.21Y-109.22
X156.21Y-111.76
X156.21Y-114.3
X156.21Y-116.84
X157.48Y-82.55
X158.75Y-85.09
X158.75Y-87.63
X158.75Y-90.17
X158.75Y-92.71
X158.75Y-95.25
X158.75Y-97.79
X158.75Y-104.14
X158.75Y-106.68
X158.75Y-109.22
X158.75Y-111.76
X158.75Y-114.3
X158.75Y-116.84
X159.766Y-91.948
X159.766Y-97.028
X159.766Y-99.568
X160.02Y-82.55
X160.02Y-120.65
X161.29Y-101.6
X161.29Y-104.14
X161.29Y-106.68
X161.29Y-109.22
X161.29Y-111.76
X161.29Y-114.3
X161.29Y-116.84
X161.29Y-119.38
X162.052Y-94.488
X162.56Y-82.55
X162.56Y-120.65
X163.83Y-104.14
X163.83Y-106.68
X163.83Y-109.22
X163.83Y-114.3
X163.83Y-116.84
X165.1Y-82.55
X166.37Y-86.36
X166.37Y-88.9
X166.37Y-91.44
X166.37Y-93.98
X166.37Y-96.52
X166.37Y-99.06
X166.37Y-101.6
X166.37Y-104.14
X166.37Y-106.68
X166.37Y-109.22
X166.37Y-111.76
X166.37Y-114.3
X166.37Y-116.84
X166.37Y-119.38
X167.64Y-82.55
X167.64Y-120.65
X168.91Y-88.9
X168.91Y-91.44
X168.91Y-93.98
X168.91Y-96.52
X168.91Y-99.06
X168.91Y-101.6
X168.91Y-104.14
X168.91Y-106.68
X168.91Y-109.22
X168.91Y-111.76
X168.91Y-114.3
X170.18Y-82.55
X170.18Y-120.65
X171.45Y-83.82
X171.45Y-86.36
X171.45Y-88.9
X171.45Y-91.44
X171.45Y-93.98
X171.45Y-96.52
X171.45Y-99.06
X171.45Y-101.6
X171.45Y-104.14
X171.45Y-106.68
X171.45Y-109.22
X171.45Y-111.76
X171.45Y-114.3
X171.45Y-116.84
X171.45Y-119.38
T2
X147.828Y-91.694
M30
